  0
SECTION
  2
HEADER
  9
$ACADVER
  1
AC1009
  9
$EXTMIN
 10
0.0
 20
0.0
 30
0.0
  9
$EXTMAX
 10
1000.0
 20
1000.0
 30
0.0
  9
$FILLMODE
 70
 0
  9
$SPLFRAME
 70
 1
  0
ENDSEC
  0
SECTION
  2
TABLES
  0
TABLE
  2
LAYER
 70
1
  0
LAYER
  2
0
 70
     0
 62
     7
  6
CONTINUOUS
  0
ENDTAB
  0
ENDSEC
  0
SECTION
  2
ENTITIES
  0
POLYLINE
  8
0
 62
     0
 66
     1
 10
0
 20
0
 30
0.0
 70
     1
 40
0
 41
0
  0
VERTEX
  8
0
 10
76.3993
 20
160.717
 30
0.0
 40
0
 41
0
  0
VERTEX
  8
0
 10
76.7158
 20
160.533
 30
0.0
 40
0
 41
0
  0
VERTEX
  8
0
 10
77.6853
 20
160.019
 30
0.0
 40
0
 41
0
  0
VERTEX
  8
0
 10
79.0001
 20
159.396
 30
0.0
 40
0
 41
0
  0
VERTEX
  8
0
 10
80.3408
 20
158.847
 30
0.0
 40
0
 41
0
  0
VERTEX
  8
0
 10
81.7042
 20
158.372
 30
0.0
 40
0
 41
0
  0
VERTEX
  8
0
 10
83.0872
 20
157.972
 30
0.0
 40
0
 41
0
  0
VERTEX
  8
0
 10
84.4867
 20
157.647
 30
0.0
 40
0
 41
0
  0
VERTEX
  8
0
 10
85.8997
 20
157.397
 30
0.0
 40
0
 41
0
  0
VERTEX
  8
0
 10
87.3231
 20
157.222
 30
0.0
 40
0
 41
0
  0
VERTEX
  8
0
 10
88.7536
 20
157.124
 30
0.0
 40
0
 41
0
  0
VERTEX
  8
0
 10
90.1883
 20
157.1
 30
0.0
 40
0
 41
0
  0
VERTEX
  8
0
 10
91.6242
 20
157.154
 30
0.0
 40
0
 41
0
  0
VERTEX
  8
0
 10
93.0581
 20
157.285
 30
0.0
 40
0
 41
0
  0
VERTEX
  8
0
 10
94.4867
 20
157.492
 30
0.0
 40
0
 41
0
  0
VERTEX
  8
0
 10
95.9072
 20
157.775
 30
0.0
 40
0
 41
0
  0
VERTEX
  8
0
 10
97.3167
 20
158.138
 30
0.0
 40
0
 41
0
  0
VERTEX
  8
0
 10
98.3661
 20
158.458
 30
0.0
 40
0
 41
0
  0
VERTEX
  8
0
 10
98.7115
 20
158.578
 30
0.0
 40
0
 41
0
  0
VERTEX
  8
0
 10
281.807
 20
221.799
 30
0.0
 40
0
 41
0
  0
VERTEX
  8
0
 10
281.997
 20
221.864
 30
0.0
 40
0
 41
0
  0
VERTEX
  8
0
 10
282.563
 20
222.071
 30
0.0
 40
0
 41
0
  0
VERTEX
  8
0
 10
283.307
 20
222.367
 30
0.0
 40
0
 41
0
  0
VERTEX
  8
0
 10
284.04
 20
222.682
 30
0.0
 40
0
 41
0
  0
VERTEX
  8
0
 10
284.761
 20
223.018
 30
0.0
 40
0
 41
0
  0
VERTEX
  8
0
 10
285.471
 20
223.374
 30
0.0
 40
0
 41
0
  0
VERTEX
  8
0
 10
286.167
 20
223.75
 30
0.0
 40
0
 41
0
  0
VERTEX
  8
0
 10
286.851
 20
224.146
 30
0.0
 40
0
 41
0
  0
VERTEX
  8
0
 10
287.522
 20
224.561
 30
0.0
 40
0
 41
0
  0
VERTEX
  8
0
 10
288.179
 20
224.994
 30
0.0
 40
0
 41
0
  0
VERTEX
  8
0
 10
288.824
 20
225.446
 30
0.0
 40
0
 41
0
  0
VERTEX
  8
0
 10
289.453
 20
225.915
 30
0.0
 40
0
 41
0
  0
VERTEX
  8
0
 10
290.068
 20
226.403
 30
0.0
 40
0
 41
0
  0
VERTEX
  8
0
 10
290.668
 20
226.907
 30
0.0
 40
0
 41
0
  0
VERTEX
  8
0
 10
291.253
 20
227.429
 30
0.0
 40
0
 41
0
  0
VERTEX
  8
0
 10
291.822
 20
227.967
 30
0.0
 40
0
 41
0
  0
VERTEX
  8
0
 10
292.375
 20
228.521
 30
0.0
 40
0
 41
0
  0
VERTEX
  8
0
 10
292.912
 20
229.092
 30
0.0
 40
0
 41
0
  0
VERTEX
  8
0
 10
293.433
 20
229.676
 30
0.0
 40
0
 41
0
  0
VERTEX
  8
0
 10
293.936
 20
230.278
 30
0.0
 40
0
 41
0
  0
VERTEX
  8
0
 10
294.422
 20
230.893
 30
0.0
 40
0
 41
0
  0
VERTEX
  8
0
 10
294.89
 20
231.522
 30
0.0
 40
0
 41
0
  0
VERTEX
  8
0
 10
295.342
 20
232.165
 30
0.0
 40
0
 41
0
  0
VERTEX
  8
0
 10
295.774
 20
232.822
 30
0.0
 40
0
 41
0
  0
VERTEX
  8
0
 10
296.186
 20
233.493
 30
0.0
 40
0
 41
0
  0
VERTEX
  8
0
 10
296.581
 20
234.176
 30
0.0
 40
0
 41
0
  0
VERTEX
  8
0
 10
296.954
 20
234.872
 30
0.0
 40
0
 41
0
  0
VERTEX
  8
0
 10
297.31
 20
235.581
 30
0.0
 40
0
 41
0
  0
VERTEX
  8
0
 10
297.644
 20
236.3
 30
0.0
 40
0
 41
0
  0
VERTEX
  8
0
 10
297.958
 20
237.032
 30
0.0
 40
0
 41
0
  0
VERTEX
  8
0
 10
298.251
 20
237.774
 30
0.0
 40
0
 41
0
  0
VERTEX
  8
0
 10
298.522
 20
238.526
 30
0.0
 40
0
 41
0
  0
VERTEX
  8
0
 10
298.714
 20
239.099
 30
0.0
 40
0
 41
0
  0
VERTEX
  8
0
 10
298.774
 20
239.29
 30
0.0
 40
0
 41
0
  0
VERTEX
  8
0
 10
298.833
 20
239.482
 30
0.0
 40
0
 41
0
  0
VERTEX
  8
0
 10
299
 20
240.061
 30
0.0
 40
0
 41
0
  0
VERTEX
  8
0
 10
299.204
 20
240.835
 30
0.0
 40
0
 41
0
  0
VERTEX
  8
0
 10
299.385
 20
241.612
 30
0.0
 40
0
 41
0
  0
VERTEX
  8
0
 10
299.542
 20
242.393
 30
0.0
 40
0
 41
0
  0
VERTEX
  8
0
 10
299.675
 20
243.175
 30
0.0
 40
0
 41
0
  0
VERTEX
  8
0
 10
299.785
 20
243.96
 30
0.0
 40
0
 41
0
  0
VERTEX
  8
0
 10
299.872
 20
244.744
 30
0.0
 40
0
 41
0
  0
VERTEX
  8
0
 10
299.936
 20
245.531
 30
0.0
 40
0
 41
0
  0
VERTEX
  8
0
 10
299.976
 20
246.317
 30
0.0
 40
0
 41
0
  0
VERTEX
  8
0
 10
299.994
 20
247.103
 30
0.0
 40
0
 41
0
  0
VERTEX
  8
0
 10
299.989
 20
247.889
 30
0.0
 40
0
 41
0
  0
VERTEX
  8
0
 10
299.961
 20
248.674
 30
0.0
 40
0
 41
0
  0
VERTEX
  8
0
 10
299.91
 20
249.456
 30
0.0
 40
0
 41
0
  0
VERTEX
  8
0
 10
299.836
 20
250.236
 30
0.0
 40
0
 41
0
  0
VERTEX
  8
0
 10
299.74
 20
251.013
 30
0.0
 40
0
 41
0
  0
VERTEX
  8
0
 10
299.622
 20
251.787
 30
0.0
 40
0
 41
0
  0
VERTEX
  8
0
 10
299.482
 20
252.557
 30
0.0
 40
0
 41
0
  0
VERTEX
  8
0
 10
299.318
 20
253.324
 30
0.0
 40
0
 41
0
  0
VERTEX
  8
0
 10
299.133
 20
254.085
 30
0.0
 40
0
 41
0
  0
VERTEX
  8
0
 10
298.926
 20
254.842
 30
0.0
 40
0
 41
0
  0
VERTEX
  8
0
 10
298.696
 20
255.592
 30
0.0
 40
0
 41
0
  0
VERTEX
  8
0
 10
298.444
 20
256.336
 30
0.0
 40
0
 41
0
  0
VERTEX
  8
0
 10
298.172
 20
257.074
 30
0.0
 40
0
 41
0
  0
VERTEX
  8
0
 10
297.876
 20
257.803
 30
0.0
 40
0
 41
0
  0
VERTEX
  8
0
 10
297.56
 20
258.525
 30
0.0
 40
0
 41
0
  0
VERTEX
  8
0
 10
297.221
 20
259.24
 30
0.0
 40
0
 41
0
  0
VERTEX
  8
0
 10
296.861
 20
259.944
 30
0.0
 40
0
 41
0
  0
VERTEX
  8
0
 10
296.479
 20
260.642
 30
0.0
 40
0
 41
0
  0
VERTEX
  8
0
 10
296.076
 20
261.328
 30
0.0
 40
0
 41
0
  0
VERTEX
  8
0
 10
295.653
 20
262.003
 30
0.0
 40
0
 41
0
  0
VERTEX
  8
0
 10
295.207
 20
262.668
 30
0.0
 40
0
 41
0
  0
VERTEX
  8
0
 10
294.86
 20
263.161
 30
0.0
 40
0
 41
0
  0
VERTEX
  8
0
 10
294.74
 20
263.322
 30
0.0
 40
0
 41
0
  0
VERTEX
  8
0
 10
294.622
 20
263.485
 30
0.0
 40
0
 41
0
  0
VERTEX
  8
0
 10
294.256
 20
263.963
 30
0.0
 40
0
 41
0
  0
VERTEX
  8
0
 10
293.753
 20
264.586
 30
0.0
 40
0
 41
0
  0
VERTEX
  8
0
 10
293.233
 20
265.192
 30
0.0
 40
0
 41
0
  0
VERTEX
  8
0
 10
292.697
 20
265.781
 30
0.0
 40
0
 41
0
  0
VERTEX
  8
0
 10
292.146
 20
266.351
 30
0.0
 40
0
 41
0
  0
VERTEX
  8
0
 10
291.581
 20
266.906
 30
0.0
 40
0
 41
0
  0
VERTEX
  8
0
 10
290.999
 20
267.44
 30
0.0
 40
0
 41
0
  0
VERTEX
  8
0
 10
290.404
 20
267.958
 30
0.0
 40
0
 41
0
  0
VERTEX
  8
0
 10
289.794
 20
268.457
 30
0.0
 40
0
 41
0
  0
VERTEX
  8
0
 10
289.171
 20
268.938
 30
0.0
 40
0
 41
0
  0
VERTEX
  8
0
 10
288.536
 20
269.399
 30
0.0
 40
0
 41
0
  0
VERTEX
  8
0
 10
287.888
 20
269.84
 30
0.0
 40
0
 41
0
  0
VERTEX
  8
0
 10
287.228
 20
270.264
 30
0.0
 40
0
 41
0
  0
VERTEX
  8
0
 10
286.556
 20
270.667
 30
0.0
 40
0
 41
0
  0
VERTEX
  8
0
 10
285.872
 20
271.05
 30
0.0
 40
0
 41
0
  0
VERTEX
  8
0
 10
285.179
 20
271.414
 30
0.0
 40
0
 41
0
  0
VERTEX
  8
0
 10
284.475
 20
271.757
 30
0.0
 40
0
 41
0
  0
VERTEX
  8
0
 10
283.761
 20
272.081
 30
0.0
 40
0
 41
0
  0
VERTEX
  8
0
 10
283.037
 20
272.382
 30
0.0
 40
0
 41
0
  0
VERTEX
  8
0
 10
282.306
 20
272.662
 30
0.0
 40
0
 41
0
  0
VERTEX
  8
0
 10
281.565
 20
272.924
 30
0.0
 40
0
 41
0
  0
VERTEX
  8
0
 10
280.818
 20
273.161
 30
0.0
 40
0
 41
0
  0
VERTEX
  8
0
 10
280.061
 20
273.379
 30
0.0
 40
0
 41
0
  0
VERTEX
  8
0
 10
279.299
 20
273.574
 30
0.0
 40
0
 41
0
  0
VERTEX
  8
0
 10
278.529
 20
273.747
 30
0.0
 40
0
 41
0
  0
VERTEX
  8
0
 10
277.753
 20
273.897
 30
0.0
 40
0
 41
0
  0
VERTEX
  8
0
 10
276.972
 20
274.025
 30
0.0
 40
0
 41
0
  0
VERTEX
  8
0
 10
276.185
 20
274.131
 30
0.0
 40
0
 41
0
  0
VERTEX
  8
0
 10
275.393
 20
274.213
 30
0.0
 40
0
 41
0
  0
VERTEX
  8
0
 10
274.597
 20
274.272
 30
0.0
 40
0
 41
0
  0
VERTEX
  8
0
 10
273.797
 20
274.307
 30
0.0
 40
0
 41
0
  0
VERTEX
  8
0
 10
273.196
 20
274.319
 30
0.0
 40
0
 41
0
  0
VERTEX
  8
0
 10
272.994
 20
274.319
 30
0.0
 40
0
 41
0
  0
VERTEX
  8
0
 10
164.994
 20
274.319
 30
0.0
 40
0
 41
0
  0
VERTEX
  8
0
 10
164.665
 20
274.319
 30
0.0
 40
0
 41
0
  0
VERTEX
  8
0
 10
163.675
 20
274.287
 30
0.0
 40
0
 41
0
  0
VERTEX
  8
0
 10
162.36
 20
274.19
 30
0.0
 40
0
 41
0
  0
VERTEX
  8
0
 10
161.05
 20
274.029
 30
0.0
 40
0
 41
0
  0
VERTEX
  8
0
 10
160.074
 20
273.869
 30
0.0
 40
0
 41
0
  0
VERTEX
  8
0
 10
159.75
 20
273.806
 30
0.0
 40
0
 41
0
  0
VERTEX
  8
0
 10
22.3003
 20
246.585
 30
0.0
 40
0
 41
0
  0
VERTEX
  8
0
 10
22.1311
 20
246.551
 30
0.0
 40
0
 41
0
  0
VERTEX
  8
0
 10
21.6253
 20
246.442
 30
0.0
 40
0
 41
0
  0
VERTEX
  8
0
 10
20.956
 20
246.282
 30
0.0
 40
0
 41
0
  0
VERTEX
  8
0
 10
20.2924
 20
246.107
 30
0.0
 40
0
 41
0
  0
VERTEX
  8
0
 10
19.6349
 20
245.914
 30
0.0
 40
0
 41
0
  0
VERTEX
  8
0
 10
18.9837
 20
245.706
 30
0.0
 40
0
 41
0
  0
VERTEX
  8
0
 10
18.3393
 20
245.481
 30
0.0
 40
0
 41
0
  0
VERTEX
  8
0
 10
17.7017
 20
245.24
 30
0.0
 40
0
 41
0
  0
VERTEX
  8
0
 10
17.0711
 20
244.985
 30
0.0
 40
0
 41
0
  0
VERTEX
  8
0
 10
16.4481
 20
244.713
 30
0.0
 40
0
 41
0
  0
VERTEX
  8
0
 10
15.8326
 20
244.426
 30
0.0
 40
0
 41
0
  0
VERTEX
  8
0
 10
15.2251
 20
244.124
 30
0.0
 40
0
 41
0
  0
VERTEX
  8
0
 10
14.626
 20
243.807
 30
0.0
 40
0
 41
0
  0
VERTEX
  8
0
 10
14.0353
 20
243.476
 30
0.0
 40
0
 41
0
  0
VERTEX
  8
0
 10
13.4532
 20
243.129
 30
0.0
 40
0
 41
0
  0
VERTEX
  8
0
 10
12.8803
 20
242.769
 30
0.0
 40
0
 41
0
  0
VERTEX
  8
0
 10
12.3166
 20
242.394
 30
0.0
 40
0
 41
0
  0
VERTEX
  8
0
 10
11.7625
 20
242.006
 30
0.0
 40
0
 41
0
  0
VERTEX
  8
0
 10
11.2183
 20
241.603
 30
0.0
 40
0
 41
0
  0
VERTEX
  8
0
 10
10.6841
 20
241.186
 30
0.0
 40
0
 41
0
  0
VERTEX
  8
0
 10
10.1604
 20
240.757
 30
0.0
 40
0
 41
0
  0
VERTEX
  8
0
 10
9.64725
 20
240.314
 30
0.0
 40
0
 41
0
  0
VERTEX
  8
0
 10
9.14501
 20
239.858
 30
0.0
 40
0
 41
0
  0
VERTEX
  8
0
 10
8.65397
 20
239.389
 30
0.0
 40
0
 41
0
  0
VERTEX
  8
0
 10
8.17437
 20
238.908
 30
0.0
 40
0
 41
0
  0
VERTEX
  8
0
 10
7.70654
 20
238.414
 30
0.0
 40
0
 41
0
  0
VERTEX
  8
0
 10
7.2506
 20
237.907
 30
0.0
 40
0
 41
0
  0
VERTEX
  8
0
 10
6.80697
 20
237.389
 30
0.0
 40
0
 41
0
  0
VERTEX
  8
0
 10
6.37587
 20
236.857
 30
0.0
 40
0
 41
0
  0
VERTEX
  8
0
 10
5.95751
 20
236.315
 30
0.0
 40
0
 41
0
  0
VERTEX
  8
0
 10
5.55225
 20
235.761
 30
0.0
 40
0
 41
0
  0
VERTEX
  8
0
 10
5.16032
 20
235.196
 30
0.0
 40
0
 41
0
  0
VERTEX
  8
0
 10
4.87472
 20
234.764
 30
0.0
 40
0
 41
0
  0
VERTEX
  8
0
 10
4.78201
 20
234.618
 30
0.0
 40
0
 41
0
  0
VERTEX
  8
0
 10
4.59685
 20
234.328
 30
0.0
 40
0
 41
0
  0
VERTEX
  8
0
 10
4.0709
 20
233.439
 30
0.0
 40
0
 41
0
  0
VERTEX
  8
0
 10
3.42378
 20
232.229
 30
0.0
 40
0
 41
0
  0
VERTEX
  8
0
 10
2.84104
 20
230.994
 30
0.0
 40
0
 41
0
  0
VERTEX
  8
0
 10
2.32314
 20
229.735
 30
0.0
 40
0
 41
0
  0
VERTEX
  8
0
 10
1.87039
 20
228.453
 30
0.0
 40
0
 41
0
  0
VERTEX
  8
0
 10
1.48335
 20
227.154
 30
0.0
 40
0
 41
0
  0
VERTEX
  8
0
 10
1.16238
 20
225.837
 30
0.0
 40
0
 41
0
  0
VERTEX
  8
0
 10
0.907932
 20
224.508
 30
0.0
 40
0
 41
0
  0
VERTEX
  8
0
 10
0.720378
 20
223.168
 30
0.0
 40
0
 41
0
  0
VERTEX
  8
0
 10
0.600206
 20
221.818
 30
0.0
 40
0
 41
0
  0
VERTEX
  8
0
 10
0.547797
 20
220.464
 30
0.0
 40
0
 41
0
  0
VERTEX
  8
0
 10
0.563639
 20
219.106
 30
0.0
 40
0
 41
0
  0
VERTEX
  8
0
 10
0.648058
 20
217.746
 30
0.0
 40
0
 41
0
  0
VERTEX
  8
0
 10
0.80154
 20
216.388
 30
0.0
 40
0
 41
0
  0
VERTEX
  8
0
 10
1.02452
 20
215.035
 30
0.0
 40
0
 41
0
  0
VERTEX
  8
0
 10
1.23568
 20
214.024
 30
0.0
 40
0
 41
0
  0
VERTEX
  8
0
 10
1.31744
 20
213.689
 30
0.0
 40
0
 41
0
  0
VERTEX
  8
0
 10
1.35834
 20
213.521
 30
0.0
 40
0
 41
0
  0
VERTEX
  8
0
 10
1.48969
 20
213.021
 30
0.0
 40
0
 41
0
  0
VERTEX
  8
0
 10
1.6785
 20
212.36
 30
0.0
 40
0
 41
0
  0
VERTEX
  8
0
 10
1.88363
 20
211.704
 30
0.0
 40
0
 41
0
  0
VERTEX
  8
0
 10
2.10482
 20
211.056
 30
0.0
 40
0
 41
0
  0
VERTEX
  8
0
 10
2.34196
 20
210.414
 30
0.0
 40
0
 41
0
  0
VERTEX
  8
0
 10
2.59478
 20
209.781
 30
0.0
 40
0
 41
0
  0
VERTEX
  8
0
 10
2.86317
 20
209.154
 30
0.0
 40
0
 41
0
  0
VERTEX
  8
0
 10
3.14686
 20
208.535
 30
0.0
 40
0
 41
0
  0
VERTEX
  8
0
 10
3.44564
 20
207.925
 30
0.0
 40
0
 41
0
  0
VERTEX
  8
0
 10
3.75939
 20
207.322
 30
0.0
 40
0
 41
0
  0
VERTEX
  8
0
 10
4.08789
 20
206.729
 30
0.0
 40
0
 41
0
  0
VERTEX
  8
0
 10
4.43093
 20
206.144
 30
0.0
 40
0
 41
0
  0
VERTEX
  8
0
 10
4.78831
 20
205.569
 30
0.0
 40
0
 41
0
  0
VERTEX
  8
0
 10
5.15989
 20
205.003
 30
0.0
 40
0
 41
0
  0
VERTEX
  8
0
 10
5.54536
 20
204.446
 30
0.0
 40
0
 41
0
  0
VERTEX
  8
0
 10
5.94461
 20
203.9
 30
0.0
 40
0
 41
0
  0
VERTEX
  8
0
 10
6.35747
 20
203.364
 30
0.0
 40
0
 41
0
  0
VERTEX
  8
0
 10
6.78369
 20
202.837
 30
0.0
 40
0
 41
0
  0
VERTEX
  8
0
 10
7.22304
 20
202.322
 30
0.0
 40
0
 41
0
  0
VERTEX
  8
0
 10
7.6754
 20
201.818
 30
0.0
 40
0
 41
0
  0
VERTEX
  8
0
 10
8.14057
 20
201.325
 30
0.0
 40
0
 41
0
  0
VERTEX
  8
0
 10
8.61833
 20
200.843
 30
0.0
 40
0
 41
0
  0
VERTEX
  8
0
 10
9.10846
 20
200.374
 30
0.0
 40
0
 41
0
  0
VERTEX
  8
0
 10
9.61083
 20
199.915
 30
0.0
 40
0
 41
0
  0
VERTEX
  8
0
 10
10.1252
 20
199.471
 30
0.0
 40
0
 41
0
  0
VERTEX
  8
0
 10
10.6513
 20
199.038
 30
0.0
 40
0
 41
0
  0
VERTEX
  8
0
 10
11.1891
 20
198.617
 30
0.0
 40
0
 41
0
  0
VERTEX
  8
0
 10
11.7383
 20
198.21
 30
0.0
 40
0
 41
0
  0
VERTEX
  8
0
 10
12.2988
 20
197.815
 30
0.0
 40
0
 41
0
  0
VERTEX
  8
0
 10
12.8702
 20
197.435
 30
0.0
 40
0
 41
0
  0
VERTEX
  8
0
 10
13.4525
 20
197.068
 30
0.0
 40
0
 41
0
  0
VERTEX
  8
0
 10
13.8961
 20
196.803
 30
0.0
 40
0
 41
0
  0
VERTEX
  8
0
 10
14.0454
 20
196.717
 30
0.0
 40
0
 41
0
  0
VERTEX
  8
0
 10
76.3993
 20
160.717
 30
0.0
 40
0
 41
0
  0
SEQEND
 8
0
  0
POLYLINE
  8
0
 62
     0
 66
     1
 10
0
 20
0
 30
0.0
 70
     1
 40
0
 41
0
  0
VERTEX
  8
0
 10
267.258
 20
250.632
 30
0.0
 40
0
 41
0
  0
VERTEX
  8
0
 10
267.299
 20
250.703
 30
0.0
 40
0
 41
0
  0
VERTEX
  8
0
 10
267.429
 20
250.912
 30
0.0
 40
0
 41
0
  0
VERTEX
  8
0
 10
267.614
 20
251.182
 30
0.0
 40
0
 41
0
  0
VERTEX
  8
0
 10
267.81
 20
251.442
 30
0.0
 40
0
 41
0
  0
VERTEX
  8
0
 10
268.018
 20
251.692
 30
0.0
 40
0
 41
0
  0
VERTEX
  8
0
 10
268.239
 20
251.929
 30
0.0
 40
0
 41
0
  0
VERTEX
  8
0
 10
268.469
 20
252.157
 30
0.0
 40
0
 41
0
  0
VERTEX
  8
0
 10
268.711
 20
252.372
 30
0.0
 40
0
 41
0
  0
VERTEX
  8
0
 10
268.963
 20
252.575
 30
0.0
 40
0
 41
0
  0
VERTEX
  8
0
 10
269.224
 20
252.765
 30
0.0
 40
0
 41
0
  0
VERTEX
  8
0
 10
269.493
 20
252.943
 30
0.0
 40
0
 41
0
  0
VERTEX
  8
0
 10
269.772
 20
253.107
 30
0.0
 40
0
 41
0
  0
VERTEX
  8
0
 10
270.06
 20
253.258
 30
0.0
 40
0
 41
0
  0
VERTEX
  8
0
 10
270.354
 20
253.394
 30
0.0
 40
0
 41
0
  0
VERTEX
  8
0
 10
270.656
 20
253.517
 30
0.0
 40
0
 41
0
  0
VERTEX
  8
0
 10
270.965
 20
253.625
 30
0.0
 40
0
 41
0
  0
VERTEX
  8
0
 10
271.201
 20
253.696
 30
0.0
 40
0
 41
0
  0
VERTEX
  8
0
 10
271.281
 20
253.718
 30
0.0
 40
0
 41
0
  0
VERTEX
  8
0
 10
271.439
 20
253.76
 30
0.0
 40
0
 41
0
  0
VERTEX
  8
0
 10
271.921
 20
253.856
 30
0.0
 40
0
 41
0
  0
VERTEX
  8
0
 10
272.568
 20
253.929
 30
0.0
 40
0
 41
0
  0
VERTEX
  8
0
 10
273.215
 20
253.94
 30
0.0
 40
0
 41
0
  0
VERTEX
  8
0
 10
273.86
 20
253.886
 30
0.0
 40
0
 41
0
  0
VERTEX
  8
0
 10
274.494
 20
253.771
 30
0.0
 40
0
 41
0
  0
VERTEX
  8
0
 10
275.118
 20
253.594
 30
0.0
 40
0
 41
0
  0
VERTEX
  8
0
 10
275.724
 20
253.356
 30
0.0
 40
0
 41
0
  0
VERTEX
  8
0
 10
276.165
 20
253.138
 30
0.0
 40
0
 41
0
  0
VERTEX
  8
0
 10
276.307
 20
253.056
 30
0.0
 40
0
 41
0
  0
VERTEX
  8
0
 10
276.378
 20
253.015
 30
0.0
 40
0
 41
0
  0
VERTEX
  8
0
 10
276.588
 20
252.885
 30
0.0
 40
0
 41
0
  0
VERTEX
  8
0
 10
276.857
 20
252.7
 30
0.0
 40
0
 41
0
  0
VERTEX
  8
0
 10
277.118
 20
252.504
 30
0.0
 40
0
 41
0
  0
VERTEX
  8
0
 10
277.367
 20
252.296
 30
0.0
 40
0
 41
0
  0
VERTEX
  8
0
 10
277.606
 20
252.075
 30
0.0
 40
0
 41
0
  0
VERTEX
  8
0
 10
277.832
 20
251.844
 30
0.0
 40
0
 41
0
  0
VERTEX
  8
0
 10
278.047
 20
251.603
 30
0.0
 40
0
 41
0
  0
VERTEX
  8
0
 10
278.25
 20
251.351
 30
0.0
 40
0
 41
0
  0
VERTEX
  8
0
 10
278.44
 20
251.09
 30
0.0
 40
0
 41
0
  0
VERTEX
  8
0
 10
278.618
 20
250.821
 30
0.0
 40
0
 41
0
  0
VERTEX
  8
0
 10
278.782
 20
250.542
 30
0.0
 40
0
 41
0
  0
VERTEX
  8
0
 10
278.933
 20
250.254
 30
0.0
 40
0
 41
0
  0
VERTEX
  8
0
 10
279.069
 20
249.96
 30
0.0
 40
0
 41
0
  0
VERTEX
  8
0
 10
279.192
 20
249.658
 30
0.0
 40
0
 41
0
  0
VERTEX
  8
0
 10
279.3
 20
249.349
 30
0.0
 40
0
 41
0
  0
VERTEX
  8
0
 10
279.372
 20
249.112
 30
0.0
 40
0
 41
0
  0
VERTEX
  8
0
 10
279.393
 20
249.033
 30
0.0
 40
0
 41
0
  0
VERTEX
  8
0
 10
279.435
 20
248.876
 30
0.0
 40
0
 41
0
  0
VERTEX
  8
0
 10
279.531
 20
248.393
 30
0.0
 40
0
 41
0
  0
VERTEX
  8
0
 10
279.604
 20
247.747
 30
0.0
 40
0
 41
0
  0
VERTEX
  8
0
 10
279.615
 20
247.099
 30
0.0
 40
0
 41
0
  0
VERTEX
  8
0
 10
279.563
 20
246.456
 30
0.0
 40
0
 41
0
  0
VERTEX
  8
0
 10
279.446
 20
245.819
 30
0.0
 40
0
 41
0
  0
VERTEX
  8
0
 10
279.269
 20
245.196
 30
0.0
 40
0
 41
0
  0
VERTEX
  8
0
 10
279.031
 20
244.59
 30
0.0
 40
0
 41
0
  0
VERTEX
  8
0
 10
278.813
 20
244.149
 30
0.0
 40
0
 41
0
  0
VERTEX
  8
0
 10
278.731
 20
244.007
 30
0.0
 40
0
 41
0
  0
VERTEX
  8
0
 10
278.69
 20
243.936
 30
0.0
 40
0
 41
0
  0
VERTEX
  8
0
 10
278.56
 20
243.726
 30
0.0
 40
0
 41
0
  0
VERTEX
  8
0
 10
278.376
 20
243.457
 30
0.0
 40
0
 41
0
  0
VERTEX
  8
0
 10
278.179
 20
243.197
 30
0.0
 40
0
 41
0
  0
VERTEX
  8
0
 10
277.971
 20
242.947
 30
0.0
 40
0
 41
0
  0
VERTEX
  8
0
 10
277.751
 20
242.71
 30
0.0
 40
0
 41
0
  0
VERTEX
  8
0
 10
277.519
 20
242.482
 30
0.0
 40
0
 41
0
  0
VERTEX
  8
0
 10
277.279
 20
242.267
 30
0.0
 40
0
 41
0
  0
VERTEX
  8
0
 10
277.026
 20
242.064
 30
0.0
 40
0
 41
0
  0
VERTEX
  8
0
 10
276.765
 20
241.874
 30
0.0
 40
0
 41
0
  0
VERTEX
  8
0
 10
276.496
 20
241.696
 30
0.0
 40
0
 41
0
  0
VERTEX
  8
0
 10
276.217
 20
241.532
 30
0.0
 40
0
 41
0
  0
VERTEX
  8
0
 10
275.929
 20
241.382
 30
0.0
 40
0
 41
0
  0
VERTEX
  8
0
 10
275.635
 20
241.244
 30
0.0
 40
0
 41
0
  0
VERTEX
  8
0
 10
275.333
 20
241.122
 30
0.0
 40
0
 41
0
  0
VERTEX
  8
0
 10
275.024
 20
241.014
 30
0.0
 40
0
 41
0
  0
VERTEX
  8
0
 10
274.789
 20
240.943
 30
0.0
 40
0
 41
0
  0
VERTEX
  8
0
 10
274.71
 20
240.921
 30
0.0
 40
0
 41
0
  0
VERTEX
  8
0
 10
274.551
 20
240.879
 30
0.0
 40
0
 41
0
  0
VERTEX
  8
0
 10
274.068
 20
240.783
 30
0.0
 40
0
 41
0
  0
VERTEX
  8
0
 10
273.422
 20
240.71
 30
0.0
 40
0
 41
0
  0
VERTEX
  8
0
 10
272.774
 20
240.699
 30
0.0
 40
0
 41
0
  0
VERTEX
  8
0
 10
272.131
 20
240.753
 30
0.0
 40
0
 41
0
  0
VERTEX
  8
0
 10
271.494
 20
240.868
 30
0.0
 40
0
 41
0
  0
VERTEX
  8
0
 10
270.871
 20
241.044
 30
0.0
 40
0
 41
0
  0
VERTEX
  8
0
 10
270.265
 20
241.283
 30
0.0
 40
0
 41
0
  0
VERTEX
  8
0
 10
269.825
 20
241.501
 30
0.0
 40
0
 41
0
  0
VERTEX
  8
0
 10
269.682
 20
241.583
 30
0.0
 40
0
 41
0
  0
VERTEX
  8
0
 10
269.611
 20
241.624
 30
0.0
 40
0
 41
0
  0
VERTEX
  8
0
 10
269.403
 20
241.754
 30
0.0
 40
0
 41
0
  0
VERTEX
  8
0
 10
269.132
 20
241.939
 30
0.0
 40
0
 41
0
  0
VERTEX
  8
0
 10
268.872
 20
242.135
 30
0.0
 40
0
 41
0
  0
VERTEX
  8
0
 10
268.622
 20
242.343
 30
0.0
 40
0
 41
0
  0
VERTEX
  8
0
 10
268.385
 20
242.564
 30
0.0
 40
0
 41
0
  0
VERTEX
  8
0
 10
268.157
 20
242.794
 30
0.0
 40
0
 41
0
  0
VERTEX
  8
0
 10
267.942
 20
243.036
 30
0.0
 40
0
 41
0
  0
VERTEX
  8
0
 10
267.739
 20
243.287
 30
0.0
 40
0
 41
0
  0
VERTEX
  8
0
 10
267.549
 20
243.549
 30
0.0
 40
0
 41
0
  0
VERTEX
  8
0
 10
267.371
 20
243.818
 30
0.0
 40
0
 41
0
  0
VERTEX
  8
0
 10
267.207
 20
244.097
 30
0.0
 40
0
 41
0
  0
VERTEX
  8
0
 10
267.057
 20
244.385
 30
0.0
 40
0
 41
0
  0
VERTEX
  8
0
 10
266.919
 20
244.679
 30
0.0
 40
0
 41
0
  0
VERTEX
  8
0
 10
266.797
 20
244.981
 30
0.0
 40
0
 41
0
  0
VERTEX
  8
0
 10
266.689
 20
245.29
 30
0.0
 40
0
 41
0
  0
VERTEX
  8
0
 10
266.618
 20
245.526
 30
0.0
 40
0
 41
0
  0
VERTEX
  8
0
 10
266.596
 20
245.606
 30
0.0
 40
0
 41
0
  0
VERTEX
  8
0
 10
266.554
 20
245.763
 30
0.0
 40
0
 41
0
  0
VERTEX
  8
0
 10
266.458
 20
246.246
 30
0.0
 40
0
 41
0
  0
VERTEX
  8
0
 10
266.385
 20
246.893
 30
0.0
 40
0
 41
0
  0
VERTEX
  8
0
 10
266.374
 20
247.54
 30
0.0
 40
0
 41
0
  0
VERTEX
  8
0
 10
266.428
 20
248.185
 30
0.0
 40
0
 41
0
  0
VERTEX
  8
0
 10
266.543
 20
248.819
 30
0.0
 40
0
 41
0
  0
VERTEX
  8
0
 10
266.721
 20
249.443
 30
0.0
 40
0
 41
0
  0
VERTEX
  8
0
 10
266.958
 20
250.049
 30
0.0
 40
0
 41
0
  0
VERTEX
  8
0
 10
267.176
 20
250.49
 30
0.0
 40
0
 41
0
  0
VERTEX
  8
0
 10
267.258
 20
250.632
 30
0.0
 40
0
 41
0
  0
SEQEND
 8
0
  0
POLYLINE
  8
0
 62
     0
 66
     1
 10
0
 20
0
 30
0.0
 70
     1
 40
0
 41
0
  0
VERTEX
  8
0
 10
22.4325
 20
223.051
 30
0.0
 40
0
 41
0
  0
VERTEX
  8
0
 10
22.5054
 20
223.178
 30
0.0
 40
0
 41
0
  0
VERTEX
  8
0
 10
22.7493
 20
223.542
 30
0.0
 40
0
 41
0
  0
VERTEX
  8
0
 10
23.1101
 20
223.996
 30
0.0
 40
0
 41
0
  0
VERTEX
  8
0
 10
23.5119
 20
224.41
 30
0.0
 40
0
 41
0
  0
VERTEX
  8
0
 10
23.9514
 20
224.783
 30
0.0
 40
0
 41
0
  0
VERTEX
  8
0
 10
24.4249
 20
225.111
 30
0.0
 40
0
 41
0
  0
VERTEX
  8
0
 10
24.9293
 20
225.392
 30
0.0
 40
0
 41
0
  0
VERTEX
  8
0
 10
25.4612
 20
225.622
 30
0.0
 40
0
 41
0
  0
VERTEX
  8
0
 10
25.8765
 20
225.764
 30
0.0
 40
0
 41
0
  0
VERTEX
  8
0
 10
26.0174
 20
225.801
 30
0.0
 40
0
 41
0
  0
VERTEX
  8
0
 10
26.1583
 20
225.839
 30
0.0
 40
0
 41
0
  0
VERTEX
  8
0
 10
26.5886
 20
225.925
 30
0.0
 40
0
 41
0
  0
VERTEX
  8
0
 10
27.1647
 20
225.99
 30
0.0
 40
0
 41
0
  0
VERTEX
  8
0
 10
27.7421
 20
226
 30
0.0
 40
0
 41
0
  0
VERTEX
  8
0
 10
28.3161
 20
225.953
 30
0.0
 40
0
 41
0
  0
VERTEX
  8
0
 10
28.8828
 20
225.85
 30
0.0
 40
0
 41
0
  0
VERTEX
  8
0
 10
29.4381
 20
225.692
 30
0.0
 40
0
 41
0
  0
VERTEX
  8
0
 10
29.9776
 20
225.479
 30
0.0
 40
0
 41
0
  0
VERTEX
  8
0
 10
30.3711
 20
225.285
 30
0.0
 40
0
 41
0
  0
VERTEX
  8
0
 10
30.4975
 20
225.212
 30
0.0
 40
0
 41
0
  0
VERTEX
  8
0
 10
30.6237
 20
225.139
 30
0.0
 40
0
 41
0
  0
VERTEX
  8
0
 10
30.9883
 20
224.894
 30
0.0
 40
0
 41
0
  0
VERTEX
  8
0
 10
31.4424
 20
224.535
 30
0.0
 40
0
 41
0
  0
VERTEX
  8
0
 10
31.8569
 20
224.132
 30
0.0
 40
0
 41
0
  0
VERTEX
  8
0
 10
32.2294
 20
223.693
 30
0.0
 40
0
 41
0
  0
VERTEX
  8
0
 10
32.5574
 20
223.219
 30
0.0
 40
0
 41
0
  0
VERTEX
  8
0
 10
32.8382
 20
222.715
 30
0.0
 40
0
 41
0
  0
VERTEX
  8
0
 10
33.0693
 20
222.183
 30
0.0
 40
0
 41
0
  0
VERTEX
  8
0
 10
33.2106
 20
221.768
 30
0.0
 40
0
 41
0
  0
VERTEX
  8
0
 10
33.2483
 20
221.626
 30
0.0
 40
0
 41
0
  0
VERTEX
  8
0
 10
33.286
 20
221.486
 30
0.0
 40
0
 41
0
  0
VERTEX
  8
0
 10
33.3714
 20
221.056
 30
0.0
 40
0
 41
0
  0
VERTEX
  8
0
 10
33.4372
 20
220.479
 30
0.0
 40
0
 41
0
  0
VERTEX
  8
0
 10
33.4462
 20
219.903
 30
0.0
 40
0
 41
0
  0
VERTEX
  8
0
 10
33.399
 20
219.328
 30
0.0
 40
0
 41
0
  0
VERTEX
  8
0
 10
33.296
 20
218.761
 30
0.0
 40
0
 41
0
  0
VERTEX
  8
0
 10
33.1379
 20
218.207
 30
0.0
 40
0
 41
0
  0
VERTEX
  8
0
 10
32.9253
 20
217.667
 30
0.0
 40
0
 41
0
  0
VERTEX
  8
0
 10
32.7314
 20
217.274
 30
0.0
 40
0
 41
0
  0
VERTEX
  8
0
 10
32.6585
 20
217.147
 30
0.0
 40
0
 41
0
  0
VERTEX
  8
0
 10
32.5856
 20
217.021
 30
0.0
 40
0
 41
0
  0
VERTEX
  8
0
 10
32.3417
 20
216.656
 30
0.0
 40
0
 41
0
  0
VERTEX
  8
0
 10
31.9807
 20
216.201
 30
0.0
 40
0
 41
0
  0
VERTEX
  8
0
 10
31.5789
 20
215.788
 30
0.0
 40
0
 41
0
  0
VERTEX
  8
0
 10
31.1396
 20
215.415
 30
0.0
 40
0
 41
0
  0
VERTEX
  8
0
 10
30.6661
 20
215.087
 30
0.0
 40
0
 41
0
  0
VERTEX
  8
0
 10
30.1617
 20
214.806
 30
0.0
 40
0
 41
0
  0
VERTEX
  8
0
 10
29.6297
 20
214.575
 30
0.0
 40
0
 41
0
  0
VERTEX
  8
0
 10
29.2144
 20
214.433
 30
0.0
 40
0
 41
0
  0
VERTEX
  8
0
 10
29.0736
 20
214.396
 30
0.0
 40
0
 41
0
  0
VERTEX
  8
0
 10
28.9326
 20
214.358
 30
0.0
 40
0
 41
0
  0
VERTEX
  8
0
 10
28.5024
 20
214.274
 30
0.0
 40
0
 41
0
  0
VERTEX
  8
0
 10
27.9261
 20
214.207
 30
0.0
 40
0
 41
0
  0
VERTEX
  8
0
 10
27.3489
 20
214.199
 30
0.0
 40
0
 41
0
  0
VERTEX
  8
0
 10
26.7749
 20
214.246
 30
0.0
 40
0
 41
0
  0
VERTEX
  8
0
 10
26.2081
 20
214.349
 30
0.0
 40
0
 41
0
  0
VERTEX
  8
0
 10
25.6529
 20
214.507
 30
0.0
 40
0
 41
0
  0
VERTEX
  8
0
 10
25.1133
 20
214.719
 30
0.0
 40
0
 41
0
  0
VERTEX
  8
0
 10
24.7197
 20
214.913
 30
0.0
 40
0
 41
0
  0
VERTEX
  8
0
 10
24.5935
 20
214.986
 30
0.0
 40
0
 41
0
  0
VERTEX
  8
0
 10
24.4671
 20
215.058
 30
0.0
 40
0
 41
0
  0
VERTEX
  8
0
 10
24.1025
 20
215.303
 30
0.0
 40
0
 41
0
  0
VERTEX
  8
0
 10
23.6486
 20
215.664
 30
0.0
 40
0
 41
0
  0
VERTEX
  8
0
 10
23.234
 20
216.065
 30
0.0
 40
0
 41
0
  0
VERTEX
  8
0
 10
22.8615
 20
216.504
 30
0.0
 40
0
 41
0
  0
VERTEX
  8
0
 10
22.5335
 20
216.978
 30
0.0
 40
0
 41
0
  0
VERTEX
  8
0
 10
22.2528
 20
217.483
 30
0.0
 40
0
 41
0
  0
VERTEX
  8
0
 10
22.0215
 20
218.015
 30
0.0
 40
0
 41
0
  0
VERTEX
  8
0
 10
21.8804
 20
218.431
 30
0.0
 40
0
 41
0
  0
VERTEX
  8
0
 10
21.8426
 20
218.571
 30
0.0
 40
0
 41
0
  0
VERTEX
  8
0
 10
21.8049
 20
218.711
 30
0.0
 40
0
 41
0
  0
VERTEX
  8
0
 10
21.7194
 20
219.142
 30
0.0
 40
0
 41
0
  0
VERTEX
  8
0
 10
21.6537
 20
219.718
 30
0.0
 40
0
 41
0
  0
VERTEX
  8
0
 10
21.6447
 20
220.296
 30
0.0
 40
0
 41
0
  0
VERTEX
  8
0
 10
21.6919
 20
220.869
 30
0.0
 40
0
 41
0
  0
VERTEX
  8
0
 10
21.7949
 20
221.436
 30
0.0
 40
0
 41
0
  0
VERTEX
  8
0
 10
21.9531
 20
221.992
 30
0.0
 40
0
 41
0
  0
VERTEX
  8
0
 10
22.1657
 20
222.531
 30
0.0
 40
0
 41
0
  0
VERTEX
  8
0
 10
22.3594
 20
222.925
 30
0.0
 40
0
 41
0
  0
VERTEX
  8
0
 10
22.4325
 20
223.051
 30
0.0
 40
0
 41
0
  0
SEQEND
 8
0
  0
POLYLINE
  8
0
 62
     0
 66
     1
 10
0
 20
0
 30
0.0
 70
     1
 40
0
 41
0
  0
VERTEX
  8
0
 10
155.642
 20
252.719
 30
0.0
 40
0
 41
0
  0
VERTEX
  8
0
 10
155.708
 20
252.835
 30
0.0
 40
0
 41
0
  0
VERTEX
  8
0
 10
155.921
 20
253.176
 30
0.0
 40
0
 41
0
  0
VERTEX
  8
0
 10
156.221
 20
253.618
 30
0.0
 40
0
 41
0
  0
VERTEX
  8
0
 10
156.542
 20
254.042
 30
0.0
 40
0
 41
0
  0
VERTEX
  8
0
 10
156.882
 20
254.449
 30
0.0
 40
0
 41
0
  0
VERTEX
  8
0
 10
157.24
 20
254.836
 30
0.0
 40
0
 41
0
  0
VERTEX
  8
0
 10
157.617
 20
255.207
 30
0.0
 40
0
 41
0
  0
VERTEX
  8
0
 10
158.01
 20
255.557
 30
0.0
 40
0
 41
0
  0
VERTEX
  8
0
 10
158.419
 20
255.888
 30
0.0
 40
0
 41
0
  0
VERTEX
  8
0
 10
158.846
 20
256.199
 30
0.0
 40
0
 41
0
  0
VERTEX
  8
0
 10
159.286
 20
256.487
 30
0.0
 40
0
 41
0
  0
VERTEX
  8
0
 10
159.74
 20
256.756
 30
0.0
 40
0
 41
0
  0
VERTEX
  8
0
 10
160.208
 20
257.001
 30
0.0
 40
0
 41
0
  0
VERTEX
  8
0
 10
160.689
 20
257.225
 30
0.0
 40
0
 41
0
  0
VERTEX
  8
0
 10
161.182
 20
257.424
 30
0.0
 40
0
 41
0
  0
VERTEX
  8
0
 10
161.686
 20
257.6
 30
0.0
 40
0
 41
0
  0
VERTEX
  8
0
 10
162.069
 20
257.717
 30
0.0
 40
0
 41
0
  0
VERTEX
  8
0
 10
162.2
 20
257.751
 30
0.0
 40
0
 41
0
  0
VERTEX
  8
0
 10
162.329
 20
257.786
 30
0.0
 40
0
 41
0
  0
VERTEX
  8
0
 10
162.719
 20
257.878
 30
0.0
 40
0
 41
0
  0
VERTEX
  8
0
 10
163.244
 20
257.976
 30
0.0
 40
0
 41
0
  0
VERTEX
  8
0
 10
163.771
 20
258.05
 30
0.0
 40
0
 41
0
  0
VERTEX
  8
0
 10
164.299
 20
258.097
 30
0.0
 40
0
 41
0
  0
VERTEX
  8
0
 10
164.826
 20
258.118
 30
0.0
 40
0
 41
0
  0
VERTEX
  8
0
 10
165.354
 20
258.114
 30
0.0
 40
0
 41
0
  0
VERTEX
  8
0
 10
165.881
 20
258.083
 30
0.0
 40
0
 41
0
  0
VERTEX
  8
0
 10
166.404
 20
258.026
 30
0.0
 40
0
 41
0
  0
VERTEX
  8
0
 10
166.925
 20
257.946
 30
0.0
 40
0
 41
0
  0
VERTEX
  8
0
 10
167.442
 20
257.839
 30
0.0
 40
0
 41
0
  0
VERTEX
  8
0
 10
167.951
 20
257.707
 30
0.0
 40
0
 41
0
  0
VERTEX
  8
0
 10
168.457
 20
257.55
 30
0.0
 40
0
 41
0
  0
VERTEX
  8
0
 10
168.954
 20
257.368
 30
0.0
 40
0
 41
0
  0
VERTEX
  8
0
 10
169.443
 20
257.161
 30
0.0
 40
0
 41
0
  0
VERTEX
  8
0
 10
169.924
 20
256.929
 30
0.0
 40
0
 41
0
  0
VERTEX
  8
0
 10
170.279
 20
256.739
 30
0.0
 40
0
 41
0
  0
VERTEX
  8
0
 10
170.394
 20
256.672
 30
0.0
 40
0
 41
0
  0
VERTEX
  8
0
 10
170.511
 20
256.606
 30
0.0
 40
0
 41
0
  0
VERTEX
  8
0
 10
170.851
 20
256.393
 30
0.0
 40
0
 41
0
  0
VERTEX
  8
0
 10
171.293
 20
256.093
 30
0.0
 40
0
 41
0
  0
VERTEX
  8
0
 10
171.717
 20
255.772
 30
0.0
 40
0
 41
0
  0
VERTEX
  8
0
 10
172.124
 20
255.433
 30
0.0
 40
0
 41
0
  0
VERTEX
  8
0
 10
172.511
 20
255.074
 30
0.0
 40
0
 41
0
  0
VERTEX
  8
0
 10
172.882
 20
254.697
 30
0.0
 40
0
 41
0
  0
VERTEX
  8
0
 10
173.232
 20
254.304
 30
0.0
 40
0
 41
0
  0
VERTEX
  8
0
 10
173.563
 20
253.894
 30
0.0
 40
0
 41
0
  0
VERTEX
  8
0
 10
173.874
 20
253.468
 30
0.0
 40
0
 41
0
  0
VERTEX
  8
0
 10
174.163
 20
253.028
 30
0.0
 40
0
 41
0
  0
VERTEX
  8
0
 10
174.431
 20
252.574
 30
0.0
 40
0
 41
0
  0
VERTEX
  8
0
 10
174.676
 20
252.106
 30
0.0
 40
0
 41
0
  0
VERTEX
  8
0
 10
174.9
 20
251.625
 30
0.0
 40
0
 41
0
  0
VERTEX
  8
0
 10
175.099
 20
251.132
 30
0.0
 40
0
 41
0
  0
VERTEX
  8
0
 10
175.275
 20
250.629
 30
0.0
 40
0
 41
0
  0
VERTEX
  8
0
 10
175.392
 20
250.244
 30
0.0
 40
0
 41
0
  0
VERTEX
  8
0
 10
175.426
 20
250.115
 30
0.0
 40
0
 41
0
  0
VERTEX
  8
0
 10
175.461
 20
249.985
 30
0.0
 40
0
 41
0
  0
VERTEX
  8
0
 10
175.553
 20
249.594
 30
0.0
 40
0
 41
0
  0
VERTEX
  8
0
 10
175.651
 20
249.069
 30
0.0
 40
0
 41
0
  0
VERTEX
  8
0
 10
175.725
 20
248.543
 30
0.0
 40
0
 41
0
  0
VERTEX
  8
0
 10
175.772
 20
248.015
 30
0.0
 40
0
 41
0
  0
VERTEX
  8
0
 10
175.793
 20
247.487
 30
0.0
 40
0
 41
0
  0
VERTEX
  8
0
 10
175.789
 20
246.96
 30
0.0
 40
0
 41
0
  0
VERTEX
  8
0
 10
175.758
 20
246.433
 30
0.0
 40
0
 41
0
  0
VERTEX
  8
0
 10
175.703
 20
245.91
 30
0.0
 40
0
 41
0
  0
VERTEX
  8
0
 10
175.621
 20
245.389
 30
0.0
 40
0
 41
0
  0
VERTEX
  8
0
 10
175.514
 20
244.874
 30
0.0
 40
0
 41
0
  0
VERTEX
  8
0
 10
175.382
 20
244.362
 30
0.0
 40
0
 41
0
  0
VERTEX
  8
0
 10
175.225
 20
243.857
 30
0.0
 40
0
 41
0
  0
VERTEX
  8
0
 10
175.043
 20
243.36
 30
0.0
 40
0
 41
0
  0
VERTEX
  8
0
 10
174.836
 20
242.871
 30
0.0
 40
0
 41
0
  0
VERTEX
  8
0
 10
174.604
 20
242.39
 30
0.0
 40
0
 41
0
  0
VERTEX
  8
0
 10
174.415
 20
242.035
 30
0.0
 40
0
 41
0
  0
VERTEX
  8
0
 10
174.347
 20
241.919
 30
0.0
 40
0
 41
0
  0
VERTEX
  8
0
 10
174.281
 20
241.804
 30
0.0
 40
0
 41
0
  0
VERTEX
  8
0
 10
174.068
 20
241.463
 30
0.0
 40
0
 41
0
  0
VERTEX
  8
0
 10
173.768
 20
241.021
 30
0.0
 40
0
 41
0
  0
VERTEX
  8
0
 10
173.447
 20
240.597
 30
0.0
 40
0
 41
0
  0
VERTEX
  8
0
 10
173.108
 20
240.192
 30
0.0
 40
0
 41
0
  0
VERTEX
  8
0
 10
172.75
 20
239.803
 30
0.0
 40
0
 41
0
  0
VERTEX
  8
0
 10
172.372
 20
239.433
 30
0.0
 40
0
 41
0
  0
VERTEX
  8
0
 10
171.979
 20
239.082
 30
0.0
 40
0
 41
0
  0
VERTEX
  8
0
 10
171.569
 20
238.751
 30
0.0
 40
0
 41
0
  0
VERTEX
  8
0
 10
171.143
 20
238.44
 30
0.0
 40
0
 41
0
  0
VERTEX
  8
0
 10
170.703
 20
238.151
 30
0.0
 40
0
 41
0
  0
VERTEX
  8
0
 10
170.249
 20
237.883
 30
0.0
 40
0
 41
0
  0
VERTEX
  8
0
 10
169.781
 20
237.638
 30
0.0
 40
0
 41
0
  0
VERTEX
  8
0
 10
169.3
 20
237.414
 30
0.0
 40
0
 41
0
  0
VERTEX
  8
0
 10
168.807
 20
237.215
 30
0.0
 40
0
 41
0
  0
VERTEX
  8
0
 10
168.304
 20
237.039
 30
0.0
 40
0
 41
0
  0
VERTEX
  8
0
 10
167.919
 20
236.922
 30
0.0
 40
0
 41
0
  0
VERTEX
  8
0
 10
167.79
 20
236.888
 30
0.0
 40
0
 41
0
  0
VERTEX
  8
0
 10
167.661
 20
236.853
 30
0.0
 40
0
 41
0
  0
VERTEX
  8
0
 10
167.269
 20
236.761
 30
0.0
 40
0
 41
0
  0
VERTEX
  8
0
 10
166.744
 20
236.662
 30
0.0
 40
0
 41
0
  0
VERTEX
  8
0
 10
166.218
 20
236.589
 30
0.0
 40
0
 41
0
  0
VERTEX
  8
0
 10
165.69
 20
236.542
 30
0.0
 40
0
 41
0
  0
VERTEX
  8
0
 10
165.163
 20
236.521
 30
0.0
 40
0
 41
0
  0
VERTEX
  8
0
 10
164.635
 20
236.525
 30
0.0
 40
0
 41
0
  0
VERTEX
  8
0
 10
164.108
 20
236.556
 30
0.0
 40
0
 41
0
  0
VERTEX
  8
0
 10
163.585
 20
236.612
 30
0.0
 40
0
 41
0
  0
VERTEX
  8
0
 10
163.064
 20
236.693
 30
0.0
 40
0
 41
0
  0
VERTEX
  8
0
 10
162.549
 20
236.8
 30
0.0
 40
0
 41
0
  0
VERTEX
  8
0
 10
162.038
 20
236.932
 30
0.0
 40
0
 41
0
  0
VERTEX
  8
0
 10
161.532
 20
237.089
 30
0.0
 40
0
 41
0
  0
VERTEX
  8
0
 10
161.035
 20
237.271
 30
0.0
 40
0
 41
0
  0
VERTEX
  8
0
 10
160.546
 20
237.478
 30
0.0
 40
0
 41
0
  0
VERTEX
  8
0
 10
160.065
 20
237.71
 30
0.0
 40
0
 41
0
  0
VERTEX
  8
0
 10
159.711
 20
237.9
 30
0.0
 40
0
 41
0
  0
VERTEX
  8
0
 10
159.594
 20
237.967
 30
0.0
 40
0
 41
0
  0
VERTEX
  8
0
 10
159.479
 20
238.033
 30
0.0
 40
0
 41
0
  0
VERTEX
  8
0
 10
159.138
 20
238.246
 30
0.0
 40
0
 41
0
  0
VERTEX
  8
0
 10
158.697
 20
238.546
 30
0.0
 40
0
 41
0
  0
VERTEX
  8
0
 10
158.272
 20
238.867
 30
0.0
 40
0
 41
0
  0
VERTEX
  8
0
 10
157.867
 20
239.206
 30
0.0
 40
0
 41
0
  0
VERTEX
  8
0
 10
157.478
 20
239.565
 30
0.0
 40
0
 41
0
  0
VERTEX
  8
0
 10
157.108
 20
239.942
 30
0.0
 40
0
 41
0
  0
VERTEX
  8
0
 10
156.757
 20
240.335
 30
0.0
 40
0
 41
0
  0
VERTEX
  8
0
 10
156.426
 20
240.744
 30
0.0
 40
0
 41
0
  0
VERTEX
  8
0
 10
156.115
 20
241.171
 30
0.0
 40
0
 41
0
  0
VERTEX
  8
0
 10
155.826
 20
241.611
 30
0.0
 40
0
 41
0
  0
VERTEX
  8
0
 10
155.558
 20
242.065
 30
0.0
 40
0
 41
0
  0
VERTEX
  8
0
 10
155.313
 20
242.533
 30
0.0
 40
0
 41
0
  0
VERTEX
  8
0
 10
155.09
 20
243.014
 30
0.0
 40
0
 41
0
  0
VERTEX
  8
0
 10
154.89
 20
243.507
 30
0.0
 40
0
 41
0
  0
VERTEX
  8
0
 10
154.714
 20
244.01
 30
0.0
 40
0
 41
0
  0
VERTEX
  8
0
 10
154.597
 20
244.394
 30
0.0
 40
0
 41
0
  0
VERTEX
  8
0
 10
154.563
 20
244.524
 30
0.0
 40
0
 41
0
  0
VERTEX
  8
0
 10
154.528
 20
244.654
 30
0.0
 40
0
 41
0
  0
VERTEX
  8
0
 10
154.436
 20
245.044
 30
0.0
 40
0
 41
0
  0
VERTEX
  8
0
 10
154.337
 20
245.569
 30
0.0
 40
0
 41
0
  0
VERTEX
  8
0
 10
154.264
 20
246.096
 30
0.0
 40
0
 41
0
  0
VERTEX
  8
0
 10
154.217
 20
246.624
 30
0.0
 40
0
 41
0
  0
VERTEX
  8
0
 10
154.196
 20
247.151
 30
0.0
 40
0
 41
0
  0
VERTEX
  8
0
 10
154.2
 20
247.679
 30
0.0
 40
0
 41
0
  0
VERTEX
  8
0
 10
154.231
 20
248.206
 30
0.0
 40
0
 41
0
  0
VERTEX
  8
0
 10
154.288
 20
248.729
 30
0.0
 40
0
 41
0
  0
VERTEX
  8
0
 10
154.368
 20
249.25
 30
0.0
 40
0
 41
0
  0
VERTEX
  8
0
 10
154.475
 20
249.765
 30
0.0
 40
0
 41
0
  0
VERTEX
  8
0
 10
154.607
 20
250.276
 30
0.0
 40
0
 41
0
  0
VERTEX
  8
0
 10
154.764
 20
250.782
 30
0.0
 40
0
 41
0
  0
VERTEX
  8
0
 10
154.947
 20
251.279
 30
0.0
 40
0
 41
0
  0
VERTEX
  8
0
 10
155.154
 20
251.768
 30
0.0
 40
0
 41
0
  0
VERTEX
  8
0
 10
155.385
 20
252.249
 30
0.0
 40
0
 41
0
  0
VERTEX
  8
0
 10
155.575
 20
252.604
 30
0.0
 40
0
 41
0
  0
VERTEX
  8
0
 10
155.642
 20
252.719
 30
0.0
 40
0
 41
0
  0
SEQEND
 8
0
  0
POLYLINE
  8
0
 62
     0
 66
     1
 10
0
 20
0
 30
0.0
 70
     1
 40
0
 41
0
  0
VERTEX
  8
0
 10
84.2251
 20
187.375
 30
0.0
 40
0
 41
0
  0
VERTEX
  8
0
 10
84.2657
 20
187.446
 30
0.0
 40
0
 41
0
  0
VERTEX
  8
0
 10
84.3944
 20
187.653
 30
0.0
 40
0
 41
0
  0
VERTEX
  8
0
 10
84.5767
 20
187.919
 30
0.0
 40
0
 41
0
  0
VERTEX
  8
0
 10
84.7711
 20
188.176
 30
0.0
 40
0
 41
0
  0
VERTEX
  8
0
 10
84.9772
 20
188.424
 30
0.0
 40
0
 41
0
  0
VERTEX
  8
0
 10
85.1947
 20
188.66
 30
0.0
 40
0
 41
0
  0
VERTEX
  8
0
 10
85.4231
 20
188.883
 30
0.0
 40
0
 41
0
  0
VERTEX
  8
0
 10
85.6619
 20
189.096
 30
0.0
 40
0
 41
0
  0
VERTEX
  8
0
 10
85.9107
 20
189.297
 30
0.0
 40
0
 41
0
  0
VERTEX
  8
0
 10
86.1689
 20
189.485
 30
0.0
 40
0
 41
0
  0
VERTEX
  8
0
 10
86.4363
 20
189.661
 30
0.0
 40
0
 41
0
  0
VERTEX
  8
0
 10
86.7121
 20
189.824
 30
0.0
 40
0
 41
0
  0
VERTEX
  8
0
 10
86.996
 20
189.972
 30
0.0
 40
0
 41
0
  0
VERTEX
  8
0
 10
87.2875
 20
190.108
 30
0.0
 40
0
 41
0
  0
VERTEX
  8
0
 10
87.5863
 20
190.229
 30
0.0
 40
0
 41
0
  0
VERTEX
  8
0
 10
87.8918
 20
190.336
 30
0.0
 40
0
 41
0
  0
VERTEX
  8
0
 10
88.125
 20
190.407
 30
0.0
 40
0
 41
0
  0
VERTEX
  8
0
 10
88.2036
 20
190.428
 30
0.0
 40
0
 41
0
  0
VERTEX
  8
0
 10
88.3599
 20
190.469
 30
0.0
 40
0
 41
0
  0
VERTEX
  8
0
 10
88.8374
 20
190.564
 30
0.0
 40
0
 41
0
  0
VERTEX
  8
0
 10
89.4768
 20
190.638
 30
0.0
 40
0
 41
0
  0
VERTEX
  8
0
 10
90.1174
 20
190.647
 30
0.0
 40
0
 41
0
  0
VERTEX
  8
0
 10
90.7544
 20
190.594
 30
0.0
 40
0
 41
0
  0
VERTEX
  8
0
 10
91.3835
 20
190.481
 30
0.0
 40
0
 41
0
  0
VERTEX
  8
0
 10
91.9996
 20
190.306
 30
0.0
 40
0
 41
0
  0
VERTEX
  8
0
 10
92.5985
 20
190.069
 30
0.0
 40
0
 41
0
  0
VERTEX
  8
0
 10
93.035
 20
189.854
 30
0.0
 40
0
 41
0
  0
VERTEX
  8
0
 10
93.1753
 20
189.774
 30
0.0
 40
0
 41
0
  0
VERTEX
  8
0
 10
93.2456
 20
189.732
 30
0.0
 40
0
 41
0
  0
VERTEX
  8
0
 10
93.4526
 20
189.604
 30
0.0
 40
0
 41
0
  0
VERTEX
  8
0
 10
93.72
 20
189.421
 30
0.0
 40
0
 41
0
  0
VERTEX
  8
0
 10
93.9772
 20
189.228
 30
0.0
 40
0
 41
0
  0
VERTEX
  8
0
 10
94.2239
 20
189.021
 30
0.0
 40
0
 41
0
  0
VERTEX
  8
0
 10
94.4596
 20
188.803
 30
0.0
 40
0
 41
0
  0
VERTEX
  8
0
 10
94.684
 20
188.575
 30
0.0
 40
0
 41
0
  0
VERTEX
  8
0
 10
94.8967
 20
188.336
 30
0.0
 40
0
 41
0
  0
VERTEX
  8
0
 10
95.0974
 20
188.087
 30
0.0
 40
0
 41
0
  0
VERTEX
  8
0
 10
95.2857
 20
187.829
 30
0.0
 40
0
 41
0
  0
VERTEX
  8
0
 10
95.4613
 20
187.563
 30
0.0
 40
0
 41
0
  0
VERTEX
  8
0
 10
95.6238
 20
187.286
 30
0.0
 40
0
 41
0
  0
VERTEX
  8
0
 10
95.7729
 20
187.003
 30
0.0
 40
0
 41
0
  0
VERTEX
  8
0
 10
95.9082
 20
186.711
 30
0.0
 40
0
 41
0
  0
VERTEX
  8
0
 10
96.0294
 20
186.413
 30
0.0
 40
0
 41
0
  0
VERTEX
  8
0
 10
96.1361
 20
186.107
 30
0.0
 40
0
 41
0
  0
VERTEX
  8
0
 10
96.2071
 20
185.874
 30
0.0
 40
0
 41
0
  0
VERTEX
  8
0
 10
96.2281
 20
185.794
 30
0.0
 40
0
 41
0
  0
VERTEX
  8
0
 10
96.27
 20
185.639
 30
0.0
 40
0
 41
0
  0
VERTEX
  8
0
 10
96.3647
 20
185.161
 30
0.0
 40
0
 41
0
  0
VERTEX
  8
0
 10
96.4376
 20
184.521
 30
0.0
 40
0
 41
0
  0
VERTEX
  8
0
 10
96.4476
 20
183.881
 30
0.0
 40
0
 41
0
  0
VERTEX
  8
0
 10
96.3953
 20
183.243
 30
0.0
 40
0
 41
0
  0
VERTEX
  8
0
 10
96.281
 20
182.615
 30
0.0
 40
0
 41
0
  0
VERTEX
  8
0
 10
96.1056
 20
181.999
 30
0.0
 40
0
 41
0
  0
VERTEX
  8
0
 10
95.8696
 20
181.4
 30
0.0
 40
0
 41
0
  0
VERTEX
  8
0
 10
95.6544
 20
180.962
 30
0.0
 40
0
 41
0
  0
VERTEX
  8
0
 10
95.5735
 20
180.822
 30
0.0
 40
0
 41
0
  0
VERTEX
  8
0
 10
95.5329
 20
180.753
 30
0.0
 40
0
 41
0
  0
VERTEX
  8
0
 10
95.404
 20
180.546
 30
0.0
 40
0
 41
0
  0
VERTEX
  8
0
 10
95.2219
 20
180.278
 30
0.0
 40
0
 41
0
  0
VERTEX
  8
0
 10
95.0275
 20
180.021
 30
0.0
 40
0
 41
0
  0
VERTEX
  8
0
 10
94.8214
 20
179.774
 30
0.0
 40
0
 41
0
  0
VERTEX
  8
0
 10
94.6039
 20
179.539
 30
0.0
 40
0
 41
0
  0
VERTEX
  8
0
 10
94.3754
 20
179.314
 30
0.0
 40
0
 41
0
  0
VERTEX
  8
0
 10
94.1367
 20
179.101
 30
0.0
 40
0
 41
0
  0
VERTEX
  8
0
 10
93.8879
 20
178.901
 30
0.0
 40
0
 41
0
  0
VERTEX
  8
0
 10
93.6297
 20
178.712
 30
0.0
 40
0
 41
0
  0
VERTEX
  8
0
 10
93.3624
 20
178.538
 30
0.0
 40
0
 41
0
  0
VERTEX
  8
0
 10
93.0865
 20
178.375
 30
0.0
 40
0
 41
0
  0
VERTEX
  8
0
 10
92.8026
 20
178.225
 30
0.0
 40
0
 41
0
  0
VERTEX
  8
0
 10
92.5111
 20
178.09
 30
0.0
 40
0
 41
0
  0
VERTEX
  8
0
 10
92.2124
 20
177.968
 30
0.0
 40
0
 41
0
  0
VERTEX
  8
0
 10
91.9068
 20
177.862
 30
0.0
 40
0
 41
0
  0
VERTEX
  8
0
 10
91.6736
 20
177.792
 30
0.0
 40
0
 41
0
  0
VERTEX
  8
0
 10
91.5951
 20
177.769
 30
0.0
 40
0
 41
0
  0
VERTEX
  8
0
 10
91.4387
 20
177.728
 30
0.0
 40
0
 41
0
  0
VERTEX
  8
0
 10
90.9613
 20
177.633
 30
0.0
 40
0
 41
0
  0
VERTEX
  8
0
 10
90.3217
 20
177.561
 30
0.0
 40
0
 41
0
  0
VERTEX
  8
0
 10
89.6811
 20
177.55
 30
0.0
 40
0
 41
0
  0
VERTEX
  8
0
 10
89.0442
 20
177.603
 30
0.0
 40
0
 41
0
  0
VERTEX
  8
0
 10
88.4151
 20
177.717
 30
0.0
 40
0
 41
0
  0
VERTEX
  8
0
 10
87.799
 20
177.893
 30
0.0
 40
0
 41
0
  0
VERTEX
  8
0
 10
87.2001
 20
178.129
 30
0.0
 40
0
 41
0
  0
VERTEX
  8
0
 10
86.7635
 20
178.344
 30
0.0
 40
0
 41
0
  0
VERTEX
  8
0
 10
86.6233
 20
178.425
 30
0.0
 40
0
 41
0
  0
VERTEX
  8
0
 10
86.5529
 20
178.465
 30
0.0
 40
0
 41
0
  0
VERTEX
  8
0
 10
86.346
 20
178.594
 30
0.0
 40
0
 41
0
  0
VERTEX
  8
0
 10
86.0785
 20
178.776
 30
0.0
 40
0
 41
0
  0
VERTEX
  8
0
 10
85.8212
 20
178.971
 30
0.0
 40
0
 41
0
  0
VERTEX
  8
0
 10
85.5747
 20
179.176
 30
0.0
 40
0
 41
0
  0
VERTEX
  8
0
 10
85.339
 20
179.394
 30
0.0
 40
0
 41
0
  0
VERTEX
  8
0
 10
85.1146
 20
179.622
 30
0.0
 40
0
 41
0
  0
VERTEX
  8
0
 10
84.9019
 20
179.861
 30
0.0
 40
0
 41
0
  0
VERTEX
  8
0
 10
84.7013
 20
180.11
 30
0.0
 40
0
 41
0
  0
VERTEX
  8
0
 10
84.5129
 20
180.368
 30
0.0
 40
0
 41
0
  0
VERTEX
  8
0
 10
84.3374
 20
180.636
 30
0.0
 40
0
 41
0
  0
VERTEX
  8
0
 10
84.1747
 20
180.911
 30
0.0
 40
0
 41
0
  0
VERTEX
  8
0
 10
84.0257
 20
181.196
 30
0.0
 40
0
 41
0
  0
VERTEX
  8
0
 10
83.8904
 20
181.487
 30
0.0
 40
0
 41
0
  0
VERTEX
  8
0
 10
83.7692
 20
181.786
 30
0.0
 40
0
 41
0
  0
VERTEX
  8
0
 10
83.6625
 20
182.092
 30
0.0
 40
0
 41
0
  0
VERTEX
  8
0
 10
83.5915
 20
182.325
 30
0.0
 40
0
 41
0
  0
VERTEX
  8
0
 10
83.5706
 20
182.403
 30
0.0
 40
0
 41
0
  0
VERTEX
  8
0
 10
83.5286
 20
182.56
 30
0.0
 40
0
 41
0
  0
VERTEX
  8
0
 10
83.4339
 20
183.038
 30
0.0
 40
0
 41
0
  0
VERTEX
  8
0
 10
83.3608
 20
183.676
 30
0.0
 40
0
 41
0
  0
VERTEX
  8
0
 10
83.351
 20
184.317
 30
0.0
 40
0
 41
0
  0
VERTEX
  8
0
 10
83.4033
 20
184.954
 30
0.0
 40
0
 41
0
  0
VERTEX
  8
0
 10
83.5176
 20
185.583
 30
0.0
 40
0
 41
0
  0
VERTEX
  8
0
 10
83.6931
 20
186.199
 30
0.0
 40
0
 41
0
  0
VERTEX
  8
0
 10
83.929
 20
186.799
 30
0.0
 40
0
 41
0
  0
VERTEX
  8
0
 10
84.1442
 20
187.235
 30
0.0
 40
0
 41
0
  0
VERTEX
  8
0
 10
84.2251
 20
187.375
 30
0.0
 40
0
 41
0
  0
SEQEND
 8
0
  0
POLYLINE
  8
0
 62
     0
 66
     1
 10
0
 20
0
 30
0.0
 70
     1
 40
0
 41
0
  0
VERTEX
  8
0
 10
380.928
 20
234.603
 30
0.0
 40
0
 41
0
  0
VERTEX
  8
0
 10
380.612
 20
234.786
 30
0.0
 40
0
 41
0
  0
VERTEX
  8
0
 10
379.643
 20
235.3
 30
0.0
 40
0
 41
0
  0
VERTEX
  8
0
 10
378.328
 20
235.924
 30
0.0
 40
0
 41
0
  0
VERTEX
  8
0
 10
376.987
 20
236.472
 30
0.0
 40
0
 41
0
  0
VERTEX
  8
0
 10
375.624
 20
236.947
 30
0.0
 40
0
 41
0
  0
VERTEX
  8
0
 10
374.24
 20
237.347
 30
0.0
 40
0
 41
0
  0
VERTEX
  8
0
 10
372.842
 20
237.672
 30
0.0
 40
0
 41
0
  0
VERTEX
  8
0
 10
371.428
 20
237.922
 30
0.0
 40
0
 41
0
  0
VERTEX
  8
0
 10
370.004
 20
238.097
 30
0.0
 40
0
 41
0
  0
VERTEX
  8
0
 10
368.574
 20
238.196
 30
0.0
 40
0
 41
0
  0
VERTEX
  8
0
 10
367.139
 20
238.219
 30
0.0
 40
0
 41
0
  0
VERTEX
  8
0
 10
365.704
 20
238.165
 30
0.0
 40
0
 41
0
  0
VERTEX
  8
0
 10
364.269
 20
238.035
 30
0.0
 40
0
 41
0
  0
VERTEX
  8
0
 10
362.842
 20
237.828
 30
0.0
 40
0
 41
0
  0
VERTEX
  8
0
 10
361.421
 20
237.543
 30
0.0
 40
0
 41
0
  0
VERTEX
  8
0
 10
360.011
 20
237.182
 30
0.0
 40
0
 41
0
  0
VERTEX
  8
0
 10
358.961
 20
236.861
 30
0.0
 40
0
 41
0
  0
VERTEX
  8
0
 10
358.617
 20
236.742
 30
0.0
 40
0
 41
0
  0
VERTEX
  8
0
 10
175.521
 20
173.521
 30
0.0
 40
0
 41
0
  0
VERTEX
  8
0
 10
175.331
 20
173.456
 30
0.0
 40
0
 41
0
  0
VERTEX
  8
0
 10
174.765
 20
173.247
 30
0.0
 40
0
 41
0
  0
VERTEX
  8
0
 10
174.021
 20
172.953
 30
0.0
 40
0
 41
0
  0
VERTEX
  8
0
 10
173.288
 20
172.638
 30
0.0
 40
0
 41
0
  0
VERTEX
  8
0
 10
172.567
 20
172.301
 30
0.0
 40
0
 41
0
  0
VERTEX
  8
0
 10
171.857
 20
171.944
 30
0.0
 40
0
 41
0
  0
VERTEX
  8
0
 10
171.161
 20
171.569
 30
0.0
 40
0
 41
0
  0
VERTEX
  8
0
 10
170.476
 20
171.174
 30
0.0
 40
0
 41
0
  0
VERTEX
  8
0
 10
169.806
 20
170.758
 30
0.0
 40
0
 41
0
  0
VERTEX
  8
0
 10
169.149
 20
170.325
 30
0.0
 40
0
 41
0
  0
VERTEX
  8
0
 10
168.504
 20
169.874
 30
0.0
 40
0
 41
0
  0
VERTEX
  8
0
 10
167.875
 20
169.404
 30
0.0
 40
0
 41
0
  0
VERTEX
  8
0
 10
167.26
 20
168.917
 30
0.0
 40
0
 41
0
  0
VERTEX
  8
0
 10
166.66
 20
168.413
 30
0.0
 40
0
 41
0
  0
VERTEX
  8
0
 10
166.075
 20
167.89
 30
0.0
 40
0
 41
0
  0
VERTEX
  8
0
 10
165.506
 20
167.353
 30
0.0
 40
0
 41
0
  0
VERTEX
  8
0
 10
164.953
 20
166.799
 30
0.0
 40
0
 41
0
  0
VERTEX
  8
0
 10
164.415
 20
166.228
 30
0.0
 40
0
 41
0
  0
VERTEX
  8
0
 10
163.894
 20
165.643
 30
0.0
 40
0
 41
0
  0
VERTEX
  8
0
 10
163.392
 20
165.042
 30
0.0
 40
0
 41
0
  0
VERTEX
  8
0
 10
162.906
 20
164.426
 30
0.0
 40
0
 41
0
  0
VERTEX
  8
0
 10
162.436
 20
163.797
 30
0.0
 40
0
 41
0
  0
VERTEX
  8
0
 10
161.986
 20
163.154
 30
0.0
 40
0
 41
0
  0
VERTEX
  8
0
 10
161.554
 20
162.497
 30
0.0
 40
0
 41
0
  0
VERTEX
  8
0
 10
161.142
 20
161.826
 30
0.0
 40
0
 41
0
  0
VERTEX
  8
0
 10
160.747
 20
161.143
 30
0.0
 40
0
 41
0
  0
VERTEX
  8
0
 10
160.374
 20
160.447
 30
0.0
 40
0
 41
0
  0
VERTEX
  8
0
 10
160.018
 20
159.739
 30
0.0
 40
0
 41
0
  0
VERTEX
  8
0
 10
159.683
 20
159.019
 30
0.0
 40
0
 41
0
  0
VERTEX
  8
0
 10
159.369
 20
158.288
 30
0.0
 40
0
 41
0
  0
VERTEX
  8
0
 10
159.076
 20
157.546
 30
0.0
 40
0
 41
0
  0
VERTEX
  8
0
 10
158.806
 20
156.793
 30
0.0
 40
0
 41
0
  0
VERTEX
  8
0
 10
158.614
 20
156.221
 30
0.0
 40
0
 41
0
  0
VERTEX
  8
0
 10
158.554
 20
156.029
 30
0.0
 40
0
 41
0
  0
VERTEX
  8
0
 10
158.494
 20
155.837
 30
0.0
 40
0
 41
0
  0
VERTEX
  8
0
 10
158.328
 20
155.258
 30
0.0
 40
0
 41
0
  0
VERTEX
  8
0
 10
158.124
 20
154.485
 30
0.0
 40
0
 41
0
  0
VERTEX
  8
0
 10
157.943
 20
153.707
 30
0.0
 40
0
 41
0
  0
VERTEX
  8
0
 10
157.786
 20
152.926
 30
0.0
 40
0
 41
0
  0
VERTEX
  8
0
 10
157.653
 20
152.144
 30
0.0
 40
0
 41
0
  0
VERTEX
  8
0
 10
157.543
 20
151.36
 30
0.0
 40
0
 41
0
  0
VERTEX
  8
0
 10
157.456
 20
150.575
 30
0.0
 40
0
 41
0
  0
VERTEX
  8
0
 10
157.392
 20
149.789
 30
0.0
 40
0
 41
0
  0
VERTEX
  8
0
 10
157.351
 20
149.003
 30
0.0
 40
0
 41
0
  0
VERTEX
  8
0
 10
157.333
 20
148.217
 30
0.0
 40
0
 41
0
  0
VERTEX
  8
0
 10
157.339
 20
147.431
 30
0.0
 40
0
 41
0
  0
VERTEX
  8
0
 10
157.367
 20
146.646
 30
0.0
 40
0
 41
0
  0
VERTEX
  8
0
 10
157.418
 20
145.864
 30
0.0
 40
0
 41
0
  0
VERTEX
  8
0
 10
157.492
 20
145.083
 30
0.0
 40
0
 41
0
  0
VERTEX
  8
0
 10
157.587
 20
144.307
 30
0.0
 40
0
 41
0
  0
VERTEX
  8
0
 10
157.706
 20
143.532
 30
0.0
 40
0
 41
0
  0
VERTEX
  8
0
 10
157.846
 20
142.761
 30
0.0
 40
0
 41
0
  0
VERTEX
  8
0
 10
158.01
 20
141.996
 30
0.0
 40
0
 41
0
  0
VERTEX
  8
0
 10
158.194
 20
141.235
 30
0.0
 40
0
 41
0
  0
VERTEX
  8
0
 10
158.401
 20
140.478
 30
0.0
 40
0
 41
0
  0
VERTEX
  8
0
 10
158.632
 20
139.728
 30
0.0
 40
0
 41
0
  0
VERTEX
  8
0
 10
158.883
 20
138.983
 30
0.0
 40
0
 41
0
  0
VERTEX
  8
0
 10
159.156
 20
138.246
 30
0.0
 40
0
 41
0
  0
VERTEX
  8
0
 10
159.451
 20
137.516
 30
0.0
 40
0
 41
0
  0
VERTEX
  8
0
 10
159.768
 20
136.794
 30
0.0
 40
0
 41
0
  0
VERTEX
  8
0
 10
160.107
 20
136.08
 30
0.0
 40
0
 41
0
  0
VERTEX
  8
0
 10
160.467
 20
135.374
 30
0.0
 40
0
 41
0
  0
VERTEX
  8
0
 10
160.849
 20
134.678
 30
0.0
 40
0
 41
0
  0
VERTEX
  8
0
 10
161.251
 20
133.992
 30
0.0
 40
0
 41
0
  0
VERTEX
  8
0
 10
161.675
 20
133.316
 30
0.0
 40
0
 41
0
  0
VERTEX
  8
0
 10
162.121
 20
132.651
 30
0.0
 40
0
 41
0
  0
VERTEX
  8
0
 10
162.468
 20
132.158
 30
0.0
 40
0
 41
0
  0
VERTEX
  8
0
 10
162.587
 20
131.997
 30
0.0
 40
0
 41
0
  0
VERTEX
  8
0
 10
162.706
 20
131.835
 30
0.0
 40
0
 41
0
  0
VERTEX
  8
0
 10
163.072
 20
131.357
 30
0.0
 40
0
 41
0
  0
VERTEX
  8
0
 10
163.575
 20
130.734
 30
0.0
 40
0
 41
0
  0
VERTEX
  8
0
 10
164.094
 20
130.128
 30
0.0
 40
0
 41
0
  0
VERTEX
  8
0
 10
164.631
 20
129.539
 30
0.0
 40
0
 41
0
  0
VERTEX
  8
0
 10
165.182
 20
128.968
 30
0.0
 40
0
 41
0
  0
VERTEX
  8
0
 10
165.747
 20
128.414
 30
0.0
 40
0
 41
0
  0
VERTEX
  8
0
 10
166.329
 20
127.879
 30
0.0
 40
0
 41
0
  0
VERTEX
  8
0
 10
166.924
 20
127.361
 30
0.0
 40
0
 41
0
  0
VERTEX
  8
0
 10
167.533
 20
126.862
 30
0.0
 40
0
 41
0
  0
VERTEX
  8
0
 10
168.156
 20
126.382
 30
0.0
 40
0
 41
0
  0
VERTEX
  8
0
 10
168.792
 20
125.921
 30
0.0
 40
0
 41
0
  0
VERTEX
  8
0
 10
169.44
 20
125.479
 30
0.0
 40
0
 41
0
  0
VERTEX
  8
0
 10
170.1
 20
125.056
 30
0.0
 40
0
 41
0
  0
VERTEX
  8
0
 10
170.772
 20
124.653
 30
0.0
 40
0
 41
0
  0
VERTEX
  8
0
 10
171.456
 20
124.269
 30
0.0
 40
0
 41
0
  0
VERTEX
  8
0
 10
172.149
 20
123.905
 30
0.0
 40
0
 41
0
  0
VERTEX
  8
0
 10
172.853
 20
123.562
 30
0.0
 40
0
 41
0
  0
VERTEX
  8
0
 10
173.567
 20
123.239
 30
0.0
 40
0
 41
0
  0
VERTEX
  8
0
 10
174.289
 20
122.937
 30
0.0
 40
0
 41
0
  0
VERTEX
  8
0
 10
175.022
 20
122.656
 30
0.0
 40
0
 41
0
  0
VERTEX
  8
0
 10
175.763
 20
122.396
 30
0.0
 40
0
 41
0
  0
VERTEX
  8
0
 10
176.51
 20
122.158
 30
0.0
 40
0
 41
0
  0
VERTEX
  8
0
 10
177.267
 20
121.941
 30
0.0
 40
0
 41
0
  0
VERTEX
  8
0
 10
178.029
 20
121.746
 30
0.0
 40
0
 41
0
  0
VERTEX
  8
0
 10
178.799
 20
121.573
 30
0.0
 40
0
 41
0
  0
VERTEX
  8
0
 10
179.575
 20
121.422
 30
0.0
 40
0
 41
0
  0
VERTEX
  8
0
 10
180.356
 20
121.294
 30
0.0
 40
0
 41
0
  0
VERTEX
  8
0
 10
181.143
 20
121.189
 30
0.0
 40
0
 41
0
  0
VERTEX
  8
0
 10
181.935
 20
121.107
 30
0.0
 40
0
 41
0
  0
VERTEX
  8
0
 10
182.731
 20
121.047
 30
0.0
 40
0
 41
0
  0
VERTEX
  8
0
 10
183.531
 20
121.012
 30
0.0
 40
0
 41
0
  0
VERTEX
  8
0
 10
184.132
 20
121
 30
0.0
 40
0
 41
0
  0
VERTEX
  8
0
 10
184.333
 20
121
 30
0.0
 40
0
 41
0
  0
VERTEX
  8
0
 10
292.333
 20
121
 30
0.0
 40
0
 41
0
  0
VERTEX
  8
0
 10
292.662
 20
121
 30
0.0
 40
0
 41
0
  0
VERTEX
  8
0
 10
293.653
 20
121.032
 30
0.0
 40
0
 41
0
  0
VERTEX
  8
0
 10
294.968
 20
121.129
 30
0.0
 40
0
 41
0
  0
VERTEX
  8
0
 10
296.278
 20
121.29
 30
0.0
 40
0
 41
0
  0
VERTEX
  8
0
 10
297.254
 20
121.45
 30
0.0
 40
0
 41
0
  0
VERTEX
  8
0
 10
297.578
 20
121.514
 30
0.0
 40
0
 41
0
  0
VERTEX
  8
0
 10
435.028
 20
148.735
 30
0.0
 40
0
 41
0
  0
VERTEX
  8
0
 10
435.197
 20
148.768
 30
0.0
 40
0
 41
0
  0
VERTEX
  8
0
 10
435.703
 20
148.878
 30
0.0
 40
0
 41
0
  0
VERTEX
  8
0
 10
436.372
 20
149.038
 30
0.0
 40
0
 41
0
  0
VERTEX
  8
0
 10
437.035
 20
149.212
 30
0.0
 40
0
 41
0
  0
VERTEX
  8
0
 10
437.693
 20
149.406
 30
0.0
 40
0
 41
0
  0
VERTEX
  8
0
 10
438.344
 20
149.614
 30
0.0
 40
0
 41
0
  0
VERTEX
  8
0
 10
438.989
 20
149.839
 30
0.0
 40
0
 41
0
  0
VERTEX
  8
0
 10
439.626
 20
150.079
 30
0.0
 40
0
 41
0
  0
VERTEX
  8
0
 10
440.257
 20
150.335
 30
0.0
 40
0
 41
0
  0
VERTEX
  8
0
 10
440.879
 20
150.607
 30
0.0
 40
0
 41
0
  0
VERTEX
  8
0
 10
441.494
 20
150.893
 30
0.0
 40
0
 41
0
  0
VERTEX
  8
0
 10
442.103
 20
151.196
 30
0.0
 40
0
 41
0
  0
VERTEX
  8
0
 10
442.701
 20
151.513
 30
0.0
 40
0
 41
0
  0
VERTEX
  8
0
 10
443.293
 20
151.843
 30
0.0
 40
0
 41
0
  0
VERTEX
  8
0
 10
443.875
 20
152.19
 30
0.0
 40
0
 41
0
  0
VERTEX
  8
0
 10
444.447
 20
152.55
 30
0.0
 40
0
 41
0
  0
VERTEX
  8
0
 10
445.011
 20
152.925
 30
0.0
 40
0
 41
0
  0
VERTEX
  8
0
 10
445.565
 20
153.314
 30
0.0
 40
0
 41
0
  0
VERTEX
  8
0
 10
446.11
 20
153.717
 30
0.0
 40
0
 41
0
  0
VERTEX
  8
0
 10
446.643
 20
154.132
 30
0.0
 40
0
 41
0
  0
VERTEX
  8
0
 10
447.167
 20
154.563
 30
0.0
 40
0
 41
0
  0
VERTEX
  8
0
 10
447.681
 20
155.006
 30
0.0
 40
0
 41
0
  0
VERTEX
  8
0
 10
448.183
 20
155.461
 30
0.0
 40
0
 41
0
  0
VERTEX
  8
0
 10
448.674
 20
155.931
 30
0.0
 40
0
 41
0
  0
VERTEX
  8
0
 10
449.153
 20
156.411
 30
0.0
 40
0
 41
0
  0
VERTEX
  8
0
 10
449.621
 20
156.906
 30
0.0
 40
0
 41
0
  0
VERTEX
  8
0
 10
450.078
 20
157.413
 30
0.0
 40
0
 41
0
  0
VERTEX
  8
0
 10
450.521
 20
157.931
 30
0.0
 40
0
 41
0
  0
VERTEX
  8
0
 10
450.951
 20
158.461
 30
0.0
 40
0
 41
0
  0
VERTEX
  8
0
 10
451.371
 20
159.004
 30
0.0
 40
0
 41
0
  0
VERTEX
  8
0
 10
451.775
 20
159.558
 30
0.0
 40
0
 41
0
  0
VERTEX
  8
0
 10
452.168
 20
160.124
 30
0.0
 40
0
 41
0
  0
VERTEX
  8
0
 10
452.453
 20
160.556
 30
0.0
 40
0
 41
0
  0
VERTEX
  8
0
 10
452.546
 20
160.7
 30
0.0
 40
0
 41
0
  0
VERTEX
  8
0
 10
452.731
 20
160.99
 30
0.0
 40
0
 41
0
  0
VERTEX
  8
0
 10
453.257
 20
161.881
 30
0.0
 40
0
 41
0
  0
VERTEX
  8
0
 10
453.904
 20
163.09
 30
0.0
 40
0
 41
0
  0
VERTEX
  8
0
 10
454.486
 20
164.325
 30
0.0
 40
0
 41
0
  0
VERTEX
  8
0
 10
455.004
 20
165.585
 30
0.0
 40
0
 41
0
  0
VERTEX
  8
0
 10
455.457
 20
166.865
 30
0.0
 40
0
 41
0
  0
VERTEX
  8
0
 10
455.844
 20
168.165
 30
0.0
 40
0
 41
0
  0
VERTEX
  8
0
 10
456.165
 20
169.482
 30
0.0
 40
0
 41
0
  0
VERTEX
  8
0
 10
456.419
 20
170.811
 30
0.0
 40
0
 41
0
  0
VERTEX
  8
0
 10
456.607
 20
172.151
 30
0.0
 40
0
 41
0
  0
VERTEX
  8
0
 10
456.728
 20
173.501
 30
0.0
 40
0
 41
0
  0
VERTEX
  8
0
 10
456.781
 20
174.856
 30
0.0
 40
0
 41
0
  0
VERTEX
  8
0
 10
456.764
 20
176.214
 30
0.0
 40
0
 41
0
  0
VERTEX
  8
0
 10
456.679
 20
177.574
 30
0.0
 40
0
 41
0
  0
VERTEX
  8
0
 10
456.526
 20
178.931
 30
0.0
 40
0
 41
0
  0
VERTEX
  8
0
 10
456.303
 20
180.285
 30
0.0
 40
0
 41
0
  0
VERTEX
  8
0
 10
456.092
 20
181.296
 30
0.0
 40
0
 41
0
  0
VERTEX
  8
0
 10
456.01
 20
181.631
 30
0.0
 40
0
 41
0
  0
VERTEX
  8
0
 10
455.969
 20
181.799
 30
0.0
 40
0
 41
0
  0
VERTEX
  8
0
 10
455.838
 20
182.299
 30
0.0
 40
0
 41
0
  0
VERTEX
  8
0
 10
455.649
 20
182.96
 30
0.0
 40
0
 41
0
  0
VERTEX
  8
0
 10
455.444
 20
183.615
 30
0.0
 40
0
 41
0
  0
VERTEX
  8
0
 10
455.222
 20
184.264
 30
0.0
 40
0
 41
0
  0
VERTEX
  8
0
 10
454.986
 20
184.906
 30
0.0
 40
0
 41
0
  0
VERTEX
  8
0
 10
454.733
 20
185.539
 30
0.0
 40
0
 41
0
  0
VERTEX
  8
0
 10
454.464
 20
186.165
 30
0.0
 40
0
 41
0
  0
VERTEX
  8
0
 10
454.181
 20
186.783
 30
0.0
 40
0
 41
0
  0
VERTEX
  8
0
 10
453.882
 20
187.394
 30
0.0
 40
0
 41
0
  0
VERTEX
  8
0
 10
453.568
 20
187.997
 30
0.0
 40
0
 41
0
  0
VERTEX
  8
0
 10
453.24
 20
188.59
 30
0.0
 40
0
 41
0
  0
VERTEX
  8
0
 10
452.897
 20
189.175
 30
0.0
 40
0
 41
0
  0
VERTEX
  8
0
 10
452.539
 20
189.75
 30
0.0
 40
0
 41
0
  0
VERTEX
  8
0
 10
452.168
 20
190.317
 30
0.0
 40
0
 41
0
  0
VERTEX
  8
0
 10
451.782
 20
190.872
 30
0.0
 40
0
 41
0
  0
VERTEX
  8
0
 10
451.383
 20
191.419
 30
0.0
 40
0
 41
0
  0
VERTEX
  8
0
 10
450.971
 20
191.956
 30
0.0
 40
0
 41
0
  0
VERTEX
  8
0
 10
450.544
 20
192.482
 30
0.0
 40
0
 41
0
  0
VERTEX
  8
0
 10
450.104
 20
192.997
 30
0.0
 40
0
 41
0
  0
VERTEX
  8
0
 10
449.653
 20
193.501
 30
0.0
 40
0
 41
0
  0
VERTEX
  8
0
 10
449.188
 20
193.994
 30
0.0
 40
0
 41
0
  0
VERTEX
  8
0
 10
448.71
 20
194.476
 30
0.0
 40
0
 41
0
  0
VERTEX
  8
0
 10
448.219
 20
194.946
 30
0.0
 40
0
 41
0
  0
VERTEX
  8
0
 10
447.717
 20
195.404
 30
0.0
 40
0
 41
0
  0
VERTEX
  8
0
 10
447.203
 20
195.849
 30
0.0
 40
0
 41
0
  0
VERTEX
  8
0
 10
446.676
 20
196.282
 30
0.0
 40
0
 41
0
  0
VERTEX
  8
0
 10
446.139
 20
196.703
 30
0.0
 40
0
 41
0
  0
VERTEX
  8
0
 10
445.589
 20
197.11
 30
0.0
 40
0
 41
0
  0
VERTEX
  8
0
 10
445.029
 20
197.504
 30
0.0
 40
0
 41
0
  0
VERTEX
  8
0
 10
444.457
 20
197.885
 30
0.0
 40
0
 41
0
  0
VERTEX
  8
0
 10
443.875
 20
198.25
 30
0.0
 40
0
 41
0
  0
VERTEX
  8
0
 10
443.432
 20
198.517
 30
0.0
 40
0
 41
0
  0
VERTEX
  8
0
 10
443.282
 20
198.603
 30
0.0
 40
0
 41
0
  0
VERTEX
  8
0
 10
380.928
 20
234.603
 30
0.0
 40
0
 41
0
  0
SEQEND
 8
0
  0
POLYLINE
  8
0
 62
     0
 66
     1
 10
0
 20
0
 30
0.0
 70
     1
 40
0
 41
0
  0
VERTEX
  8
0
 10
190.069
 20
144.688
 30
0.0
 40
0
 41
0
  0
VERTEX
  8
0
 10
190.029
 20
144.617
 30
0.0
 40
0
 41
0
  0
VERTEX
  8
0
 10
189.899
 20
144.407
 30
0.0
 40
0
 41
0
  0
VERTEX
  8
0
 10
189.714
 20
144.138
 30
0.0
 40
0
 41
0
  0
VERTEX
  8
0
 10
189.518
 20
143.876
 30
0.0
 40
0
 41
0
  0
VERTEX
  8
0
 10
189.31
 20
143.628
 30
0.0
 40
0
 41
0
  0
VERTEX
  8
0
 10
189.089
 20
143.389
 30
0.0
 40
0
 41
0
  0
VERTEX
  8
0
 10
188.858
 20
143.163
 30
0.0
 40
0
 41
0
  0
VERTEX
  8
0
 10
188.617
 20
142.947
 30
0.0
 40
0
 41
0
  0
VERTEX
  8
0
 10
188.365
 20
142.744
 30
0.0
 40
0
 41
0
  0
VERTEX
  8
0
 10
188.104
 20
142.554
 30
0.0
 40
0
 41
0
  0
VERTEX
  8
0
 10
187.835
 20
142.376
 30
0.0
 40
0
 41
0
  0
VERTEX
  8
0
 10
187.556
 20
142.212
 30
0.0
 40
0
 41
0
  0
VERTEX
  8
0
 10
187.268
 20
142.061
 30
0.0
 40
0
 41
0
  0
VERTEX
  8
0
 10
186.974
 20
141.925
 30
0.0
 40
0
 41
0
  0
VERTEX
  8
0
 10
186.672
 20
141.803
 30
0.0
 40
0
 41
0
  0
VERTEX
  8
0
 10
186.362
 20
141.694
 30
0.0
 40
0
 41
0
  0
VERTEX
  8
0
 10
186.126
 20
141.622
 30
0.0
 40
0
 41
0
  0
VERTEX
  8
0
 10
186.047
 20
141.601
 30
0.0
 40
0
 41
0
  0
VERTEX
  8
0
 10
185.889
 20
141.56
 30
0.0
 40
0
 41
0
  0
VERTEX
  8
0
 10
185.407
 20
141.464
 30
0.0
 40
0
 41
0
  0
VERTEX
  8
0
 10
184.76
 20
141.39
 30
0.0
 40
0
 41
0
  0
VERTEX
  8
0
 10
184.112
 20
141.379
 30
0.0
 40
0
 41
0
  0
VERTEX
  8
0
 10
183.468
 20
141.432
 30
0.0
 40
0
 41
0
  0
VERTEX
  8
0
 10
182.833
 20
141.549
 30
0.0
 40
0
 41
0
  0
VERTEX
  8
0
 10
182.21
 20
141.725
 30
0.0
 40
0
 41
0
  0
VERTEX
  8
0
 10
181.604
 20
141.964
 30
0.0
 40
0
 41
0
  0
VERTEX
  8
0
 10
181.163
 20
142.182
 30
0.0
 40
0
 41
0
  0
VERTEX
  8
0
 10
181.021
 20
142.264
 30
0.0
 40
0
 41
0
  0
VERTEX
  8
0
 10
180.95
 20
142.304
 30
0.0
 40
0
 41
0
  0
VERTEX
  8
0
 10
180.74
 20
142.435
 30
0.0
 40
0
 41
0
  0
VERTEX
  8
0
 10
180.471
 20
142.618
 30
0.0
 40
0
 41
0
  0
VERTEX
  8
0
 10
180.21
 20
142.815
 30
0.0
 40
0
 41
0
  0
VERTEX
  8
0
 10
179.961
 20
143.024
 30
0.0
 40
0
 41
0
  0
VERTEX
  8
0
 10
179.722
 20
143.243
 30
0.0
 40
0
 41
0
  0
VERTEX
  8
0
 10
179.496
 20
143.475
 30
0.0
 40
0
 41
0
  0
VERTEX
  8
0
 10
179.281
 20
143.715
 30
0.0
 40
0
 41
0
  0
VERTEX
  8
0
 10
179.078
 20
143.968
 30
0.0
 40
0
 41
0
  0
VERTEX
  8
0
 10
178.888
 20
144.229
 30
0.0
 40
0
 41
0
  0
VERTEX
  8
0
 10
178.71
 20
144.499
 30
0.0
 40
0
 41
0
  0
VERTEX
  8
0
 10
178.546
 20
144.778
 30
0.0
 40
0
 41
0
  0
VERTEX
  8
0
 10
178.394
 20
145.065
 30
0.0
 40
0
 41
0
  0
VERTEX
  8
0
 10
178.258
 20
145.36
 30
0.0
 40
0
 41
0
  0
VERTEX
  8
0
 10
178.136
 20
145.661
 30
0.0
 40
0
 41
0
  0
VERTEX
  8
0
 10
178.028
 20
145.971
 30
0.0
 40
0
 41
0
  0
VERTEX
  8
0
 10
177.956
 20
146.206
 30
0.0
 40
0
 41
0
  0
VERTEX
  8
0
 10
177.935
 20
146.286
 30
0.0
 40
0
 41
0
  0
VERTEX
  8
0
 10
177.893
 20
146.443
 30
0.0
 40
0
 41
0
  0
VERTEX
  8
0
 10
177.797
 20
146.926
 30
0.0
 40
0
 41
0
  0
VERTEX
  8
0
 10
177.722
 20
147.572
 30
0.0
 40
0
 41
0
  0
VERTEX
  8
0
 10
177.712
 20
148.221
 30
0.0
 40
0
 41
0
  0
VERTEX
  8
0
 10
177.765
 20
148.864
 30
0.0
 40
0
 41
0
  0
VERTEX
  8
0
 10
177.882
 20
149.5
 30
0.0
 40
0
 41
0
  0
VERTEX
  8
0
 10
178.058
 20
150.124
 30
0.0
 40
0
 41
0
  0
VERTEX
  8
0
 10
178.297
 20
150.729
 30
0.0
 40
0
 41
0
  0
VERTEX
  8
0
 10
178.515
 20
151.169
 30
0.0
 40
0
 41
0
  0
VERTEX
  8
0
 10
178.597
 20
151.311
 30
0.0
 40
0
 41
0
  0
VERTEX
  8
0
 10
178.638
 20
151.383
 30
0.0
 40
0
 41
0
  0
VERTEX
  8
0
 10
178.768
 20
151.592
 30
0.0
 40
0
 41
0
  0
VERTEX
  8
0
 10
178.951
 20
151.862
 30
0.0
 40
0
 41
0
  0
VERTEX
  8
0
 10
179.149
 20
152.122
 30
0.0
 40
0
 41
0
  0
VERTEX
  8
0
 10
179.357
 20
152.372
 30
0.0
 40
0
 41
0
  0
VERTEX
  8
0
 10
179.576
 20
152.61
 30
0.0
 40
0
 41
0
  0
VERTEX
  8
0
 10
179.808
 20
152.837
 30
0.0
 40
0
 41
0
  0
VERTEX
  8
0
 10
180.049
 20
153.053
 30
0.0
 40
0
 41
0
  0
VERTEX
  8
0
 10
180.3
 20
153.256
 30
0.0
 40
0
 41
0
  0
VERTEX
  8
0
 10
180.561
 20
153.446
 30
0.0
 40
0
 41
0
  0
VERTEX
  8
0
 10
180.832
 20
153.624
 30
0.0
 40
0
 41
0
  0
VERTEX
  8
0
 10
181.111
 20
153.788
 30
0.0
 40
0
 41
0
  0
VERTEX
  8
0
 10
181.397
 20
153.938
 30
0.0
 40
0
 41
0
  0
VERTEX
  8
0
 10
181.693
 20
154.075
 30
0.0
 40
0
 41
0
  0
VERTEX
  8
0
 10
181.994
 20
154.197
 30
0.0
 40
0
 41
0
  0
VERTEX
  8
0
 10
182.304
 20
154.306
 30
0.0
 40
0
 41
0
  0
VERTEX
  8
0
 10
182.539
 20
154.376
 30
0.0
 40
0
 41
0
  0
VERTEX
  8
0
 10
182.618
 20
154.399
 30
0.0
 40
0
 41
0
  0
VERTEX
  8
0
 10
182.776
 20
154.44
 30
0.0
 40
0
 41
0
  0
VERTEX
  8
0
 10
183.26
 20
154.536
 30
0.0
 40
0
 41
0
  0
VERTEX
  8
0
 10
183.906
 20
154.61
 30
0.0
 40
0
 41
0
  0
VERTEX
  8
0
 10
184.554
 20
154.621
 30
0.0
 40
0
 41
0
  0
VERTEX
  8
0
 10
185.197
 20
154.567
 30
0.0
 40
0
 41
0
  0
VERTEX
  8
0
 10
185.833
 20
154.451
 30
0.0
 40
0
 41
0
  0
VERTEX
  8
0
 10
186.457
 20
154.275
 30
0.0
 40
0
 41
0
  0
VERTEX
  8
0
 10
187.063
 20
154.036
 30
0.0
 40
0
 41
0
  0
VERTEX
  8
0
 10
187.503
 20
153.818
 30
0.0
 40
0
 41
0
  0
VERTEX
  8
0
 10
187.644
 20
153.736
 30
0.0
 40
0
 41
0
  0
VERTEX
  8
0
 10
187.717
 20
153.696
 30
0.0
 40
0
 41
0
  0
VERTEX
  8
0
 10
187.925
 20
153.565
 30
0.0
 40
0
 41
0
  0
VERTEX
  8
0
 10
188.196
 20
153.381
 30
0.0
 40
0
 41
0
  0
VERTEX
  8
0
 10
188.456
 20
153.185
 30
0.0
 40
0
 41
0
  0
VERTEX
  8
0
 10
188.706
 20
152.976
 30
0.0
 40
0
 41
0
  0
VERTEX
  8
0
 10
188.943
 20
152.756
 30
0.0
 40
0
 41
0
  0
VERTEX
  8
0
 10
189.171
 20
152.525
 30
0.0
 40
0
 41
0
  0
VERTEX
  8
0
 10
189.385
 20
152.283
 30
0.0
 40
0
 41
0
  0
VERTEX
  8
0
 10
189.589
 20
152.032
 30
0.0
 40
0
 41
0
  0
VERTEX
  8
0
 10
189.779
 20
151.771
 30
0.0
 40
0
 41
0
  0
VERTEX
  8
0
 10
189.956
 20
151.501
 30
0.0
 40
0
 41
0
  0
VERTEX
  8
0
 10
190.121
 20
151.222
 30
0.0
 40
0
 41
0
  0
VERTEX
  8
0
 10
190.271
 20
150.935
 30
0.0
 40
0
 41
0
  0
VERTEX
  8
0
 10
190.408
 20
150.64
 30
0.0
 40
0
 41
0
  0
VERTEX
  8
0
 10
190.531
 20
150.339
 30
0.0
 40
0
 41
0
  0
VERTEX
  8
0
 10
190.639
 20
150.029
 30
0.0
 40
0
 41
0
  0
VERTEX
  8
0
 10
190.71
 20
149.793
 30
0.0
 40
0
 41
0
  0
VERTEX
  8
0
 10
190.732
 20
149.714
 30
0.0
 40
0
 41
0
  0
VERTEX
  8
0
 10
190.774
 20
149.556
 30
0.0
 40
0
 41
0
  0
VERTEX
  8
0
 10
190.869
 20
149.074
 30
0.0
 40
0
 41
0
  0
VERTEX
  8
0
 10
190.943
 20
148.426
 30
0.0
 40
0
 41
0
  0
VERTEX
  8
0
 10
190.953
 20
147.779
 30
0.0
 40
0
 41
0
  0
VERTEX
  8
0
 10
190.9
 20
147.135
 30
0.0
 40
0
 41
0
  0
VERTEX
  8
0
 10
190.785
 20
146.5
 30
0.0
 40
0
 41
0
  0
VERTEX
  8
0
 10
190.607
 20
145.876
 30
0.0
 40
0
 41
0
  0
VERTEX
  8
0
 10
190.369
 20
145.271
 30
0.0
 40
0
 41
0
  0
VERTEX
  8
0
 10
190.151
 20
144.829
 30
0.0
 40
0
 41
0
  0
VERTEX
  8
0
 10
190.069
 20
144.688
 30
0.0
 40
0
 41
0
  0
SEQEND
 8
0
  0
POLYLINE
  8
0
 62
     0
 66
     1
 10
0
 20
0
 30
0.0
 70
     1
 40
0
 41
0
  0
VERTEX
  8
0
 10
434.896
 20
172.268
 30
0.0
 40
0
 41
0
  0
VERTEX
  8
0
 10
434.822
 20
172.142
 30
0.0
 40
0
 41
0
  0
VERTEX
  8
0
 10
434.578
 20
171.778
 30
0.0
 40
0
 41
0
  0
VERTEX
  8
0
 10
434.218
 20
171.324
 30
0.0
 40
0
 41
0
  0
VERTEX
  8
0
 10
433.815
 20
170.908
 30
0.0
 40
0
 41
0
  0
VERTEX
  8
0
 10
433.376
 20
170.536
 30
0.0
 40
0
 41
0
  0
VERTEX
  8
0
 10
432.903
 20
170.208
 30
0.0
 40
0
 41
0
  0
VERTEX
  8
0
 10
432.399
 20
169.928
 30
0.0
 40
0
 41
0
  0
VERTEX
  8
0
 10
431.867
 20
169.697
 30
0.0
 40
0
 41
0
  0
VERTEX
  8
0
 10
431.451
 20
169.556
 30
0.0
 40
0
 41
0
  0
VERTEX
  8
0
 10
431.31
 20
169.518
 30
0.0
 40
0
 41
0
  0
VERTEX
  8
0
 10
431.169
 20
169.479
 30
0.0
 40
0
 41
0
  0
VERTEX
  8
0
 10
430.739
 20
169.394
 30
0.0
 40
0
 41
0
  0
VERTEX
  8
0
 10
430.162
 20
169.329
 30
0.0
 40
0
 41
0
  0
VERTEX
  8
0
 10
429.586
 20
169.319
 30
0.0
 40
0
 41
0
  0
VERTEX
  8
0
 10
429.011
 20
169.367
 30
0.0
 40
0
 41
0
  0
VERTEX
  8
0
 10
428.444
 20
169.469
 30
0.0
 40
0
 41
0
  0
VERTEX
  8
0
 10
427.89
 20
169.628
 30
0.0
 40
0
 41
0
  0
VERTEX
  8
0
 10
427.35
 20
169.84
 30
0.0
 40
0
 41
0
  0
VERTEX
  8
0
 10
426.957
 20
170.035
 30
0.0
 40
0
 41
0
  0
VERTEX
  8
0
 10
426.831
 20
170.107
 30
0.0
 40
0
 41
0
  0
VERTEX
  8
0
 10
426.704
 20
170.181
 30
0.0
 40
0
 41
0
  0
VERTEX
  8
0
 10
426.339
 20
170.424
 30
0.0
 40
0
 41
0
  0
VERTEX
  8
0
 10
425.885
 20
170.785
 30
0.0
 40
0
 41
0
  0
VERTEX
  8
0
 10
425.471
 20
171.188
 30
0.0
 40
0
 41
0
  0
VERTEX
  8
0
 10
425.099
 20
171.626
 30
0.0
 40
0
 41
0
  0
VERTEX
  8
0
 10
424.771
 20
172.1
 30
0.0
 40
0
 41
0
  0
VERTEX
  8
0
 10
424.489
 20
172.604
 30
0.0
 40
0
 41
0
  0
VERTEX
  8
0
 10
424.258
 20
173.136
 30
0.0
 40
0
 41
0
  0
VERTEX
  8
0
 10
424.117
 20
173.551
 30
0.0
 40
0
 41
0
  0
VERTEX
  8
0
 10
424.079
 20
173.692
 30
0.0
 40
0
 41
0
  0
VERTEX
  8
0
 10
424.042
 20
173.833
 30
0.0
 40
0
 41
0
  0
VERTEX
  8
0
 10
423.957
 20
174.264
 30
0.0
 40
0
 41
0
  0
VERTEX
  8
0
 10
423.89
 20
174.84
 30
0.0
 40
0
 41
0
  0
VERTEX
  8
0
 10
423.882
 20
175.417
 30
0.0
 40
0
 41
0
  0
VERTEX
  8
0
 10
423.929
 20
175.992
 30
0.0
 40
0
 41
0
  0
VERTEX
  8
0
 10
424.032
 20
176.558
 30
0.0
 40
0
 41
0
  0
VERTEX
  8
0
 10
424.19
 20
177.112
 30
0.0
 40
0
 41
0
  0
VERTEX
  8
0
 10
424.403
 20
177.653
 30
0.0
 40
0
 41
0
  0
VERTEX
  8
0
 10
424.596
 20
178.046
 30
0.0
 40
0
 41
0
  0
VERTEX
  8
0
 10
424.669
 20
178.172
 30
0.0
 40
0
 41
0
  0
VERTEX
  8
0
 10
424.742
 20
178.299
 30
0.0
 40
0
 41
0
  0
VERTEX
  8
0
 10
424.986
 20
178.664
 30
0.0
 40
0
 41
0
  0
VERTEX
  8
0
 10
425.347
 20
179.117
 30
0.0
 40
0
 41
0
  0
VERTEX
  8
0
 10
425.749
 20
179.532
 30
0.0
 40
0
 41
0
  0
VERTEX
  8
0
 10
426.188
 20
179.904
 30
0.0
 40
0
 41
0
  0
VERTEX
  8
0
 10
426.661
 20
180.232
 30
0.0
 40
0
 41
0
  0
VERTEX
  8
0
 10
427.167
 20
180.513
 30
0.0
 40
0
 41
0
  0
VERTEX
  8
0
 10
427.699
 20
180.744
 30
0.0
 40
0
 41
0
  0
VERTEX
  8
0
 10
428.114
 20
180.886
 30
0.0
 40
0
 41
0
  0
VERTEX
  8
0
 10
428.254
 20
180.924
 30
0.0
 40
0
 41
0
  0
VERTEX
  8
0
 10
428.394
 20
180.961
 30
0.0
 40
0
 41
0
  0
VERTEX
  8
0
 10
428.825
 20
181.046
 30
0.0
 40
0
 41
0
  0
VERTEX
  8
0
 10
429.401
 20
181.112
 30
0.0
 40
0
 41
0
  0
VERTEX
  8
0
 10
429.979
 20
181.121
 30
0.0
 40
0
 41
0
  0
VERTEX
  8
0
 10
430.553
 20
181.074
 30
0.0
 40
0
 41
0
  0
VERTEX
  8
0
 10
431.119
 20
180.971
 30
0.0
 40
0
 41
0
  0
VERTEX
  8
0
 10
431.675
 20
180.813
 30
0.0
 40
0
 41
0
  0
VERTEX
  8
0
 10
432.214
 20
180.6
 30
0.0
 40
0
 41
0
  0
VERTEX
  8
0
 10
432.608
 20
180.407
 30
0.0
 40
0
 41
0
  0
VERTEX
  8
0
 10
432.735
 20
180.333
 30
0.0
 40
0
 41
0
  0
VERTEX
  8
0
 10
432.861
 20
180.261
 30
0.0
 40
0
 41
0
  0
VERTEX
  8
0
 10
433.225
 20
180.017
 30
0.0
 40
0
 41
0
  0
VERTEX
  8
0
 10
433.679
 20
179.656
 30
0.0
 40
0
 41
0
  0
VERTEX
  8
0
 10
434.093
 20
179.254
 30
0.0
 40
0
 41
0
  0
VERTEX
  8
0
 10
434.467
 20
178.814
 30
0.0
 40
0
 41
0
  0
VERTEX
  8
0
 10
434.794
 20
178.342
 30
0.0
 40
0
 41
0
  0
VERTEX
  8
0
 10
435.075
 20
177.836
 30
0.0
 40
0
 41
0
  0
VERTEX
  8
0
 10
435.306
 20
177.304
 30
0.0
 40
0
 41
0
  0
VERTEX
  8
0
 10
435.447
 20
176.889
 30
0.0
 40
0
 41
0
  0
VERTEX
  8
0
 10
435.485
 20
176.749
 30
0.0
 40
0
 41
0
  0
VERTEX
  8
0
 10
435.522
 20
176.607
 30
0.0
 40
0
 41
0
  0
VERTEX
  8
0
 10
435.608
 20
176.178
 30
0.0
 40
0
 41
0
  0
VERTEX
  8
0
 10
435.674
 20
175.601
 30
0.0
 40
0
 41
0
  0
VERTEX
  8
0
 10
435.683
 20
175.024
 30
0.0
 40
0
 41
0
  0
VERTEX
  8
0
 10
435.636
 20
174.45
 30
0.0
 40
0
 41
0
  0
VERTEX
  8
0
 10
435.533
 20
173.883
 30
0.0
 40
0
 41
0
  0
VERTEX
  8
0
 10
435.375
 20
173.328
 30
0.0
 40
0
 41
0
  0
VERTEX
  8
0
 10
435.162
 20
172.789
 30
0.0
 40
0
 41
0
  0
VERTEX
  8
0
 10
434.968
 20
172.394
 30
0.0
 40
0
 41
0
  0
VERTEX
  8
0
 10
434.896
 20
172.268
 30
0.0
 40
0
 41
0
  0
SEQEND
 8
0
  0
POLYLINE
  8
0
 62
     0
 66
     1
 10
0
 20
0
 30
0.0
 70
     1
 40
0
 41
0
  0
VERTEX
  8
0
 10
301.686
 20
142.6
 30
0.0
 40
0
 41
0
  0
VERTEX
  8
0
 10
301.619
 20
142.483
 30
0.0
 40
0
 41
0
  0
VERTEX
  8
0
 10
301.407
 20
142.143
 30
0.0
 40
0
 41
0
  0
VERTEX
  8
0
 10
301.107
 20
141.701
 30
0.0
 40
0
 41
0
  0
VERTEX
  8
0
 10
300.786
 20
141.278
 30
0.0
 40
0
 41
0
  0
VERTEX
  8
0
 10
300.446
 20
140.871
 30
0.0
 40
0
 41
0
  0
VERTEX
  8
0
 10
300.088
 20
140.483
 30
0.0
 40
0
 41
0
  0
VERTEX
  8
0
 10
299.711
 20
140.112
 30
0.0
 40
0
 41
0
  0
VERTEX
  8
0
 10
299.318
 20
139.763
 30
0.0
 40
0
 41
0
  0
VERTEX
  8
0
 10
298.908
 20
139.432
 30
0.0
 40
0
 41
0
  0
VERTEX
  8
0
 10
298.482
 20
139.121
 30
0.0
 40
0
 41
0
  0
VERTEX
  8
0
 10
298.042
 20
138.832
 30
0.0
 40
0
 41
0
  0
VERTEX
  8
0
 10
297.588
 20
138.564
 30
0.0
 40
0
 41
0
  0
VERTEX
  8
0
 10
297.119
 20
138.318
 30
0.0
 40
0
 41
0
  0
VERTEX
  8
0
 10
296.639
 20
138.095
 30
0.0
 40
0
 41
0
  0
VERTEX
  8
0
 10
296.146
 20
137.895
 30
0.0
 40
0
 41
0
  0
VERTEX
  8
0
 10
295.642
 20
137.719
 30
0.0
 40
0
 41
0
  0
VERTEX
  8
0
 10
295.258
 20
137.602
 30
0.0
 40
0
 41
0
  0
VERTEX
  8
0
 10
295.128
 20
137.568
 30
0.0
 40
0
 41
0
  0
VERTEX
  8
0
 10
294.999
 20
137.533
 30
0.0
 40
0
 41
0
  0
VERTEX
  8
0
 10
294.608
 20
137.442
 30
0.0
 40
0
 41
0
  0
VERTEX
  8
0
 10
294.083
 20
137.343
 30
0.0
 40
0
 41
0
  0
VERTEX
  8
0
 10
293.557
 20
137.269
 30
0.0
 40
0
 41
0
  0
VERTEX
  8
0
 10
293.029
 20
137.222
 30
0.0
 40
0
 41
0
  0
VERTEX
  8
0
 10
292.501
 20
137.201
 30
0.0
 40
0
 41
0
  0
VERTEX
  8
0
 10
291.974
 20
137.206
 30
0.0
 40
0
 41
0
  0
VERTEX
  8
0
 10
291.447
 20
137.236
 30
0.0
 40
0
 41
0
  0
VERTEX
  8
0
 10
290.924
 20
137.292
 30
0.0
 40
0
 41
0
  0
VERTEX
  8
0
 10
290.403
 20
137.374
 30
0.0
 40
0
 41
0
  0
VERTEX
  8
0
 10
289.886
 20
137.481
 30
0.0
 40
0
 41
0
  0
VERTEX
  8
0
 10
289.376
 20
137.613
 30
0.0
 40
0
 41
0
  0
VERTEX
  8
0
 10
288.871
 20
137.77
 30
0.0
 40
0
 41
0
  0
VERTEX
  8
0
 10
288.374
 20
137.952
 30
0.0
 40
0
 41
0
  0
VERTEX
  8
0
 10
287.883
 20
138.159
 30
0.0
 40
0
 41
0
  0
VERTEX
  8
0
 10
287.404
 20
138.391
 30
0.0
 40
0
 41
0
  0
VERTEX
  8
0
 10
287.049
 20
138.58
 30
0.0
 40
0
 41
0
  0
VERTEX
  8
0
 10
286.933
 20
138.647
 30
0.0
 40
0
 41
0
  0
VERTEX
  8
0
 10
286.817
 20
138.714
 30
0.0
 40
0
 41
0
  0
VERTEX
  8
0
 10
286.476
 20
138.926
 30
0.0
 40
0
 41
0
  0
VERTEX
  8
0
 10
286.035
 20
139.226
 30
0.0
 40
0
 41
0
  0
VERTEX
  8
0
 10
285.611
 20
139.547
 30
0.0
 40
0
 41
0
  0
VERTEX
  8
0
 10
285.204
 20
139.886
 30
0.0
 40
0
 41
0
  0
VERTEX
  8
0
 10
284.817
 20
140.244
 30
0.0
 40
0
 41
0
  0
VERTEX
  8
0
 10
284.446
 20
140.622
 30
0.0
 40
0
 41
0
  0
VERTEX
  8
0
 10
284.096
 20
141.015
 30
0.0
 40
0
 41
0
  0
VERTEX
  8
0
 10
283.765
 20
141.425
 30
0.0
 40
0
 41
0
  0
VERTEX
  8
0
 10
283.454
 20
141.851
 30
0.0
 40
0
 41
0
  0
VERTEX
  8
0
 10
283.165
 20
142.292
 30
0.0
 40
0
 41
0
  0
VERTEX
  8
0
 10
282.897
 20
142.746
 30
0.0
 40
0
 41
0
  0
VERTEX
  8
0
 10
282.651
 20
143.214
 30
0.0
 40
0
 41
0
  0
VERTEX
  8
0
 10
282.428
 20
143.694
 30
0.0
 40
0
 41
0
  0
VERTEX
  8
0
 10
282.228
 20
144.188
 30
0.0
 40
0
 41
0
  0
VERTEX
  8
0
 10
282.053
 20
144.69
 30
0.0
 40
0
 41
0
  0
VERTEX
  8
0
 10
281.936
 20
145.075
 30
0.0
 40
0
 41
0
  0
VERTEX
  8
0
 10
281.901
 20
145.204
 30
0.0
 40
0
 41
0
  0
VERTEX
  8
0
 10
281.867
 20
145.333
 30
0.0
 40
0
 41
0
  0
VERTEX
  8
0
 10
281.775
 20
145.725
 30
0.0
 40
0
 41
0
  0
VERTEX
  8
0
 10
281.676
 20
146.25
 30
0.0
 40
0
 41
0
  0
VERTEX
  8
0
 10
281.603
 20
146.776
 30
0.0
 40
0
 41
0
  0
VERTEX
  8
0
 10
281.556
 20
147.304
 30
0.0
 40
0
 41
0
  0
VERTEX
  8
0
 10
281.535
 20
147.832
 30
0.0
 40
0
 41
0
  0
VERTEX
  8
0
 10
281.539
 20
148.36
 30
0.0
 40
0
 41
0
  0
VERTEX
  8
0
 10
281.569
 20
148.886
 30
0.0
 40
0
 41
0
  0
VERTEX
  8
0
 10
281.625
 20
149.41
 30
0.0
 40
0
 41
0
  0
VERTEX
  8
0
 10
281.707
 20
149.931
 30
0.0
 40
0
 41
0
  0
VERTEX
  8
0
 10
281.814
 20
150.446
 30
0.0
 40
0
 41
0
  0
VERTEX
  8
0
 10
281.946
 20
150.957
 30
0.0
 40
0
 41
0
  0
VERTEX
  8
0
 10
282.103
 20
151.462
 30
0.0
 40
0
 41
0
  0
VERTEX
  8
0
 10
282.285
 20
151.96
 30
0.0
 40
0
 41
0
  0
VERTEX
  8
0
 10
282.492
 20
152.449
 30
0.0
 40
0
 41
0
  0
VERTEX
  8
0
 10
282.724
 20
152.929
 30
0.0
 40
0
 41
0
  0
VERTEX
  8
0
 10
282.912
 20
153.283
 30
0.0
 40
0
 41
0
  0
VERTEX
  8
0
 10
282.981
 20
153.4
 30
0.0
 40
0
 41
0
  0
VERTEX
  8
0
 10
283.047
 20
153.515
 30
0.0
 40
0
 41
0
  0
VERTEX
  8
0
 10
283.26
 20
153.857
 30
0.0
 40
0
 41
0
  0
VERTEX
  8
0
 10
283.56
 20
154.297
 30
0.0
 40
0
 41
0
  0
VERTEX
  8
0
 10
283.881
 20
154.722
 30
0.0
 40
0
 41
0
  0
VERTEX
  8
0
 10
284.219
 20
155.128
 30
0.0
 40
0
 41
0
  0
VERTEX
  8
0
 10
284.578
 20
155.517
 30
0.0
 40
0
 41
0
  0
VERTEX
  8
0
 10
284.956
 20
155.886
 30
0.0
 40
0
 41
0
  0
VERTEX
  8
0
 10
285.349
 20
156.237
 30
0.0
 40
0
 41
0
  0
VERTEX
  8
0
 10
285.758
 20
156.568
 30
0.0
 40
0
 41
0
  0
VERTEX
  8
0
 10
286.185
 20
156.879
 30
0.0
 40
0
 41
0
  0
VERTEX
  8
0
 10
286.625
 20
157.168
 30
0.0
 40
0
 41
0
  0
VERTEX
  8
0
 10
287.079
 20
157.436
 30
0.0
 40
0
 41
0
  0
VERTEX
  8
0
 10
287.547
 20
157.682
 30
0.0
 40
0
 41
0
  0
VERTEX
  8
0
 10
288.028
 20
157.904
 30
0.0
 40
0
 41
0
  0
VERTEX
  8
0
 10
288.521
 20
158.104
 30
0.0
 40
0
 41
0
  0
VERTEX
  8
0
 10
289.024
 20
158.281
 30
0.0
 40
0
 41
0
  0
VERTEX
  8
0
 10
289.408
 20
158.397
 30
0.0
 40
0
 41
0
  0
VERTEX
  8
0
 10
289.537
 20
158.432
 30
0.0
 40
0
 41
0
  0
VERTEX
  8
0
 10
289.667
 20
158.467
 30
0.0
 40
0
 41
0
  0
VERTEX
  8
0
 10
290.058
 20
158.557
 30
0.0
 40
0
 41
0
  0
VERTEX
  8
0
 10
290.582
 20
158.657
 30
0.0
 40
0
 41
0
  0
VERTEX
  8
0
 10
291.108
 20
158.731
 30
0.0
 40
0
 41
0
  0
VERTEX
  8
0
 10
291.636
 20
158.778
 30
0.0
 40
0
 41
0
  0
VERTEX
  8
0
 10
292.165
 20
158.799
 30
0.0
 40
0
 41
0
  0
VERTEX
  8
0
 10
292.693
 20
158.794
 30
0.0
 40
0
 41
0
  0
VERTEX
  8
0
 10
293.219
 20
158.764
 30
0.0
 40
0
 41
0
  0
VERTEX
  8
0
 10
293.743
 20
158.707
 30
0.0
 40
0
 41
0
  0
VERTEX
  8
0
 10
294.264
 20
158.626
 30
0.0
 40
0
 41
0
  0
VERTEX
  8
0
 10
294.779
 20
158.519
 30
0.0
 40
0
 41
0
  0
VERTEX
  8
0
 10
295.29
 20
158.388
 30
0.0
 40
0
 41
0
  0
VERTEX
  8
0
 10
295.796
 20
158.231
 30
0.0
 40
0
 41
0
  0
VERTEX
  8
0
 10
296.293
 20
158.047
 30
0.0
 40
0
 41
0
  0
VERTEX
  8
0
 10
296.782
 20
157.84
 30
0.0
 40
0
 41
0
  0
VERTEX
  8
0
 10
297.263
 20
157.61
 30
0.0
 40
0
 41
0
  0
VERTEX
  8
0
 10
297.617
 20
157.419
 30
0.0
 40
0
 41
0
  0
VERTEX
  8
0
 10
297.733
 20
157.353
 30
0.0
 40
0
 41
0
  0
VERTEX
  8
0
 10
297.849
 20
157.286
 30
0.0
 40
0
 41
0
  0
VERTEX
  8
0
 10
298.19
 20
157.074
 30
0.0
 40
0
 41
0
  0
VERTEX
  8
0
 10
298.631
 20
156.774
 30
0.0
 40
0
 41
0
  0
VERTEX
  8
0
 10
299.056
 20
156.453
 30
0.0
 40
0
 41
0
  0
VERTEX
  8
0
 10
299.461
 20
156.112
 30
0.0
 40
0
 41
0
  0
VERTEX
  8
0
 10
299.85
 20
155.754
 30
0.0
 40
0
 41
0
  0
VERTEX
  8
0
 10
300.219
 20
155.378
 30
0.0
 40
0
 41
0
  0
VERTEX
  8
0
 10
300.571
 20
154.985
 30
0.0
 40
0
 41
0
  0
VERTEX
  8
0
 10
300.901
 20
154.575
 30
0.0
 40
0
 41
0
  0
VERTEX
  8
0
 10
301.213
 20
154.149
 30
0.0
 40
0
 41
0
  0
VERTEX
  8
0
 10
301.501
 20
153.708
 30
0.0
 40
0
 41
0
  0
VERTEX
  8
0
 10
301.769
 20
153.254
 30
0.0
 40
0
 41
0
  0
VERTEX
  8
0
 10
302.015
 20
152.786
 30
0.0
 40
0
 41
0
  0
VERTEX
  8
0
 10
302.237
 20
152.306
 30
0.0
 40
0
 41
0
  0
VERTEX
  8
0
 10
302.438
 20
151.813
 30
0.0
 40
0
 41
0
  0
VERTEX
  8
0
 10
302.614
 20
151.308
 30
0.0
 40
0
 41
0
  0
VERTEX
  8
0
 10
302.731
 20
150.925
 30
0.0
 40
0
 41
0
  0
VERTEX
  8
0
 10
302.765
 20
150.794
 30
0.0
 40
0
 41
0
  0
VERTEX
  8
0
 10
302.8
 20
150.665
 30
0.0
 40
0
 41
0
  0
VERTEX
  8
0
 10
302.89
 20
150.275
 30
0.0
 40
0
 41
0
  0
VERTEX
  8
0
 10
302.99
 20
149.75
 30
0.0
 40
0
 41
0
  0
VERTEX
  8
0
 10
303.064
 20
149.224
 30
0.0
 40
0
 41
0
  0
VERTEX
  8
0
 10
303.111
 20
148.696
 30
0.0
 40
0
 41
0
  0
VERTEX
  8
0
 10
303.132
 20
148.168
 30
0.0
 40
0
 41
0
  0
VERTEX
  8
0
 10
303.128
 20
147.64
 30
0.0
 40
0
 41
0
  0
VERTEX
  8
0
 10
303.097
 20
147.114
 30
0.0
 40
0
 41
0
  0
VERTEX
  8
0
 10
303.04
 20
146.59
 30
0.0
 40
0
 41
0
  0
VERTEX
  8
0
 10
302.96
 20
146.069
 30
0.0
 40
0
 41
0
  0
VERTEX
  8
0
 10
302.853
 20
145.553
 30
0.0
 40
0
 41
0
  0
VERTEX
  8
0
 10
302.721
 20
145.043
 30
0.0
 40
0
 41
0
  0
VERTEX
  8
0
 10
302.564
 20
144.538
 30
0.0
 40
0
 41
0
  0
VERTEX
  8
0
 10
302.381
 20
144.04
 30
0.0
 40
0
 41
0
  0
VERTEX
  8
0
 10
302.174
 20
143.551
 30
0.0
 40
0
 41
0
  0
VERTEX
  8
0
 10
301.943
 20
143.071
 30
0.0
 40
0
 41
0
  0
VERTEX
  8
0
 10
301.753
 20
142.715
 30
0.0
 40
0
 41
0
  0
VERTEX
  8
0
 10
301.686
 20
142.6
 30
0.0
 40
0
 41
0
  0
SEQEND
 8
0
  0
POLYLINE
  8
0
 62
     0
 66
     1
 10
0
 20
0
 30
0.0
 70
     1
 40
0
 41
0
  0
VERTEX
  8
0
 10
226.069
 20
144.688
 30
0.0
 40
0
 41
0
  0
VERTEX
  8
0
 10
226.029
 20
144.617
 30
0.0
 40
0
 41
0
  0
VERTEX
  8
0
 10
225.899
 20
144.407
 30
0.0
 40
0
 41
0
  0
VERTEX
  8
0
 10
225.714
 20
144.138
 30
0.0
 40
0
 41
0
  0
VERTEX
  8
0
 10
225.518
 20
143.876
 30
0.0
 40
0
 41
0
  0
VERTEX
  8
0
 10
225.31
 20
143.628
 30
0.0
 40
0
 41
0
  0
VERTEX
  8
0
 10
225.089
 20
143.389
 30
0.0
 40
0
 41
0
  0
VERTEX
  8
0
 10
224.858
 20
143.163
 30
0.0
 40
0
 41
0
  0
VERTEX
  8
0
 10
224.617
 20
142.947
 30
0.0
 40
0
 41
0
  0
VERTEX
  8
0
 10
224.365
 20
142.744
 30
0.0
 40
0
 41
0
  0
VERTEX
  8
0
 10
224.104
 20
142.554
 30
0.0
 40
0
 41
0
  0
VERTEX
  8
0
 10
223.835
 20
142.376
 30
0.0
 40
0
 41
0
  0
VERTEX
  8
0
 10
223.556
 20
142.212
 30
0.0
 40
0
 41
0
  0
VERTEX
  8
0
 10
223.268
 20
142.061
 30
0.0
 40
0
 41
0
  0
VERTEX
  8
0
 10
222.974
 20
141.925
 30
0.0
 40
0
 41
0
  0
VERTEX
  8
0
 10
222.672
 20
141.803
 30
0.0
 40
0
 41
0
  0
VERTEX
  8
0
 10
222.362
 20
141.694
 30
0.0
 40
0
 41
0
  0
VERTEX
  8
0
 10
222.126
 20
141.622
 30
0.0
 40
0
 41
0
  0
VERTEX
  8
0
 10
222.047
 20
141.601
 30
0.0
 40
0
 41
0
  0
VERTEX
  8
0
 10
221.889
 20
141.56
 30
0.0
 40
0
 41
0
  0
VERTEX
  8
0
 10
221.407
 20
141.464
 30
0.0
 40
0
 41
0
  0
VERTEX
  8
0
 10
220.76
 20
141.39
 30
0.0
 40
0
 41
0
  0
VERTEX
  8
0
 10
220.112
 20
141.379
 30
0.0
 40
0
 41
0
  0
VERTEX
  8
0
 10
219.468
 20
141.432
 30
0.0
 40
0
 41
0
  0
VERTEX
  8
0
 10
218.833
 20
141.549
 30
0.0
 40
0
 41
0
  0
VERTEX
  8
0
 10
218.21
 20
141.725
 30
0.0
 40
0
 41
0
  0
VERTEX
  8
0
 10
217.604
 20
141.964
 30
0.0
 40
0
 41
0
  0
VERTEX
  8
0
 10
217.163
 20
142.182
 30
0.0
 40
0
 41
0
  0
VERTEX
  8
0
 10
217.021
 20
142.264
 30
0.0
 40
0
 41
0
  0
VERTEX
  8
0
 10
216.95
 20
142.304
 30
0.0
 40
0
 41
0
  0
VERTEX
  8
0
 10
216.74
 20
142.435
 30
0.0
 40
0
 41
0
  0
VERTEX
  8
0
 10
216.471
 20
142.618
 30
0.0
 40
0
 41
0
  0
VERTEX
  8
0
 10
216.21
 20
142.815
 30
0.0
 40
0
 41
0
  0
VERTEX
  8
0
 10
215.961
 20
143.024
 30
0.0
 40
0
 41
0
  0
VERTEX
  8
0
 10
215.722
 20
143.243
 30
0.0
 40
0
 41
0
  0
VERTEX
  8
0
 10
215.496
 20
143.475
 30
0.0
 40
0
 41
0
  0
VERTEX
  8
0
 10
215.281
 20
143.715
 30
0.0
 40
0
 41
0
  0
VERTEX
  8
0
 10
215.078
 20
143.968
 30
0.0
 40
0
 41
0
  0
VERTEX
  8
0
 10
214.888
 20
144.229
 30
0.0
 40
0
 41
0
  0
VERTEX
  8
0
 10
214.71
 20
144.499
 30
0.0
 40
0
 41
0
  0
VERTEX
  8
0
 10
214.546
 20
144.778
 30
0.0
 40
0
 41
0
  0
VERTEX
  8
0
 10
214.394
 20
145.065
 30
0.0
 40
0
 41
0
  0
VERTEX
  8
0
 10
214.258
 20
145.36
 30
0.0
 40
0
 41
0
  0
VERTEX
  8
0
 10
214.136
 20
145.661
 30
0.0
 40
0
 41
0
  0
VERTEX
  8
0
 10
214.028
 20
145.971
 30
0.0
 40
0
 41
0
  0
VERTEX
  8
0
 10
213.956
 20
146.206
 30
0.0
 40
0
 41
0
  0
VERTEX
  8
0
 10
213.935
 20
146.286
 30
0.0
 40
0
 41
0
  0
VERTEX
  8
0
 10
213.893
 20
146.443
 30
0.0
 40
0
 41
0
  0
VERTEX
  8
0
 10
213.797
 20
146.926
 30
0.0
 40
0
 41
0
  0
VERTEX
  8
0
 10
213.722
 20
147.572
 30
0.0
 40
0
 41
0
  0
VERTEX
  8
0
 10
213.712
 20
148.221
 30
0.0
 40
0
 41
0
  0
VERTEX
  8
0
 10
213.765
 20
148.864
 30
0.0
 40
0
 41
0
  0
VERTEX
  8
0
 10
213.882
 20
149.5
 30
0.0
 40
0
 41
0
  0
VERTEX
  8
0
 10
214.058
 20
150.124
 30
0.0
 40
0
 41
0
  0
VERTEX
  8
0
 10
214.297
 20
150.729
 30
0.0
 40
0
 41
0
  0
VERTEX
  8
0
 10
214.515
 20
151.169
 30
0.0
 40
0
 41
0
  0
VERTEX
  8
0
 10
214.597
 20
151.311
 30
0.0
 40
0
 41
0
  0
VERTEX
  8
0
 10
214.638
 20
151.383
 30
0.0
 40
0
 41
0
  0
VERTEX
  8
0
 10
214.768
 20
151.592
 30
0.0
 40
0
 41
0
  0
VERTEX
  8
0
 10
214.951
 20
151.862
 30
0.0
 40
0
 41
0
  0
VERTEX
  8
0
 10
215.149
 20
152.122
 30
0.0
 40
0
 41
0
  0
VERTEX
  8
0
 10
215.357
 20
152.372
 30
0.0
 40
0
 41
0
  0
VERTEX
  8
0
 10
215.576
 20
152.61
 30
0.0
 40
0
 41
0
  0
VERTEX
  8
0
 10
215.808
 20
152.837
 30
0.0
 40
0
 41
0
  0
VERTEX
  8
0
 10
216.049
 20
153.053
 30
0.0
 40
0
 41
0
  0
VERTEX
  8
0
 10
216.3
 20
153.256
 30
0.0
 40
0
 41
0
  0
VERTEX
  8
0
 10
216.561
 20
153.446
 30
0.0
 40
0
 41
0
  0
VERTEX
  8
0
 10
216.832
 20
153.624
 30
0.0
 40
0
 41
0
  0
VERTEX
  8
0
 10
217.111
 20
153.788
 30
0.0
 40
0
 41
0
  0
VERTEX
  8
0
 10
217.397
 20
153.938
 30
0.0
 40
0
 41
0
  0
VERTEX
  8
0
 10
217.693
 20
154.075
 30
0.0
 40
0
 41
0
  0
VERTEX
  8
0
 10
217.994
 20
154.197
 30
0.0
 40
0
 41
0
  0
VERTEX
  8
0
 10
218.304
 20
154.306
 30
0.0
 40
0
 41
0
  0
VERTEX
  8
0
 10
218.539
 20
154.376
 30
0.0
 40
0
 41
0
  0
VERTEX
  8
0
 10
218.618
 20
154.399
 30
0.0
 40
0
 41
0
  0
VERTEX
  8
0
 10
218.776
 20
154.44
 30
0.0
 40
0
 41
0
  0
VERTEX
  8
0
 10
219.26
 20
154.536
 30
0.0
 40
0
 41
0
  0
VERTEX
  8
0
 10
219.906
 20
154.61
 30
0.0
 40
0
 41
0
  0
VERTEX
  8
0
 10
220.554
 20
154.621
 30
0.0
 40
0
 41
0
  0
VERTEX
  8
0
 10
221.197
 20
154.567
 30
0.0
 40
0
 41
0
  0
VERTEX
  8
0
 10
221.833
 20
154.451
 30
0.0
 40
0
 41
0
  0
VERTEX
  8
0
 10
222.457
 20
154.275
 30
0.0
 40
0
 41
0
  0
VERTEX
  8
0
 10
223.063
 20
154.036
 30
0.0
 40
0
 41
0
  0
VERTEX
  8
0
 10
223.503
 20
153.818
 30
0.0
 40
0
 41
0
  0
VERTEX
  8
0
 10
223.644
 20
153.736
 30
0.0
 40
0
 41
0
  0
VERTEX
  8
0
 10
223.717
 20
153.696
 30
0.0
 40
0
 41
0
  0
VERTEX
  8
0
 10
223.925
 20
153.565
 30
0.0
 40
0
 41
0
  0
VERTEX
  8
0
 10
224.196
 20
153.381
 30
0.0
 40
0
 41
0
  0
VERTEX
  8
0
 10
224.456
 20
153.185
 30
0.0
 40
0
 41
0
  0
VERTEX
  8
0
 10
224.706
 20
152.976
 30
0.0
 40
0
 41
0
  0
VERTEX
  8
0
 10
224.943
 20
152.756
 30
0.0
 40
0
 41
0
  0
VERTEX
  8
0
 10
225.171
 20
152.525
 30
0.0
 40
0
 41
0
  0
VERTEX
  8
0
 10
225.385
 20
152.283
 30
0.0
 40
0
 41
0
  0
VERTEX
  8
0
 10
225.589
 20
152.032
 30
0.0
 40
0
 41
0
  0
VERTEX
  8
0
 10
225.779
 20
151.771
 30
0.0
 40
0
 41
0
  0
VERTEX
  8
0
 10
225.956
 20
151.501
 30
0.0
 40
0
 41
0
  0
VERTEX
  8
0
 10
226.121
 20
151.222
 30
0.0
 40
0
 41
0
  0
VERTEX
  8
0
 10
226.271
 20
150.935
 30
0.0
 40
0
 41
0
  0
VERTEX
  8
0
 10
226.408
 20
150.64
 30
0.0
 40
0
 41
0
  0
VERTEX
  8
0
 10
226.531
 20
150.339
 30
0.0
 40
0
 41
0
  0
VERTEX
  8
0
 10
226.639
 20
150.029
 30
0.0
 40
0
 41
0
  0
VERTEX
  8
0
 10
226.71
 20
149.793
 30
0.0
 40
0
 41
0
  0
VERTEX
  8
0
 10
226.732
 20
149.714
 30
0.0
 40
0
 41
0
  0
VERTEX
  8
0
 10
226.774
 20
149.556
 30
0.0
 40
0
 41
0
  0
VERTEX
  8
0
 10
226.869
 20
149.074
 30
0.0
 40
0
 41
0
  0
VERTEX
  8
0
 10
226.943
 20
148.426
 30
0.0
 40
0
 41
0
  0
VERTEX
  8
0
 10
226.953
 20
147.779
 30
0.0
 40
0
 41
0
  0
VERTEX
  8
0
 10
226.9
 20
147.135
 30
0.0
 40
0
 41
0
  0
VERTEX
  8
0
 10
226.785
 20
146.5
 30
0.0
 40
0
 41
0
  0
VERTEX
  8
0
 10
226.607
 20
145.876
 30
0.0
 40
0
 41
0
  0
VERTEX
  8
0
 10
226.369
 20
145.271
 30
0.0
 40
0
 41
0
  0
VERTEX
  8
0
 10
226.151
 20
144.829
 30
0.0
 40
0
 41
0
  0
VERTEX
  8
0
 10
226.069
 20
144.688
 30
0.0
 40
0
 41
0
  0
SEQEND
 8
0
  0
POLYLINE
  8
0
 62
     0
 66
     1
 10
0
 20
0
 30
0.0
 70
     1
 40
0
 41
0
  0
VERTEX
  8
0
 10
373.103
 20
207.944
 30
0.0
 40
0
 41
0
  0
VERTEX
  8
0
 10
373.063
 20
207.874
 30
0.0
 40
0
 41
0
  0
VERTEX
  8
0
 10
372.933
 20
207.667
 30
0.0
 40
0
 41
0
  0
VERTEX
  8
0
 10
372.751
 20
207.4
 30
0.0
 40
0
 41
0
  0
VERTEX
  8
0
 10
372.557
 20
207.143
 30
0.0
 40
0
 41
0
  0
VERTEX
  8
0
 10
372.35
 20
206.896
 30
0.0
 40
0
 41
0
  0
VERTEX
  8
0
 10
372.133
 20
206.66
 30
0.0
 40
0
 41
0
  0
VERTEX
  8
0
 10
371.904
 20
206.436
 30
0.0
 40
0
 41
0
  0
VERTEX
  8
0
 10
371.665
 20
206.224
 30
0.0
 40
0
 41
0
  0
VERTEX
  8
0
 10
371.417
 20
206.022
 30
0.0
 40
0
 41
0
  0
VERTEX
  8
0
 10
371.158
 20
205.835
 30
0.0
 40
0
 41
0
  0
VERTEX
  8
0
 10
370.892
 20
205.658
 30
0.0
 40
0
 41
0
  0
VERTEX
  8
0
 10
370.615
 20
205.496
 30
0.0
 40
0
 41
0
  0
VERTEX
  8
0
 10
370.332
 20
205.347
 30
0.0
 40
0
 41
0
  0
VERTEX
  8
0
 10
370.04
 20
205.211
 30
0.0
 40
0
 41
0
  0
VERTEX
  8
0
 10
369.742
 20
205.09
 30
0.0
 40
0
 41
0
  0
VERTEX
  8
0
 10
369.436
 20
204.983
 30
0.0
 40
0
 41
0
  0
VERTEX
  8
0
 10
369.203
 20
204.913
 30
0.0
 40
0
 41
0
  0
VERTEX
  8
0
 10
369.124
 20
204.892
 30
0.0
 40
0
 41
0
  0
VERTEX
  8
0
 10
368.968
 20
204.85
 30
0.0
 40
0
 41
0
  0
VERTEX
  8
0
 10
368.49
 20
204.756
 30
0.0
 40
0
 41
0
  0
VERTEX
  8
0
 10
367.851
 20
204.682
 30
0.0
 40
0
 41
0
  0
VERTEX
  8
0
 10
367.21
 20
204.672
 30
0.0
 40
0
 41
0
  0
VERTEX
  8
0
 10
366.574
 20
204.725
 30
0.0
 40
0
 41
0
  0
VERTEX
  8
0
 10
365.944
 20
204.839
 30
0.0
 40
0
 41
0
  0
VERTEX
  8
0
 10
365.328
 20
205.014
 30
0.0
 40
0
 41
0
  0
VERTEX
  8
0
 10
364.729
 20
205.25
 30
0.0
 40
0
 41
0
  0
VERTEX
  8
0
 10
364.293
 20
205.465
 30
0.0
 40
0
 41
0
  0
VERTEX
  8
0
 10
364.153
 20
205.546
 30
0.0
 40
0
 41
0
  0
VERTEX
  8
0
 10
364.082
 20
205.587
 30
0.0
 40
0
 41
0
  0
VERTEX
  8
0
 10
363.875
 20
205.715
 30
0.0
 40
0
 41
0
  0
VERTEX
  8
0
 10
363.608
 20
205.897
 30
0.0
 40
0
 41
0
  0
VERTEX
  8
0
 10
363.35
 20
206.092
 30
0.0
 40
0
 41
0
  0
VERTEX
  8
0
 10
363.104
 20
206.299
 30
0.0
 40
0
 41
0
  0
VERTEX
  8
0
 10
362.868
 20
206.515
 30
0.0
 40
0
 41
0
  0
VERTEX
  8
0
 10
362.644
 20
206.744
 30
0.0
 40
0
 41
0
  0
VERTEX
  8
0
 10
362.431
 20
206.983
 30
0.0
 40
0
 41
0
  0
VERTEX
  8
0
 10
362.231
 20
207.232
 30
0.0
 40
0
 41
0
  0
VERTEX
  8
0
 10
362.042
 20
207.49
 30
0.0
 40
0
 41
0
  0
VERTEX
  8
0
 10
361.867
 20
207.757
 30
0.0
 40
0
 41
0
  0
VERTEX
  8
0
 10
361.704
 20
208.033
 30
0.0
 40
0
 41
0
  0
VERTEX
  8
0
 10
361.554
 20
208.317
 30
0.0
 40
0
 41
0
  0
VERTEX
  8
0
 10
361.419
 20
208.608
 30
0.0
 40
0
 41
0
  0
VERTEX
  8
0
 10
361.299
 20
208.907
 30
0.0
 40
0
 41
0
  0
VERTEX
  8
0
 10
361.192
 20
209.212
 30
0.0
 40
0
 41
0
  0
VERTEX
  8
0
 10
361.121
 20
209.446
 30
0.0
 40
0
 41
0
  0
VERTEX
  8
0
 10
361.1
 20
209.525
 30
0.0
 40
0
 41
0
  0
VERTEX
  8
0
 10
361.058
 20
209.681
 30
0.0
 40
0
 41
0
  0
VERTEX
  8
0
 10
360.963
 20
210.158
 30
0.0
 40
0
 41
0
  0
VERTEX
  8
0
 10
360.89
 20
210.799
 30
0.0
 40
0
 41
0
  0
VERTEX
  8
0
 10
360.881
 20
211.439
 30
0.0
 40
0
 41
0
  0
VERTEX
  8
0
 10
360.932
 20
212.075
 30
0.0
 40
0
 41
0
  0
VERTEX
  8
0
 10
361.047
 20
212.704
 30
0.0
 40
0
 41
0
  0
VERTEX
  8
0
 10
361.222
 20
213.321
 30
0.0
 40
0
 41
0
  0
VERTEX
  8
0
 10
361.458
 20
213.919
 30
0.0
 40
0
 41
0
  0
VERTEX
  8
0
 10
361.674
 20
214.356
 30
0.0
 40
0
 41
0
  0
VERTEX
  8
0
 10
361.754
 20
214.496
 30
0.0
 40
0
 41
0
  0
VERTEX
  8
0
 10
361.794
 20
214.567
 30
0.0
 40
0
 41
0
  0
VERTEX
  8
0
 10
361.924
 20
214.774
 30
0.0
 40
0
 41
0
  0
VERTEX
  8
0
 10
362.106
 20
215.042
 30
0.0
 40
0
 41
0
  0
VERTEX
  8
0
 10
362.3
 20
215.299
 30
0.0
 40
0
 41
0
  0
VERTEX
  8
0
 10
362.507
 20
215.544
 30
0.0
 40
0
 41
0
  0
VERTEX
  8
0
 10
362.724
 20
215.781
 30
0.0
 40
0
 41
0
  0
VERTEX
  8
0
 10
362.953
 20
216.006
 30
0.0
 40
0
 41
0
  0
VERTEX
  8
0
 10
363.192
 20
216.218
 30
0.0
 40
0
 41
0
  0
VERTEX
  8
0
 10
363.44
 20
216.418
 30
0.0
 40
0
 41
0
  0
VERTEX
  8
0
 10
363.699
 20
216.607
 30
0.0
 40
0
 41
0
  0
VERTEX
  8
0
 10
363.965
 20
216.782
 30
0.0
 40
0
 41
0
  0
VERTEX
  8
0
 10
364.242
 20
216.944
 30
0.0
 40
0
 41
0
  0
VERTEX
  8
0
 10
364.525
 20
217.094
 30
0.0
 40
0
 41
0
  0
VERTEX
  8
0
 10
364.817
 20
217.229
 30
0.0
 40
0
 41
0
  0
VERTEX
  8
0
 10
365.115
 20
217.35
 30
0.0
 40
0
 41
0
  0
VERTEX
  8
0
 10
365.421
 20
217.457
 30
0.0
 40
0
 41
0
  0
VERTEX
  8
0
 10
365.654
 20
217.528
 30
0.0
 40
0
 41
0
  0
VERTEX
  8
0
 10
365.733
 20
217.549
 30
0.0
 40
0
 41
0
  0
VERTEX
  8
0
 10
365.889
 20
217.592
 30
0.0
 40
0
 41
0
  0
VERTEX
  8
0
 10
366.367
 20
217.686
 30
0.0
 40
0
 41
0
  0
VERTEX
  8
0
 10
367.006
 20
217.758
 30
0.0
 40
0
 41
0
  0
VERTEX
  8
0
 10
367.647
 20
217.769
 30
0.0
 40
0
 41
0
  0
VERTEX
  8
0
 10
368.283
 20
217.717
 30
0.0
 40
0
 41
0
  0
VERTEX
  8
0
 10
368.912
 20
217.603
 30
0.0
 40
0
 41
0
  0
VERTEX
  8
0
 10
369.529
 20
217.426
 30
0.0
 40
0
 41
0
  0
VERTEX
  8
0
 10
370.128
 20
217.19
 30
0.0
 40
0
 41
0
  0
VERTEX
  8
0
 10
370.564
 20
216.975
 30
0.0
 40
0
 41
0
  0
VERTEX
  8
0
 10
370.704
 20
216.894
 30
0.0
 40
0
 41
0
  0
VERTEX
  8
0
 10
370.775
 20
216.854
 30
0.0
 40
0
 41
0
  0
VERTEX
  8
0
 10
370.982
 20
216.725
 30
0.0
 40
0
 41
0
  0
VERTEX
  8
0
 10
371.249
 20
216.543
 30
0.0
 40
0
 41
0
  0
VERTEX
  8
0
 10
371.507
 20
216.349
 30
0.0
 40
0
 41
0
  0
VERTEX
  8
0
 10
371.753
 20
216.143
 30
0.0
 40
0
 41
0
  0
VERTEX
  8
0
 10
371.989
 20
215.925
 30
0.0
 40
0
 41
0
  0
VERTEX
  8
0
 10
372.213
 20
215.697
 30
0.0
 40
0
 41
0
  0
VERTEX
  8
0
 10
372.426
 20
215.458
 30
0.0
 40
0
 41
0
  0
VERTEX
  8
0
 10
372.626
 20
215.21
 30
0.0
 40
0
 41
0
  0
VERTEX
  8
0
 10
372.815
 20
214.951
 30
0.0
 40
0
 41
0
  0
VERTEX
  8
0
 10
372.99
 20
214.683
 30
0.0
 40
0
 41
0
  0
VERTEX
  8
0
 10
373.153
 20
214.408
 30
0.0
 40
0
 41
0
  0
VERTEX
  8
0
 10
373.303
 20
214.124
 30
0.0
 40
0
 41
0
  0
VERTEX
  8
0
 10
373.438
 20
213.832
 30
0.0
 40
0
 41
0
  0
VERTEX
  8
0
 10
373.558
 20
213.533
 30
0.0
 40
0
 41
0
  0
VERTEX
  8
0
 10
373.665
 20
213.228
 30
0.0
 40
0
 41
0
  0
VERTEX
  8
0
 10
373.736
 20
212.994
 30
0.0
 40
0
 41
0
  0
VERTEX
  8
0
 10
373.757
 20
212.917
 30
0.0
 40
0
 41
0
  0
VERTEX
  8
0
 10
373.799
 20
212.76
 30
0.0
 40
0
 41
0
  0
VERTEX
  8
0
 10
373.894
 20
212.282
 30
0.0
 40
0
 41
0
  0
VERTEX
  8
0
 10
373.967
 20
211.643
 30
0.0
 40
0
 41
0
  0
VERTEX
  8
0
 10
373.976
 20
211.003
 30
0.0
 40
0
 41
0
  0
VERTEX
  8
0
 10
373.925
 20
210.365
 30
0.0
 40
0
 41
0
  0
VERTEX
  8
0
 10
373.81
 20
209.736
 30
0.0
 40
0
 41
0
  0
VERTEX
  8
0
 10
373.635
 20
209.119
 30
0.0
 40
0
 41
0
  0
VERTEX
  8
0
 10
373.399
 20
208.521
 30
0.0
 40
0
 41
0
  0
VERTEX
  8
0
 10
373.183
 20
208.085
 30
0.0
 40
0
 41
0
  0
VERTEX
  8
0
 10
373.103
 20
207.944
 30
0.0
 40
0
 41
0
  0
SEQEND
 8
0
  0
POLYLINE
  8
0
 62
     0
 66
     1
 10
0
 20
0
 30
0.0
 70
     1
 40
0
 41
0
  0
VERTEX
  8
0
 10
262.069
 20
144.688
 30
0.0
 40
0
 41
0
  0
VERTEX
  8
0
 10
262.029
 20
144.617
 30
0.0
 40
0
 41
0
  0
VERTEX
  8
0
 10
261.899
 20
144.407
 30
0.0
 40
0
 41
0
  0
VERTEX
  8
0
 10
261.714
 20
144.138
 30
0.0
 40
0
 41
0
  0
VERTEX
  8
0
 10
261.518
 20
143.876
 30
0.0
 40
0
 41
0
  0
VERTEX
  8
0
 10
261.31
 20
143.628
 30
0.0
 40
0
 41
0
  0
VERTEX
  8
0
 10
261.089
 20
143.389
 30
0.0
 40
0
 41
0
  0
VERTEX
  8
0
 10
260.858
 20
143.163
 30
0.0
 40
0
 41
0
  0
VERTEX
  8
0
 10
260.617
 20
142.947
 30
0.0
 40
0
 41
0
  0
VERTEX
  8
0
 10
260.365
 20
142.744
 30
0.0
 40
0
 41
0
  0
VERTEX
  8
0
 10
260.104
 20
142.554
 30
0.0
 40
0
 41
0
  0
VERTEX
  8
0
 10
259.835
 20
142.376
 30
0.0
 40
0
 41
0
  0
VERTEX
  8
0
 10
259.556
 20
142.212
 30
0.0
 40
0
 41
0
  0
VERTEX
  8
0
 10
259.268
 20
142.061
 30
0.0
 40
0
 41
0
  0
VERTEX
  8
0
 10
258.974
 20
141.925
 30
0.0
 40
0
 41
0
  0
VERTEX
  8
0
 10
258.672
 20
141.803
 30
0.0
 40
0
 41
0
  0
VERTEX
  8
0
 10
258.362
 20
141.694
 30
0.0
 40
0
 41
0
  0
VERTEX
  8
0
 10
258.126
 20
141.622
 30
0.0
 40
0
 41
0
  0
VERTEX
  8
0
 10
258.047
 20
141.601
 30
0.0
 40
0
 41
0
  0
VERTEX
  8
0
 10
257.889
 20
141.56
 30
0.0
 40
0
 41
0
  0
VERTEX
  8
0
 10
257.407
 20
141.464
 30
0.0
 40
0
 41
0
  0
VERTEX
  8
0
 10
256.76
 20
141.39
 30
0.0
 40
0
 41
0
  0
VERTEX
  8
0
 10
256.112
 20
141.379
 30
0.0
 40
0
 41
0
  0
VERTEX
  8
0
 10
255.468
 20
141.432
 30
0.0
 40
0
 41
0
  0
VERTEX
  8
0
 10
254.833
 20
141.549
 30
0.0
 40
0
 41
0
  0
VERTEX
  8
0
 10
254.21
 20
141.725
 30
0.0
 40
0
 41
0
  0
VERTEX
  8
0
 10
253.604
 20
141.964
 30
0.0
 40
0
 41
0
  0
VERTEX
  8
0
 10
253.162
 20
142.182
 30
0.0
 40
0
 41
0
  0
VERTEX
  8
0
 10
253.021
 20
142.264
 30
0.0
 40
0
 41
0
  0
VERTEX
  8
0
 10
252.95
 20
142.304
 30
0.0
 40
0
 41
0
  0
VERTEX
  8
0
 10
252.74
 20
142.435
 30
0.0
 40
0
 41
0
  0
VERTEX
  8
0
 10
252.471
 20
142.618
 30
0.0
 40
0
 41
0
  0
VERTEX
  8
0
 10
252.21
 20
142.815
 30
0.0
 40
0
 41
0
  0
VERTEX
  8
0
 10
251.961
 20
143.024
 30
0.0
 40
0
 41
0
  0
VERTEX
  8
0
 10
251.722
 20
143.243
 30
0.0
 40
0
 41
0
  0
VERTEX
  8
0
 10
251.496
 20
143.475
 30
0.0
 40
0
 41
0
  0
VERTEX
  8
0
 10
251.281
 20
143.715
 30
0.0
 40
0
 41
0
  0
VERTEX
  8
0
 10
251.078
 20
143.968
 30
0.0
 40
0
 41
0
  0
VERTEX
  8
0
 10
250.888
 20
144.228
 30
0.0
 40
0
 41
0
  0
VERTEX
  8
0
 10
250.71
 20
144.499
 30
0.0
 40
0
 41
0
  0
VERTEX
  8
0
 10
250.546
 20
144.778
 30
0.0
 40
0
 41
0
  0
VERTEX
  8
0
 10
250.394
 20
145.065
 30
0.0
 40
0
 41
0
  0
VERTEX
  8
0
 10
250.258
 20
145.36
 30
0.0
 40
0
 41
0
  0
VERTEX
  8
0
 10
250.136
 20
145.661
 30
0.0
 40
0
 41
0
  0
VERTEX
  8
0
 10
250.028
 20
145.971
 30
0.0
 40
0
 41
0
  0
VERTEX
  8
0
 10
249.956
 20
146.206
 30
0.0
 40
0
 41
0
  0
VERTEX
  8
0
 10
249.935
 20
146.285
 30
0.0
 40
0
 41
0
  0
VERTEX
  8
0
 10
249.893
 20
146.443
 30
0.0
 40
0
 41
0
  0
VERTEX
  8
0
 10
249.797
 20
146.926
 30
0.0
 40
0
 41
0
  0
VERTEX
  8
0
 10
249.722
 20
147.572
 30
0.0
 40
0
 41
0
  0
VERTEX
  8
0
 10
249.713
 20
148.221
 30
0.0
 40
0
 41
0
  0
VERTEX
  8
0
 10
249.765
 20
148.864
 30
0.0
 40
0
 41
0
  0
VERTEX
  8
0
 10
249.882
 20
149.5
 30
0.0
 40
0
 41
0
  0
VERTEX
  8
0
 10
250.058
 20
150.124
 30
0.0
 40
0
 41
0
  0
VERTEX
  8
0
 10
250.297
 20
150.729
 30
0.0
 40
0
 41
0
  0
VERTEX
  8
0
 10
250.515
 20
151.169
 30
0.0
 40
0
 41
0
  0
VERTEX
  8
0
 10
250.597
 20
151.311
 30
0.0
 40
0
 41
0
  0
VERTEX
  8
0
 10
250.638
 20
151.383
 30
0.0
 40
0
 41
0
  0
VERTEX
  8
0
 10
250.768
 20
151.592
 30
0.0
 40
0
 41
0
  0
VERTEX
  8
0
 10
250.951
 20
151.862
 30
0.0
 40
0
 41
0
  0
VERTEX
  8
0
 10
251.149
 20
152.122
 30
0.0
 40
0
 41
0
  0
VERTEX
  8
0
 10
251.357
 20
152.372
 30
0.0
 40
0
 41
0
  0
VERTEX
  8
0
 10
251.576
 20
152.61
 30
0.0
 40
0
 41
0
  0
VERTEX
  8
0
 10
251.808
 20
152.837
 30
0.0
 40
0
 41
0
  0
VERTEX
  8
0
 10
252.049
 20
153.053
 30
0.0
 40
0
 41
0
  0
VERTEX
  8
0
 10
252.3
 20
153.256
 30
0.0
 40
0
 41
0
  0
VERTEX
  8
0
 10
252.561
 20
153.446
 30
0.0
 40
0
 41
0
  0
VERTEX
  8
0
 10
252.832
 20
153.624
 30
0.0
 40
0
 41
0
  0
VERTEX
  8
0
 10
253.111
 20
153.788
 30
0.0
 40
0
 41
0
  0
VERTEX
  8
0
 10
253.397
 20
153.938
 30
0.0
 40
0
 41
0
  0
VERTEX
  8
0
 10
253.693
 20
154.075
 30
0.0
 40
0
 41
0
  0
VERTEX
  8
0
 10
253.994
 20
154.197
 30
0.0
 40
0
 41
0
  0
VERTEX
  8
0
 10
254.304
 20
154.306
 30
0.0
 40
0
 41
0
  0
VERTEX
  8
0
 10
254.539
 20
154.376
 30
0.0
 40
0
 41
0
  0
VERTEX
  8
0
 10
254.618
 20
154.399
 30
0.0
 40
0
 41
0
  0
VERTEX
  8
0
 10
254.776
 20
154.44
 30
0.0
 40
0
 41
0
  0
VERTEX
  8
0
 10
255.26
 20
154.536
 30
0.0
 40
0
 41
0
  0
VERTEX
  8
0
 10
255.906
 20
154.61
 30
0.0
 40
0
 41
0
  0
VERTEX
  8
0
 10
256.554
 20
154.621
 30
0.0
 40
0
 41
0
  0
VERTEX
  8
0
 10
257.197
 20
154.567
 30
0.0
 40
0
 41
0
  0
VERTEX
  8
0
 10
257.833
 20
154.451
 30
0.0
 40
0
 41
0
  0
VERTEX
  8
0
 10
258.457
 20
154.275
 30
0.0
 40
0
 41
0
  0
VERTEX
  8
0
 10
259.063
 20
154.036
 30
0.0
 40
0
 41
0
  0
VERTEX
  8
0
 10
259.503
 20
153.818
 30
0.0
 40
0
 41
0
  0
VERTEX
  8
0
 10
259.644
 20
153.736
 30
0.0
 40
0
 41
0
  0
VERTEX
  8
0
 10
259.717
 20
153.696
 30
0.0
 40
0
 41
0
  0
VERTEX
  8
0
 10
259.925
 20
153.565
 30
0.0
 40
0
 41
0
  0
VERTEX
  8
0
 10
260.196
 20
153.381
 30
0.0
 40
0
 41
0
  0
VERTEX
  8
0
 10
260.456
 20
153.185
 30
0.0
 40
0
 41
0
  0
VERTEX
  8
0
 10
260.706
 20
152.976
 30
0.0
 40
0
 41
0
  0
VERTEX
  8
0
 10
260.943
 20
152.756
 30
0.0
 40
0
 41
0
  0
VERTEX
  8
0
 10
261.171
 20
152.525
 30
0.0
 40
0
 41
0
  0
VERTEX
  8
0
 10
261.385
 20
152.283
 30
0.0
 40
0
 41
0
  0
VERTEX
  8
0
 10
261.589
 20
152.032
 30
0.0
 40
0
 41
0
  0
VERTEX
  8
0
 10
261.779
 20
151.771
 30
0.0
 40
0
 41
0
  0
VERTEX
  8
0
 10
261.956
 20
151.501
 30
0.0
 40
0
 41
0
  0
VERTEX
  8
0
 10
262.121
 20
151.222
 30
0.0
 40
0
 41
0
  0
VERTEX
  8
0
 10
262.271
 20
150.935
 30
0.0
 40
0
 41
0
  0
VERTEX
  8
0
 10
262.408
 20
150.64
 30
0.0
 40
0
 41
0
  0
VERTEX
  8
0
 10
262.531
 20
150.339
 30
0.0
 40
0
 41
0
  0
VERTEX
  8
0
 10
262.639
 20
150.029
 30
0.0
 40
0
 41
0
  0
VERTEX
  8
0
 10
262.71
 20
149.793
 30
0.0
 40
0
 41
0
  0
VERTEX
  8
0
 10
262.732
 20
149.714
 30
0.0
 40
0
 41
0
  0
VERTEX
  8
0
 10
262.774
 20
149.556
 30
0.0
 40
0
 41
0
  0
VERTEX
  8
0
 10
262.869
 20
149.074
 30
0.0
 40
0
 41
0
  0
VERTEX
  8
0
 10
262.943
 20
148.426
 30
0.0
 40
0
 41
0
  0
VERTEX
  8
0
 10
262.953
 20
147.779
 30
0.0
 40
0
 41
0
  0
VERTEX
  8
0
 10
262.9
 20
147.135
 30
0.0
 40
0
 41
0
  0
VERTEX
  8
0
 10
262.785
 20
146.5
 30
0.0
 40
0
 41
0
  0
VERTEX
  8
0
 10
262.607
 20
145.876
 30
0.0
 40
0
 41
0
  0
VERTEX
  8
0
 10
262.369
 20
145.271
 30
0.0
 40
0
 41
0
  0
VERTEX
  8
0
 10
262.151
 20
144.829
 30
0.0
 40
0
 41
0
  0
VERTEX
  8
0
 10
262.069
 20
144.688
 30
0.0
 40
0
 41
0
  0
SEQEND
 8
0
  0
POLYLINE
  8
0
 62
     0
 66
     1
 10
0
 20
0
 30
0.0
 70
     1
 40
0
 41
0
  0
VERTEX
  8
0
 10
338.171
 20
21.9122
 30
0.0
 40
0
 41
0
  0
VERTEX
  8
0
 10
338.487
 20
21.7294
 30
0.0
 40
0
 41
0
  0
VERTEX
  8
0
 10
339.457
 20
21.2154
 30
0.0
 40
0
 41
0
  0
VERTEX
  8
0
 10
340.772
 20
20.5924
 30
0.0
 40
0
 41
0
  0
VERTEX
  8
0
 10
342.112
 20
20.0432
 30
0.0
 40
0
 41
0
  0
VERTEX
  8
0
 10
343.476
 20
19.5685
 30
0.0
 40
0
 41
0
  0
VERTEX
  8
0
 10
344.86
 20
19.1682
 30
0.0
 40
0
 41
0
  0
VERTEX
  8
0
 10
346.258
 20
18.8429
 30
0.0
 40
0
 41
0
  0
VERTEX
  8
0
 10
347.672
 20
18.5928
 30
0.0
 40
0
 41
0
  0
VERTEX
  8
0
 10
349.094
 20
18.4181
 30
0.0
 40
0
 41
0
  0
VERTEX
  8
0
 10
350.525
 20
18.3192
 30
0.0
 40
0
 41
0
  0
VERTEX
  8
0
 10
351.96
 20
18.2964
 30
0.0
 40
0
 41
0
  0
VERTEX
  8
0
 10
353.396
 20
18.35
 30
0.0
 40
0
 41
0
  0
VERTEX
  8
0
 10
354.831
 20
18.4801
 30
0.0
 40
0
 41
0
  0
VERTEX
  8
0
 10
356.258
 20
18.6872
 30
0.0
 40
0
 41
0
  0
VERTEX
  8
0
 10
357.679
 20
18.9717
 30
0.0
 40
0
 41
0
  0
VERTEX
  8
0
 10
359.089
 20
19.3336
 30
0.0
 40
0
 41
0
  0
VERTEX
  8
0
 10
360.138
 20
19.6542
 30
0.0
 40
0
 41
0
  0
VERTEX
  8
0
 10
360.483
 20
19.7735
 30
0.0
 40
0
 41
0
  0
VERTEX
  8
0
 10
543.579
 20
82.994
 30
0.0
 40
0
 41
0
  0
VERTEX
  8
0
 10
543.768
 20
83.0596
 30
0.0
 40
0
 41
0
  0
VERTEX
  8
0
 10
544.335
 20
83.2674
 30
0.0
 40
0
 41
0
  0
VERTEX
  8
0
 10
545.079
 20
83.5621
 30
0.0
 40
0
 41
0
  0
VERTEX
  8
0
 10
545.811
 20
83.8778
 30
0.0
 40
0
 41
0
  0
VERTEX
  8
0
 10
546.533
 20
84.2139
 30
0.0
 40
0
 41
0
  0
VERTEX
  8
0
 10
547.242
 20
84.5701
 30
0.0
 40
0
 41
0
  0
VERTEX
  8
0
 10
547.939
 20
84.9464
 30
0.0
 40
0
 41
0
  0
VERTEX
  8
0
 10
548.624
 20
85.3419
 30
0.0
 40
0
 41
0
  0
VERTEX
  8
0
 10
549.294
 20
85.7565
 30
0.0
 40
0
 41
0
  0
VERTEX
  8
0
 10
549.951
 20
86.19
 30
0.0
 40
0
 41
0
  0
VERTEX
  8
0
 10
550.596
 20
86.6417
 30
0.0
 40
0
 41
0
  0
VERTEX
  8
0
 10
551.225
 20
87.1114
 30
0.0
 40
0
 41
0
  0
VERTEX
  8
0
 10
551.84
 20
87.5987
 30
0.0
 40
0
 41
0
  0
VERTEX
  8
0
 10
552.44
 20
88.1035
 30
0.0
 40
0
 41
0
  0
VERTEX
  8
0
 10
553.025
 20
88.6249
 30
0.0
 40
0
 41
0
  0
VERTEX
  8
0
 10
553.594
 20
89.1629
 30
0.0
 40
0
 41
0
  0
VERTEX
  8
0
 10
554.147
 20
89.7171
 30
0.0
 40
0
 41
0
  0
VERTEX
  8
0
 10
554.685
 20
90.2872
 30
0.0
 40
0
 41
0
  0
VERTEX
  8
0
 10
555.206
 20
90.8726
 30
0.0
 40
0
 41
0
  0
VERTEX
  8
0
 10
555.708
 20
91.4732
 30
0.0
 40
0
 41
0
  0
VERTEX
  8
0
 10
556.194
 20
92.0883
 30
0.0
 40
0
 41
0
  0
VERTEX
  8
0
 10
556.662
 20
92.7179
 30
0.0
 40
0
 41
0
  0
VERTEX
  8
0
 10
557.113
 20
93.3615
 30
0.0
 40
0
 41
0
  0
VERTEX
  8
0
 10
557.544
 20
94.0188
 30
0.0
 40
0
 41
0
  0
VERTEX
  8
0
 10
557.958
 20
94.6892
 30
0.0
 40
0
 41
0
  0
VERTEX
  8
0
 10
558.351
 20
95.3725
 30
0.0
 40
0
 41
0
  0
VERTEX
  8
0
 10
558.726
 20
96.0683
 30
0.0
 40
0
 41
0
  0
VERTEX
  8
0
 10
559.082
 20
96.7763
 30
0.0
 40
0
 41
0
  0
VERTEX
  8
0
 10
559.415
 20
97.4961
 30
0.0
 40
0
 41
0
  0
VERTEX
  8
0
 10
559.729
 20
98.2274
 30
0.0
 40
0
 41
0
  0
VERTEX
  8
0
 10
560.022
 20
98.9697
 30
0.0
 40
0
 41
0
  0
VERTEX
  8
0
 10
560.294
 20
99.7228
 30
0.0
 40
0
 41
0
  0
VERTEX
  8
0
 10
560.485
 20
100.294
 30
0.0
 40
0
 41
0
  0
VERTEX
  8
0
 10
560.544
 20
100.486
 30
0.0
 40
0
 41
0
  0
VERTEX
  8
0
 10
560.604
 20
100.678
 30
0.0
 40
0
 41
0
  0
VERTEX
  8
0
 10
560.772
 20
101.257
 30
0.0
 40
0
 41
0
  0
VERTEX
  8
0
 10
560.976
 20
102.031
 30
0.0
 40
0
 41
0
  0
VERTEX
  8
0
 10
561.157
 20
102.808
 30
0.0
 40
0
 41
0
  0
VERTEX
  8
0
 10
561.314
 20
103.588
 30
0.0
 40
0
 41
0
  0
VERTEX
  8
0
 10
561.447
 20
104.371
 30
0.0
 40
0
 41
0
  0
VERTEX
  8
0
 10
561.557
 20
105.155
 30
0.0
 40
0
 41
0
  0
VERTEX
  8
0
 10
561.643
 20
105.941
 30
0.0
 40
0
 41
0
  0
VERTEX
  8
0
 10
561.707
 20
106.727
 30
0.0
 40
0
 41
0
  0
VERTEX
  8
0
 10
561.749
 20
107.513
 30
0.0
 40
0
 41
0
  0
VERTEX
  8
0
 10
561.765
 20
108.299
 30
0.0
 40
0
 41
0
  0
VERTEX
  8
0
 10
561.761
 20
109.085
 30
0.0
 40
0
 41
0
  0
VERTEX
  8
0
 10
561.733
 20
109.869
 30
0.0
 40
0
 41
0
  0
VERTEX
  8
0
 10
561.682
 20
110.651
 30
0.0
 40
0
 41
0
  0
VERTEX
  8
0
 10
561.608
 20
111.432
 30
0.0
 40
0
 41
0
  0
VERTEX
  8
0
 10
561.512
 20
112.209
 30
0.0
 40
0
 41
0
  0
VERTEX
  8
0
 10
561.394
 20
112.983
 30
0.0
 40
0
 41
0
  0
VERTEX
  8
0
 10
561.254
 20
113.754
 30
0.0
 40
0
 41
0
  0
VERTEX
  8
0
 10
561.09
 20
114.52
 30
0.0
 40
0
 41
0
  0
VERTEX
  8
0
 10
560.906
 20
115.281
 30
0.0
 40
0
 41
0
  0
VERTEX
  8
0
 10
560.697
 20
116.037
 30
0.0
 40
0
 41
0
  0
VERTEX
  8
0
 10
560.468
 20
116.788
 30
0.0
 40
0
 41
0
  0
VERTEX
  8
0
 10
560.217
 20
117.532
 30
0.0
 40
0
 41
0
  0
VERTEX
  8
0
 10
559.943
 20
118.269
 30
0.0
 40
0
 41
0
  0
VERTEX
  8
0
 10
559.649
 20
118.999
 30
0.0
 40
0
 41
0
  0
VERTEX
  8
0
 10
559.332
 20
119.722
 30
0.0
 40
0
 41
0
  0
VERTEX
  8
0
 10
558.993
 20
120.436
 30
0.0
 40
0
 41
0
  0
VERTEX
  8
0
 10
558.633
 20
121.141
 30
0.0
 40
0
 41
0
  0
VERTEX
  8
0
 10
558.251
 20
121.837
 30
0.0
 40
0
 41
0
  0
VERTEX
  8
0
 10
557.849
 20
122.523
 30
0.0
 40
0
 41
0
  0
VERTEX
  8
0
 10
557.425
 20
123.199
 30
0.0
 40
0
 41
0
  0
VERTEX
  8
0
 10
556.979
 20
123.865
 30
0.0
 40
0
 41
0
  0
VERTEX
  8
0
 10
556.632
 20
124.357
 30
0.0
 40
0
 41
0
  0
VERTEX
  8
0
 10
556.512
 20
124.519
 30
0.0
 40
0
 41
0
  0
VERTEX
  8
0
 10
556.393
 20
124.68
 30
0.0
 40
0
 41
0
  0
VERTEX
  8
0
 10
556.026
 20
125.159
 30
0.0
 40
0
 41
0
  0
VERTEX
  8
0
 10
555.524
 20
125.782
 30
0.0
 40
0
 41
0
  0
VERTEX
  8
0
 10
555.006
 20
126.388
 30
0.0
 40
0
 41
0
  0
VERTEX
  8
0
 10
554.469
 20
126.976
 30
0.0
 40
0
 41
0
  0
VERTEX
  8
0
 10
553.918
 20
127.548
 30
0.0
 40
0
 41
0
  0
VERTEX
  8
0
 10
553.351
 20
128.101
 30
0.0
 40
0
 41
0
  0
VERTEX
  8
0
 10
552.771
 20
128.637
 30
0.0
 40
0
 41
0
  0
VERTEX
  8
0
 10
552.175
 20
129.154
 30
0.0
 40
0
 41
0
  0
VERTEX
  8
0
 10
551.567
 20
129.653
 30
0.0
 40
0
 41
0
  0
VERTEX
  8
0
 10
550.943
 20
130.133
 30
0.0
 40
0
 41
0
  0
VERTEX
  8
0
 10
550.308
 20
130.594
 30
0.0
 40
0
 41
0
  0
VERTEX
  8
0
 10
549.66
 20
131.037
 30
0.0
 40
0
 41
0
  0
VERTEX
  8
0
 10
548.999
 20
131.46
 30
0.0
 40
0
 41
0
  0
VERTEX
  8
0
 10
548.328
 20
131.863
 30
0.0
 40
0
 41
0
  0
VERTEX
  8
0
 10
547.644
 20
132.247
 30
0.0
 40
0
 41
0
  0
VERTEX
  8
0
 10
546.951
 20
132.61
 30
0.0
 40
0
 41
0
  0
VERTEX
  8
0
 10
546.247
 20
132.953
 30
0.0
 40
0
 41
0
  0
VERTEX
  8
0
 10
545.533
 20
133.276
 30
0.0
 40
0
 41
0
  0
VERTEX
  8
0
 10
544.81
 20
133.578
 30
0.0
 40
0
 41
0
  0
VERTEX
  8
0
 10
544.078
 20
133.859
 30
0.0
 40
0
 41
0
  0
VERTEX
  8
0
 10
543.338
 20
134.119
 30
0.0
 40
0
 41
0
  0
VERTEX
  8
0
 10
542.589
 20
134.358
 30
0.0
 40
0
 41
0
  0
VERTEX
  8
0
 10
541.833
 20
134.575
 30
0.0
 40
0
 41
0
  0
VERTEX
  8
0
 10
541.071
 20
134.77
 30
0.0
 40
0
 41
0
  0
VERTEX
  8
0
 10
540.301
 20
134.943
 30
0.0
 40
0
 41
0
  0
VERTEX
  8
0
 10
539.525
 20
135.093
 30
0.0
 40
0
 41
0
  0
VERTEX
  8
0
 10
538.743
 20
135.221
 30
0.0
 40
0
 41
0
  0
VERTEX
  8
0
 10
537.957
 20
135.327
 30
0.0
 40
0
 41
0
  0
VERTEX
  8
0
 10
537.165
 20
135.409
 30
0.0
 40
0
 41
0
  0
VERTEX
  8
0
 10
536.369
 20
135.468
 30
0.0
 40
0
 41
0
  0
VERTEX
  8
0
 10
535.569
 20
135.504
 30
0.0
 40
0
 41
0
  0
VERTEX
  8
0
 10
534.967
 20
135.515
 30
0.0
 40
0
 41
0
  0
VERTEX
  8
0
 10
534.767
 20
135.515
 30
0.0
 40
0
 41
0
  0
VERTEX
  8
0
 10
426.767
 20
135.515
 30
0.0
 40
0
 41
0
  0
VERTEX
  8
0
 10
426.436
 20
135.515
 30
0.0
 40
0
 41
0
  0
VERTEX
  8
0
 10
425.447
 20
135.483
 30
0.0
 40
0
 41
0
  0
VERTEX
  8
0
 10
424.132
 20
135.387
 30
0.0
 40
0
 41
0
  0
VERTEX
  8
0
 10
422.822
 20
135.226
 30
0.0
 40
0
 41
0
  0
VERTEX
  8
0
 10
421.844
 20
135.065
 30
0.0
 40
0
 41
0
  0
VERTEX
  8
0
 10
421.521
 20
135.001
 30
0.0
 40
0
 41
0
  0
VERTEX
  8
0
 10
284.072
 20
107.781
 30
0.0
 40
0
 41
0
  0
VERTEX
  8
0
 10
283.903
 20
107.747
 30
0.0
 40
0
 41
0
  0
VERTEX
  8
0
 10
283.397
 20
107.638
 30
0.0
 40
0
 41
0
  0
VERTEX
  8
0
 10
282.728
 20
107.478
 30
0.0
 40
0
 41
0
  0
VERTEX
  8
0
 10
282.064
 20
107.302
 30
0.0
 40
0
 41
0
  0
VERTEX
  8
0
 10
281.407
 20
107.11
 30
0.0
 40
0
 41
0
  0
VERTEX
  8
0
 10
280.756
 20
106.902
 30
0.0
 40
0
 41
0
  0
VERTEX
  8
0
 10
280.111
 20
106.677
 30
0.0
 40
0
 41
0
  0
VERTEX
  8
0
 10
279.474
 20
106.437
 30
0.0
 40
0
 41
0
  0
VERTEX
  8
0
 10
278.843
 20
106.181
 30
0.0
 40
0
 41
0
  0
VERTEX
  8
0
 10
278.219
 20
105.909
 30
0.0
 40
0
 41
0
  0
VERTEX
  8
0
 10
277.604
 20
105.622
 30
0.0
 40
0
 41
0
  0
VERTEX
  8
0
 10
276.997
 20
105.32
 30
0.0
 40
0
 41
0
  0
VERTEX
  8
0
 10
276.397
 20
105.003
 30
0.0
 40
0
 41
0
  0
VERTEX
  8
0
 10
275.807
 20
104.672
 30
0.0
 40
0
 41
0
  0
VERTEX
  8
0
 10
275.225
 20
104.326
 30
0.0
 40
0
 41
0
  0
VERTEX
  8
0
 10
274.653
 20
103.965
 30
0.0
 40
0
 41
0
  0
VERTEX
  8
0
 10
274.089
 20
103.59
 30
0.0
 40
0
 41
0
  0
VERTEX
  8
0
 10
273.535
 20
103.202
 30
0.0
 40
0
 41
0
  0
VERTEX
  8
0
 10
272.99
 20
102.799
 30
0.0
 40
0
 41
0
  0
VERTEX
  8
0
 10
272.456
 20
102.383
 30
0.0
 40
0
 41
0
  0
VERTEX
  8
0
 10
271.932
 20
101.953
 30
0.0
 40
0
 41
0
  0
VERTEX
  8
0
 10
271.419
 20
101.51
 30
0.0
 40
0
 41
0
  0
VERTEX
  8
0
 10
270.917
 20
101.054
 30
0.0
 40
0
 41
0
  0
VERTEX
  8
0
 10
270.426
 20
100.585
 30
0.0
 40
0
 41
0
  0
VERTEX
  8
0
 10
269.946
 20
100.104
 30
0.0
 40
0
 41
0
  0
VERTEX
  8
0
 10
269.478
 20
99.6094
 30
0.0
 40
0
 41
0
  0
VERTEX
  8
0
 10
269.022
 20
99.1029
 30
0.0
 40
0
 41
0
  0
VERTEX
  8
0
 10
268.579
 20
98.5843
 30
0.0
 40
0
 41
0
  0
VERTEX
  8
0
 10
268.147
 20
98.0536
 30
0.0
 40
0
 41
0
  0
VERTEX
  8
0
 10
267.729
 20
97.5111
 30
0.0
 40
0
 41
0
  0
VERTEX
  8
0
 10
267.324
 20
96.9571
 30
0.0
 40
0
 41
0
  0
VERTEX
  8
0
 10
266.932
 20
96.3915
 30
0.0
 40
0
 41
0
  0
VERTEX
  8
0
 10
266.647
 20
95.9601
 30
0.0
 40
0
 41
0
  0
VERTEX
  8
0
 10
266.554
 20
95.8147
 30
0.0
 40
0
 41
0
  0
VERTEX
  8
0
 10
266.369
 20
95.5244
 30
0.0
 40
0
 41
0
  0
VERTEX
  8
0
 10
265.843
 20
94.6346
 30
0.0
 40
0
 41
0
  0
VERTEX
  8
0
 10
265.196
 20
93.4254
 30
0.0
 40
0
 41
0
  0
VERTEX
  8
0
 10
264.612
 20
92.1899
 30
0.0
 40
0
 41
0
  0
VERTEX
  8
0
 10
264.094
 20
90.9303
 30
0.0
 40
0
 41
0
  0
VERTEX
  8
0
 10
263.642
 20
89.6494
 30
0.0
 40
0
 41
0
  0
VERTEX
  8
0
 10
263.256
 20
88.3497
 30
0.0
 40
0
 41
0
  0
VERTEX
  8
0
 10
262.935
 20
87.0338
 30
0.0
 40
0
 41
0
  0
VERTEX
  8
0
 10
262.679
 20
85.7043
 30
0.0
 40
0
 41
0
  0
VERTEX
  8
0
 10
262.492
 20
84.3636
 30
0.0
 40
0
 41
0
  0
VERTEX
  8
0
 10
262.372
 20
83.0144
 30
0.0
 40
0
 41
0
  0
VERTEX
  8
0
 10
262.319
 20
81.6594
 30
0.0
 40
0
 41
0
  0
VERTEX
  8
0
 10
262.336
 20
80.3008
 30
0.0
 40
0
 41
0
  0
VERTEX
  8
0
 10
262.419
 20
78.9417
 30
0.0
 40
0
 41
0
  0
VERTEX
  8
0
 10
262.574
 20
77.5842
 30
0.0
 40
0
 41
0
  0
VERTEX
  8
0
 10
262.796
 20
76.231
 30
0.0
 40
0
 41
0
  0
VERTEX
  8
0
 10
263.007
 20
75.2192
 30
0.0
 40
0
 41
0
  0
VERTEX
  8
0
 10
263.089
 20
74.8847
 30
0.0
 40
0
 41
0
  0
VERTEX
  8
0
 10
263.131
 20
74.7172
 30
0.0
 40
0
 41
0
  0
VERTEX
  8
0
 10
263.261
 20
74.2168
 30
0.0
 40
0
 41
0
  0
VERTEX
  8
0
 10
263.45
 20
73.555
 30
0.0
 40
0
 41
0
  0
VERTEX
  8
0
 10
263.656
 20
72.9
 30
0.0
 40
0
 41
0
  0
VERTEX
  8
0
 10
263.876
 20
72.2517
 30
0.0
 40
0
 41
0
  0
VERTEX
  8
0
 10
264.114
 20
71.6104
 30
0.0
 40
0
 41
0
  0
VERTEX
  8
0
 10
264.367
 20
70.9764
 30
0.0
 40
0
 41
0
  0
VERTEX
  8
0
 10
264.635
 20
70.35
 30
0.0
 40
0
 41
0
  0
VERTEX
  8
0
 10
264.919
 20
69.7314
 30
0.0
 40
0
 41
0
  0
VERTEX
  8
0
 10
265.218
 20
69.1208
 30
0.0
 40
0
 41
0
  0
VERTEX
  8
0
 10
265.532
 20
68.5188
 30
0.0
 40
0
 41
0
  0
VERTEX
  8
0
 10
265.86
 20
67.9253
 30
0.0
 40
0
 41
0
  0
VERTEX
  8
0
 10
266.203
 20
67.3406
 30
0.0
 40
0
 41
0
  0
VERTEX
  8
0
 10
266.56
 20
66.7651
 30
0.0
 40
0
 41
0
  0
VERTEX
  8
0
 10
266.932
 20
66.199
 30
0.0
 40
0
 41
0
  0
VERTEX
  8
0
 10
267.317
 20
65.6425
 30
0.0
 40
0
 41
0
  0
VERTEX
  8
0
 10
267.717
 20
65.096
 30
0.0
 40
0
 41
0
  0
VERTEX
  8
0
 10
268.129
 20
64.5596
 30
0.0
 40
0
 41
0
  0
VERTEX
  8
0
 10
268.556
 20
64.0338
 30
0.0
 40
0
 41
0
  0
VERTEX
  8
0
 10
268.994
 20
63.5185
 30
0.0
 40
0
 41
0
  0
VERTEX
  8
0
 10
269.447
 20
63.0142
 30
0.0
 40
0
 41
0
  0
VERTEX
  8
0
 10
269.912
 20
62.5211
 30
0.0
 40
0
 41
0
  0
VERTEX
  8
0
 10
270.39
 20
62.0396
 30
0.0
 40
0
 41
0
  0
VERTEX
  8
0
 10
270.881
 20
61.5697
 30
0.0
 40
0
 41
0
  0
VERTEX
  8
0
 10
271.383
 20
61.1118
 30
0.0
 40
0
 41
0
  0
VERTEX
  8
0
 10
271.897
 20
60.6663
 30
0.0
 40
0
 41
0
  0
VERTEX
  8
0
 10
272.424
 20
60.2332
 30
0.0
 40
0
 41
0
  0
VERTEX
  8
0
 10
272.961
 20
59.8129
 30
0.0
 40
0
 41
0
  0
VERTEX
  8
0
 10
273.51
 20
59.4056
 30
0.0
 40
0
 41
0
  0
VERTEX
  8
0
 10
274.071
 20
59.0117
 30
0.0
 40
0
 41
0
  0
VERTEX
  8
0
 10
274.642
 20
58.6313
 30
0.0
 40
0
 41
0
  0
VERTEX
  8
0
 10
275.225
 20
58.2647
 30
0.0
 40
0
 41
0
  0
VERTEX
  8
0
 10
275.668
 20
57.9983
 30
0.0
 40
0
 41
0
  0
VERTEX
  8
0
 10
275.818
 20
57.9122
 30
0.0
 40
0
 41
0
  0
VERTEX
  8
0
 10
338.171
 20
21.9122
 30
0.0
 40
0
 41
0
  0
SEQEND
 8
0
  0
POLYLINE
  8
0
 62
     0
 66
     1
 10
0
 20
0
 30
0.0
 70
     1
 40
0
 41
0
  0
VERTEX
  8
0
 10
529.031
 20
111.828
 30
0.0
 40
0
 41
0
  0
VERTEX
  8
0
 10
529.071
 20
111.899
 30
0.0
 40
0
 41
0
  0
VERTEX
  8
0
 10
529.201
 20
112.108
 30
0.0
 40
0
 41
0
  0
VERTEX
  8
0
 10
529.385
 20
112.378
 30
0.0
 40
0
 41
0
  0
VERTEX
  8
0
 10
529.582
 20
112.638
 30
0.0
 40
0
 41
0
  0
VERTEX
  8
0
 10
529.79
 20
112.888
 30
0.0
 40
0
 41
0
  0
VERTEX
  8
0
 10
530.01
 20
113.126
 30
0.0
 40
0
 41
0
  0
VERTEX
  8
0
 10
530.242
 20
113.353
 30
0.0
 40
0
 41
0
  0
VERTEX
  8
0
 10
530.482
 20
113.568
 30
0.0
 40
0
 41
0
  0
VERTEX
  8
0
 10
530.735
 20
113.771
 30
0.0
 40
0
 41
0
  0
VERTEX
  8
0
 10
530.994
 20
113.961
 30
0.0
 40
0
 41
0
  0
VERTEX
  8
0
 10
531.265
 20
114.139
 30
0.0
 40
0
 41
0
  0
VERTEX
  8
0
 10
531.544
 20
114.303
 30
0.0
 40
0
 41
0
  0
VERTEX
  8
0
 10
531.831
 20
114.454
 30
0.0
 40
0
 41
0
  0
VERTEX
  8
0
 10
532.126
 20
114.591
 30
0.0
 40
0
 41
0
  0
VERTEX
  8
0
 10
532.428
 20
114.713
 30
0.0
 40
0
 41
0
  0
VERTEX
  8
0
 10
532.738
 20
114.821
 30
0.0
 40
0
 41
0
  0
VERTEX
  8
0
 10
532.972
 20
114.892
 30
0.0
 40
0
 41
0
  0
VERTEX
  8
0
 10
533.053
 20
114.914
 30
0.0
 40
0
 41
0
  0
VERTEX
  8
0
 10
533.21
 20
114.956
 30
0.0
 40
0
 41
0
  0
VERTEX
  8
0
 10
533.693
 20
115.052
 30
0.0
 40
0
 41
0
  0
VERTEX
  8
0
 10
534.339
 20
115.126
 30
0.0
 40
0
 41
0
  0
VERTEX
  8
0
 10
534.988
 20
115.136
 30
0.0
 40
0
 41
0
  0
VERTEX
  8
0
 10
535.631
 20
115.083
 30
0.0
 40
0
 41
0
  0
VERTEX
  8
0
 10
536.267
 20
114.967
 30
0.0
 40
0
 41
0
  0
VERTEX
  8
0
 10
536.89
 20
114.79
 30
0.0
 40
0
 41
0
  0
VERTEX
  8
0
 10
537.496
 20
114.551
 30
0.0
 40
0
 41
0
  0
VERTEX
  8
0
 10
537.936
 20
114.334
 30
0.0
 40
0
 41
0
  0
VERTEX
  8
0
 10
538.079
 20
114.252
 30
0.0
 40
0
 41
0
  0
VERTEX
  8
0
 10
538.15
 20
114.211
 30
0.0
 40
0
 41
0
  0
VERTEX
  8
0
 10
538.358
 20
114.081
 30
0.0
 40
0
 41
0
  0
VERTEX
  8
0
 10
538.629
 20
113.897
 30
0.0
 40
0
 41
0
  0
VERTEX
  8
0
 10
538.889
 20
113.7
 30
0.0
 40
0
 41
0
  0
VERTEX
  8
0
 10
539.139
 20
113.492
 30
0.0
 40
0
 41
0
  0
VERTEX
  8
0
 10
539.376
 20
113.272
 30
0.0
 40
0
 41
0
  0
VERTEX
  8
0
 10
539.604
 20
113.041
 30
0.0
 40
0
 41
0
  0
VERTEX
  8
0
 10
539.818
 20
112.799
 30
0.0
 40
0
 41
0
  0
VERTEX
  8
0
 10
540.022
 20
112.548
 30
0.0
 40
0
 41
0
  0
VERTEX
  8
0
 10
540.213
 20
112.287
 30
0.0
 40
0
 41
0
  0
VERTEX
  8
0
 10
540.39
 20
112.017
 30
0.0
 40
0
 41
0
  0
VERTEX
  8
0
 10
540.554
 20
111.738
 30
0.0
 40
0
 41
0
  0
VERTEX
  8
0
 10
540.704
 20
111.451
 30
0.0
 40
0
 41
0
  0
VERTEX
  8
0
 10
540.842
 20
111.156
 30
0.0
 40
0
 41
0
  0
VERTEX
  8
0
 10
540.964
 20
110.854
 30
0.0
 40
0
 41
0
  0
VERTEX
  8
0
 10
541.072
 20
110.545
 30
0.0
 40
0
 41
0
  0
VERTEX
  8
0
 10
541.143
 20
110.309
 30
0.0
 40
0
 41
0
  0
VERTEX
  8
0
 10
541.165
 20
110.23
 30
0.0
 40
0
 41
0
  0
VERTEX
  8
0
 10
541.207
 20
110.072
 30
0.0
 40
0
 41
0
  0
VERTEX
  8
0
 10
541.303
 20
109.589
 30
0.0
 40
0
 41
0
  0
VERTEX
  8
0
 10
541.376
 20
108.943
 30
0.0
 40
0
 41
0
  0
VERTEX
  8
0
 10
541.387
 20
108.295
 30
0.0
 40
0
 41
0
  0
VERTEX
  8
0
 10
541.333
 20
107.651
 30
0.0
 40
0
 41
0
  0
VERTEX
  8
0
 10
541.218
 20
107.015
 30
0.0
 40
0
 41
0
  0
VERTEX
  8
0
 10
541.04
 20
106.392
 30
0.0
 40
0
 41
0
  0
VERTEX
  8
0
 10
540.803
 20
105.787
 30
0.0
 40
0
 41
0
  0
VERTEX
  8
0
 10
540.585
 20
105.345
 30
0.0
 40
0
 41
0
  0
VERTEX
  8
0
 10
540.503
 20
105.203
 30
0.0
 40
0
 41
0
  0
VERTEX
  8
0
 10
540.463
 20
105.132
 30
0.0
 40
0
 41
0
  0
VERTEX
  8
0
 10
540.332
 20
104.923
 30
0.0
 40
0
 41
0
  0
VERTEX
  8
0
 10
540.147
 20
104.653
 30
0.0
 40
0
 41
0
  0
VERTEX
  8
0
 10
539.951
 20
104.393
 30
0.0
 40
0
 41
0
  0
VERTEX
  8
0
 10
539.743
 20
104.143
 30
0.0
 40
0
 41
0
  0
VERTEX
  8
0
 10
539.522
 20
103.905
 30
0.0
 40
0
 41
0
  0
VERTEX
  8
0
 10
539.292
 20
103.678
 30
0.0
 40
0
 41
0
  0
VERTEX
  8
0
 10
539.05
 20
103.463
 30
0.0
 40
0
 41
0
  0
VERTEX
  8
0
 10
538.799
 20
103.26
 30
0.0
 40
0
 41
0
  0
VERTEX
  8
0
 10
538.537
 20
103.07
 30
0.0
 40
0
 41
0
  0
VERTEX
  8
0
 10
538.268
 20
102.892
 30
0.0
 40
0
 41
0
  0
VERTEX
  8
0
 10
537.989
 20
102.728
 30
0.0
 40
0
 41
0
  0
VERTEX
  8
0
 10
537.701
 20
102.577
 30
0.0
 40
0
 41
0
  0
VERTEX
  8
0
 10
537.407
 20
102.44
 30
0.0
 40
0
 41
0
  0
VERTEX
  8
0
 10
537.106
 20
102.318
 30
0.0
 40
0
 41
0
  0
VERTEX
  8
0
 10
536.796
 20
102.21
 30
0.0
 40
0
 41
0
  0
VERTEX
  8
0
 10
536.56
 20
102.138
 30
0.0
 40
0
 41
0
  0
VERTEX
  8
0
 10
536.481
 20
102.117
 30
0.0
 40
0
 41
0
  0
VERTEX
  8
0
 10
536.322
 20
102.075
 30
0.0
 40
0
 41
0
  0
VERTEX
  8
0
 10
535.84
 20
101.979
 30
0.0
 40
0
 41
0
  0
VERTEX
  8
0
 10
535.193
 20
101.905
 30
0.0
 40
0
 41
0
  0
VERTEX
  8
0
 10
534.546
 20
101.895
 30
0.0
 40
0
 41
0
  0
VERTEX
  8
0
 10
533.901
 20
101.948
 30
0.0
 40
0
 41
0
  0
VERTEX
  8
0
 10
533.267
 20
102.064
 30
0.0
 40
0
 41
0
  0
VERTEX
  8
0
 10
532.643
 20
102.241
 30
0.0
 40
0
 41
0
  0
VERTEX
  8
0
 10
532.037
 20
102.48
 30
0.0
 40
0
 41
0
  0
VERTEX
  8
0
 10
531.596
 20
102.697
 30
0.0
 40
0
 41
0
  0
VERTEX
  8
0
 10
531.454
 20
102.779
 30
0.0
 40
0
 41
0
  0
VERTEX
  8
0
 10
531.383
 20
102.82
 30
0.0
 40
0
 41
0
  0
VERTEX
  8
0
 10
531.174
 20
102.95
 30
0.0
 40
0
 41
0
  0
VERTEX
  8
0
 10
530.904
 20
103.134
 30
0.0
 40
0
 41
0
  0
VERTEX
  8
0
 10
530.643
 20
103.331
 30
0.0
 40
0
 41
0
  0
VERTEX
  8
0
 10
530.394
 20
103.539
 30
0.0
 40
0
 41
0
  0
VERTEX
  8
0
 10
530.156
 20
103.759
 30
0.0
 40
0
 41
0
  0
VERTEX
  8
0
 10
529.929
 20
103.99
 30
0.0
 40
0
 41
0
  0
VERTEX
  8
0
 10
529.714
 20
104.232
 30
0.0
 40
0
 41
0
  0
VERTEX
  8
0
 10
529.511
 20
104.483
 30
0.0
 40
0
 41
0
  0
VERTEX
  8
0
 10
529.321
 20
104.744
 30
0.0
 40
0
 41
0
  0
VERTEX
  8
0
 10
529.143
 20
105.014
 30
0.0
 40
0
 41
0
  0
VERTEX
  8
0
 10
528.979
 20
105.293
 30
0.0
 40
0
 41
0
  0
VERTEX
  8
0
 10
528.828
 20
105.58
 30
0.0
 40
0
 41
0
  0
VERTEX
  8
0
 10
528.692
 20
105.875
 30
0.0
 40
0
 41
0
  0
VERTEX
  8
0
 10
528.569
 20
106.177
 30
0.0
 40
0
 41
0
  0
VERTEX
  8
0
 10
528.461
 20
106.486
 30
0.0
 40
0
 41
0
  0
VERTEX
  8
0
 10
528.389
 20
106.722
 30
0.0
 40
0
 41
0
  0
VERTEX
  8
0
 10
528.368
 20
106.801
 30
0.0
 40
0
 41
0
  0
VERTEX
  8
0
 10
528.326
 20
106.959
 30
0.0
 40
0
 41
0
  0
VERTEX
  8
0
 10
528.231
 20
107.442
 30
0.0
 40
0
 41
0
  0
VERTEX
  8
0
 10
528.157
 20
108.088
 30
0.0
 40
0
 41
0
  0
VERTEX
  8
0
 10
528.146
 20
108.736
 30
0.0
 40
0
 41
0
  0
VERTEX
  8
0
 10
528.199
 20
109.38
 30
0.0
 40
0
 41
0
  0
VERTEX
  8
0
 10
528.315
 20
110.016
 30
0.0
 40
0
 41
0
  0
VERTEX
  8
0
 10
528.492
 20
110.639
 30
0.0
 40
0
 41
0
  0
VERTEX
  8
0
 10
528.731
 20
111.244
 30
0.0
 40
0
 41
0
  0
VERTEX
  8
0
 10
528.949
 20
111.686
 30
0.0
 40
0
 41
0
  0
VERTEX
  8
0
 10
529.031
 20
111.828
 30
0.0
 40
0
 41
0
  0
SEQEND
 8
0
  0
POLYLINE
  8
0
 62
     0
 66
     1
 10
0
 20
0
 30
0.0
 70
     1
 40
0
 41
0
  0
VERTEX
  8
0
 10
284.204
 20
84.2468
 30
0.0
 40
0
 41
0
  0
VERTEX
  8
0
 10
284.278
 20
84.3732
 30
0.0
 40
0
 41
0
  0
VERTEX
  8
0
 10
284.521
 20
84.7378
 30
0.0
 40
0
 41
0
  0
VERTEX
  8
0
 10
284.882
 20
85.1918
 30
0.0
 40
0
 41
0
  0
VERTEX
  8
0
 10
285.283
 20
85.6064
 30
0.0
 40
0
 41
0
  0
VERTEX
  8
0
 10
285.724
 20
85.9789
 30
0.0
 40
0
 41
0
  0
VERTEX
  8
0
 10
286.197
 20
86.3068
 30
0.0
 40
0
 41
0
  0
VERTEX
  8
0
 10
286.701
 20
86.5876
 30
0.0
 40
0
 41
0
  0
VERTEX
  8
0
 10
287.233
 20
86.8188
 30
0.0
 40
0
 41
0
  0
VERTEX
  8
0
 10
287.649
 20
86.96
 30
0.0
 40
0
 41
0
  0
VERTEX
  8
0
 10
287.789
 20
86.9976
 30
0.0
 40
0
 41
0
  0
VERTEX
  8
0
 10
287.931
 20
87.0354
 30
0.0
 40
0
 41
0
  0
VERTEX
  8
0
 10
288.361
 20
87.1208
 30
0.0
 40
0
 41
0
  0
VERTEX
  8
0
 10
288.936
 20
87.1867
 30
0.0
 40
0
 41
0
  0
VERTEX
  8
0
 10
289.514
 20
87.1957
 30
0.0
 40
0
 41
0
  0
VERTEX
  8
0
 10
290.088
 20
87.1483
 30
0.0
 40
0
 41
0
  0
VERTEX
  8
0
 10
290.654
 20
87.0454
 30
0.0
 40
0
 41
0
  0
VERTEX
  8
0
 10
291.21
 20
86.8874
 30
0.0
 40
0
 41
0
  0
VERTEX
  8
0
 10
291.75
 20
86.6746
 30
0.0
 40
0
 41
0
  0
VERTEX
  8
0
 10
292.143
 20
86.4808
 30
0.0
 40
0
 41
0
  0
VERTEX
  8
0
 10
292.269
 20
86.4079
 30
0.0
 40
0
 41
0
  0
VERTEX
  8
0
 10
292.396
 20
86.335
 30
0.0
 40
0
 41
0
  0
VERTEX
  8
0
 10
292.76
 20
86.0911
 30
0.0
 40
0
 41
0
  0
VERTEX
  8
0
 10
293.214
 20
85.7301
 30
0.0
 40
0
 41
0
  0
VERTEX
  8
0
 10
293.629
 20
85.3283
 30
0.0
 40
0
 41
0
  0
VERTEX
  8
0
 10
294.001
 20
84.889
 30
0.0
 40
0
 41
0
  0
VERTEX
  8
0
 10
294.329
 20
84.4154
 30
0.0
 40
0
 41
0
  0
VERTEX
  8
0
 10
294.61
 20
83.9111
 30
0.0
 40
0
 41
0
  0
VERTEX
  8
0
 10
294.842
 20
83.3792
 30
0.0
 40
0
 41
0
  0
VERTEX
  8
0
 10
294.982
 20
82.9639
 30
0.0
 40
0
 41
0
  0
VERTEX
  8
0
 10
295.021
 20
82.8229
 30
0.0
 40
0
 41
0
  0
VERTEX
  8
0
 10
295.058
 20
82.6821
 30
0.0
 40
0
 41
0
  0
VERTEX
  8
0
 10
295.143
 20
82.2518
 30
0.0
 40
0
 41
0
  0
VERTEX
  8
0
 10
295.21
 20
81.6756
 30
0.0
 40
0
 41
0
  0
VERTEX
  8
0
 10
295.218
 20
81.0983
 30
0.0
 40
0
 41
0
  0
VERTEX
  8
0
 10
295.171
 20
80.5243
 30
0.0
 40
0
 41
0
  0
VERTEX
  8
0
 10
295.068
 20
79.9576
 30
0.0
 40
0
 41
0
  0
VERTEX
  8
0
 10
294.91
 20
79.4022
 30
0.0
 40
0
 41
0
  0
VERTEX
  8
0
 10
294.697
 20
78.8628
 30
0.0
 40
0
 41
0
  0
VERTEX
  8
0
 10
294.503
 20
78.4693
 30
0.0
 40
0
 41
0
  0
VERTEX
  8
0
 10
294.431
 20
78.3429
 30
0.0
 40
0
 41
0
  0
VERTEX
  8
0
 10
294.357
 20
78.2165
 30
0.0
 40
0
 41
0
  0
VERTEX
  8
0
 10
294.114
 20
77.8519
 30
0.0
 40
0
 41
0
  0
VERTEX
  8
0
 10
293.753
 20
77.3981
 30
0.0
 40
0
 41
0
  0
VERTEX
  8
0
 10
293.351
 20
76.9835
 30
0.0
 40
0
 41
0
  0
VERTEX
  8
0
 10
292.911
 20
76.611
 30
0.0
 40
0
 41
0
  0
VERTEX
  8
0
 10
292.438
 20
76.2831
 30
0.0
 40
0
 41
0
  0
VERTEX
  8
0
 10
291.933
 20
76.0021
 30
0.0
 40
0
 41
0
  0
VERTEX
  8
0
 10
291.401
 20
75.771
 30
0.0
 40
0
 41
0
  0
VERTEX
  8
0
 10
290.986
 20
75.6297
 30
0.0
 40
0
 41
0
  0
VERTEX
  8
0
 10
290.846
 20
75.5921
 30
0.0
 40
0
 41
0
  0
VERTEX
  8
0
 10
290.704
 20
75.5543
 30
0.0
 40
0
 41
0
  0
VERTEX
  8
0
 10
290.274
 20
75.4689
 30
0.0
 40
0
 41
0
  0
VERTEX
  8
0
 10
289.699
 20
75.4032
 30
0.0
 40
0
 41
0
  0
VERTEX
  8
0
 10
289.121
 20
75.3942
 30
0.0
 40
0
 41
0
  0
VERTEX
  8
0
 10
288.547
 20
75.4414
 30
0.0
 40
0
 41
0
  0
VERTEX
  8
0
 10
287.981
 20
75.5443
 30
0.0
 40
0
 41
0
  0
VERTEX
  8
0
 10
287.425
 20
75.7024
 30
0.0
 40
0
 41
0
  0
VERTEX
  8
0
 10
286.885
 20
75.9151
 30
0.0
 40
0
 41
0
  0
VERTEX
  8
0
 10
286.492
 20
76.1089
 30
0.0
 40
0
 41
0
  0
VERTEX
  8
0
 10
286.365
 20
76.1818
 30
0.0
 40
0
 41
0
  0
VERTEX
  8
0
 10
286.239
 20
76.2549
 30
0.0
 40
0
 41
0
  0
VERTEX
  8
0
 10
285.875
 20
76.4988
 30
0.0
 40
0
 41
0
  0
VERTEX
  8
0
 10
285.421
 20
76.8596
 30
0.0
 40
0
 41
0
  0
VERTEX
  8
0
 10
285.006
 20
77.2614
 30
0.0
 40
0
 41
0
  0
VERTEX
  8
0
 10
284.633
 20
77.7008
 30
0.0
 40
0
 41
0
  0
VERTEX
  8
0
 10
284.306
 20
78.1743
 30
0.0
 40
0
 41
0
  0
VERTEX
  8
0
 10
284.025
 20
78.6788
 30
0.0
 40
0
 41
0
  0
VERTEX
  8
0
 10
283.793
 20
79.2107
 30
0.0
 40
0
 41
0
  0
VERTEX
  8
0
 10
283.653
 20
79.626
 30
0.0
 40
0
 41
0
  0
VERTEX
  8
0
 10
283.614
 20
79.7668
 30
0.0
 40
0
 41
0
  0
VERTEX
  8
0
 10
283.576
 20
79.9078
 30
0.0
 40
0
 41
0
  0
VERTEX
  8
0
 10
283.492
 20
80.3381
 30
0.0
 40
0
 41
0
  0
VERTEX
  8
0
 10
283.425
 20
80.9142
 30
0.0
 40
0
 41
0
  0
VERTEX
  8
0
 10
283.417
 20
81.4915
 30
0.0
 40
0
 41
0
  0
VERTEX
  8
0
 10
283.464
 20
82.0656
 30
0.0
 40
0
 41
0
  0
VERTEX
  8
0
 10
283.567
 20
82.6322
 30
0.0
 40
0
 41
0
  0
VERTEX
  8
0
 10
283.725
 20
83.1875
 30
0.0
 40
0
 41
0
  0
VERTEX
  8
0
 10
283.938
 20
83.7271
 30
0.0
 40
0
 41
0
  0
VERTEX
  8
0
 10
284.132
 20
84.1206
 30
0.0
 40
0
 41
0
  0
VERTEX
  8
0
 10
284.204
 20
84.2468
 30
0.0
 40
0
 41
0
  0
SEQEND
 8
0
  0
POLYLINE
  8
0
 62
     0
 66
     1
 10
0
 20
0
 30
0.0
 70
     1
 40
0
 41
0
  0
VERTEX
  8
0
 10
417.414
 20
113.915
 30
0.0
 40
0
 41
0
  0
VERTEX
  8
0
 10
417.481
 20
114.032
 30
0.0
 40
0
 41
0
  0
VERTEX
  8
0
 10
417.693
 20
114.373
 30
0.0
 40
0
 41
0
  0
VERTEX
  8
0
 10
417.993
 20
114.813
 30
0.0
 40
0
 41
0
  0
VERTEX
  8
0
 10
418.314
 20
115.237
 30
0.0
 40
0
 41
0
  0
VERTEX
  8
0
 10
418.653
 20
115.644
 30
0.0
 40
0
 41
0
  0
VERTEX
  8
0
 10
419.011
 20
116.032
 30
0.0
 40
0
 41
0
  0
VERTEX
  8
0
 10
419.389
 20
116.402
 30
0.0
 40
0
 41
0
  0
VERTEX
  8
0
 10
419.782
 20
116.753
 30
0.0
 40
0
 41
0
  0
VERTEX
  8
0
 10
420.192
 20
117.084
 30
0.0
 40
0
 41
0
  0
VERTEX
  8
0
 10
420.618
 20
117.394
 30
0.0
 40
0
 41
0
  0
VERTEX
  8
0
 10
421.058
 20
117.684
 30
0.0
 40
0
 41
0
  0
VERTEX
  8
0
 10
421.513
 20
117.952
 30
0.0
 40
0
 41
0
  0
VERTEX
  8
0
 10
421.981
 20
118.197
 30
0.0
 40
0
 41
0
  0
VERTEX
  8
0
 10
422.461
 20
118.42
 30
0.0
 40
0
 41
0
  0
VERTEX
  8
0
 10
422.954
 20
118.62
 30
0.0
 40
0
 41
0
  0
VERTEX
  8
0
 10
423.457
 20
118.796
 30
0.0
 40
0
 41
0
  0
VERTEX
  8
0
 10
423.842
 20
118.913
 30
0.0
 40
0
 41
0
  0
VERTEX
  8
0
 10
423.971
 20
118.947
 30
0.0
 40
0
 41
0
  0
VERTEX
  8
0
 10
424.1
 20
118.982
 30
0.0
 40
0
 41
0
  0
VERTEX
  8
0
 10
424.492
 20
119.073
 30
0.0
 40
0
 41
0
  0
VERTEX
  8
0
 10
425.017
 20
119.173
 30
0.0
 40
0
 41
0
  0
VERTEX
  8
0
 10
425.543
 20
119.246
 30
0.0
 40
0
 41
0
  0
VERTEX
  8
0
 10
426.071
 20
119.293
 30
0.0
 40
0
 41
0
  0
VERTEX
  8
0
 10
426.599
 20
119.314
 30
0.0
 40
0
 41
0
  0
VERTEX
  8
0
 10
427.126
 20
119.31
 30
0.0
 40
0
 41
0
  0
VERTEX
  8
0
 10
427.653
 20
119.279
 30
0.0
 40
0
 41
0
  0
VERTEX
  8
0
 10
428.176
 20
119.223
 30
0.0
 40
0
 41
0
  0
VERTEX
  8
0
 10
428.697
 20
119.142
 30
0.0
 40
0
 41
0
  0
VERTEX
  8
0
 10
429.213
 20
119.035
 30
0.0
 40
0
 41
0
  0
VERTEX
  8
0
 10
429.724
 20
118.903
 30
0.0
 40
0
 41
0
  0
VERTEX
  8
0
 10
430.229
 20
118.746
 30
0.0
 40
0
 41
0
  0
VERTEX
  8
0
 10
430.726
 20
118.563
 30
0.0
 40
0
 41
0
  0
VERTEX
  8
0
 10
431.215
 20
118.357
 30
0.0
 40
0
 41
0
  0
VERTEX
  8
0
 10
431.696
 20
118.125
 30
0.0
 40
0
 41
0
  0
VERTEX
  8
0
 10
432.05
 20
117.936
 30
0.0
 40
0
 41
0
  0
VERTEX
  8
0
 10
432.167
 20
117.869
 30
0.0
 40
0
 41
0
  0
VERTEX
  8
0
 10
432.282
 20
117.802
 30
0.0
 40
0
 41
0
  0
VERTEX
  8
0
 10
432.624
 20
117.589
 30
0.0
 40
0
 41
0
  0
VERTEX
  8
0
 10
433.064
 20
117.289
 30
0.0
 40
0
 41
0
  0
VERTEX
  8
0
 10
433.489
 20
116.969
 30
0.0
 40
0
 41
0
  0
VERTEX
  8
0
 10
433.894
 20
116.629
 30
0.0
 40
0
 41
0
  0
VERTEX
  8
0
 10
434.283
 20
116.27
 30
0.0
 40
0
 41
0
  0
VERTEX
  8
0
 10
434.653
 20
115.894
 30
0.0
 40
0
 41
0
  0
VERTEX
  8
0
 10
435.004
 20
115.5
 30
0.0
 40
0
 41
0
  0
VERTEX
  8
0
 10
435.335
 20
115.09
 30
0.0
 40
0
 41
0
  0
VERTEX
  8
0
 10
435.644
 20
114.664
 30
0.0
 40
0
 41
0
  0
VERTEX
  8
0
 10
435.935
 20
114.224
 30
0.0
 40
0
 41
0
  0
VERTEX
  8
0
 10
436.203
 20
113.769
 30
0.0
 40
0
 41
0
  0
VERTEX
  8
0
 10
436.449
 20
113.301
 30
0.0
 40
0
 41
0
  0
VERTEX
  8
0
 10
436.671
 20
112.821
 30
0.0
 40
0
 41
0
  0
VERTEX
  8
0
 10
436.871
 20
112.328
 30
0.0
 40
0
 41
0
  0
VERTEX
  8
0
 10
437.047
 20
111.825
 30
0.0
 40
0
 41
0
  0
VERTEX
  8
0
 10
437.164
 20
111.44
 30
0.0
 40
0
 41
0
  0
VERTEX
  8
0
 10
437.199
 20
111.311
 30
0.0
 40
0
 41
0
  0
VERTEX
  8
0
 10
437.233
 20
111.181
 30
0.0
 40
0
 41
0
  0
VERTEX
  8
0
 10
437.324
 20
110.79
 30
0.0
 40
0
 41
0
  0
VERTEX
  8
0
 10
437.424
 20
110.266
 30
0.0
 40
0
 41
0
  0
VERTEX
  8
0
 10
437.497
 20
109.74
 30
0.0
 40
0
 41
0
  0
VERTEX
  8
0
 10
437.544
 20
109.212
 30
0.0
 40
0
 41
0
  0
VERTEX
  8
0
 10
437.565
 20
108.684
 30
0.0
 40
0
 41
0
  0
VERTEX
  8
0
 10
437.561
 20
108.156
 30
0.0
 40
0
 41
0
  0
VERTEX
  8
0
 10
437.531
 20
107.63
 30
0.0
 40
0
 41
0
  0
VERTEX
  8
0
 10
437.474
 20
107.106
 30
0.0
 40
0
 41
0
  0
VERTEX
  8
0
 10
437.393
 20
106.585
 30
0.0
 40
0
 41
0
  0
VERTEX
  8
0
 10
437.286
 20
106.069
 30
0.0
 40
0
 41
0
  0
VERTEX
  8
0
 10
437.154
 20
105.558
 30
0.0
 40
0
 41
0
  0
VERTEX
  8
0
 10
436.997
 20
105.053
 30
0.0
 40
0
 41
0
  0
VERTEX
  8
0
 10
436.814
 20
104.556
 30
0.0
 40
0
 41
0
  0
VERTEX
  8
0
 10
436.607
 20
104.066
 30
0.0
 40
0
 41
0
  0
VERTEX
  8
0
 10
436.376
 20
103.586
 30
0.0
 40
0
 41
0
  0
VERTEX
  8
0
 10
436.186
 20
103.231
 30
0.0
 40
0
 41
0
  0
VERTEX
  8
0
 10
436.119
 20
103.115
 30
0.0
 40
0
 41
0
  0
VERTEX
  8
0
 10
436.053
 20
102.999
 30
0.0
 40
0
 41
0
  0
VERTEX
  8
0
 10
435.84
 20
102.658
 30
0.0
 40
0
 41
0
  0
VERTEX
  8
0
 10
435.54
 20
102.218
 30
0.0
 40
0
 41
0
  0
VERTEX
  8
0
 10
435.219
 20
101.793
 30
0.0
 40
0
 41
0
  0
VERTEX
  8
0
 10
434.879
 20
101.387
 30
0.0
 40
0
 41
0
  0
VERTEX
  8
0
 10
434.521
 20
100.998
 30
0.0
 40
0
 41
0
  0
VERTEX
  8
0
 10
434.144
 20
100.629
 30
0.0
 40
0
 41
0
  0
VERTEX
  8
0
 10
433.751
 20
100.278
 30
0.0
 40
0
 41
0
  0
VERTEX
  8
0
 10
433.342
 20
99.9472
 30
0.0
 40
0
 41
0
  0
VERTEX
  8
0
 10
432.915
 20
99.6368
 30
0.0
 40
0
 41
0
  0
VERTEX
  8
0
 10
432.475
 20
99.3474
 30
0.0
 40
0
 41
0
  0
VERTEX
  8
0
 10
432.021
 20
99.0794
 30
0.0
 40
0
 41
0
  0
VERTEX
  8
0
 10
431.553
 20
98.8336
 30
0.0
 40
0
 41
0
  0
VERTEX
  8
0
 10
431.072
 20
98.6106
 30
0.0
 40
0
 41
0
  0
VERTEX
  8
0
 10
430.579
 20
98.4108
 30
0.0
 40
0
 41
0
  0
VERTEX
  8
0
 10
430.075
 20
98.2349
 30
0.0
 40
0
 41
0
  0
VERTEX
  8
0
 10
429.692
 20
98.1181
 30
0.0
 40
0
 41
0
  0
VERTEX
  8
0
 10
429.561
 20
98.0835
 30
0.0
 40
0
 41
0
  0
VERTEX
  8
0
 10
429.432
 20
98.0489
 30
0.0
 40
0
 41
0
  0
VERTEX
  8
0
 10
429.042
 20
97.9576
 30
0.0
 40
0
 41
0
  0
VERTEX
  8
0
 10
428.517
 20
97.8582
 30
0.0
 40
0
 41
0
  0
VERTEX
  8
0
 10
427.99
 20
97.785
 30
0.0
 40
0
 41
0
  0
VERTEX
  8
0
 10
427.463
 20
97.7379
 30
0.0
 40
0
 41
0
  0
VERTEX
  8
0
 10
426.935
 20
97.7168
 30
0.0
 40
0
 41
0
  0
VERTEX
  8
0
 10
426.407
 20
97.7215
 30
0.0
 40
0
 41
0
  0
VERTEX
  8
0
 10
425.881
 20
97.7518
 30
0.0
 40
0
 41
0
  0
VERTEX
  8
0
 10
425.357
 20
97.8079
 30
0.0
 40
0
 41
0
  0
VERTEX
  8
0
 10
424.836
 20
97.8894
 30
0.0
 40
0
 41
0
  0
VERTEX
  8
0
 10
424.319
 20
97.9963
 30
0.0
 40
0
 41
0
  0
VERTEX
  8
0
 10
423.81
 20
98.1282
 30
0.0
 40
0
 41
0
  0
VERTEX
  8
0
 10
423.304
 20
98.2854
 30
0.0
 40
0
 41
0
  0
VERTEX
  8
0
 10
422.807
 20
98.4675
 30
0.0
 40
0
 41
0
  0
VERTEX
  8
0
 10
422.318
 20
98.6744
 30
0.0
 40
0
 41
0
  0
VERTEX
  8
0
 10
421.838
 20
98.9061
 30
0.0
 40
0
 41
0
  0
VERTEX
  8
0
 10
421.482
 20
99.0956
 30
0.0
 40
0
 41
0
  0
VERTEX
  8
0
 10
421.367
 20
99.1624
 30
0.0
 40
0
 41
0
  0
VERTEX
  8
0
 10
421.25
 20
99.2293
 30
0.0
 40
0
 41
0
  0
VERTEX
  8
0
 10
420.91
 20
99.4417
 30
0.0
 40
0
 41
0
  0
VERTEX
  8
0
 10
420.468
 20
99.7419
 30
0.0
 40
0
 41
0
  0
VERTEX
  8
0
 10
420.044
 20
100.062
 30
0.0
 40
0
 41
0
  0
VERTEX
  8
0
 10
419.638
 20
100.402
 30
0.0
 40
0
 41
0
  0
VERTEX
  8
0
 10
419.25
 20
100.761
 30
0.0
 40
0
 41
0
  0
VERTEX
  8
0
 10
418.879
 20
101.137
 30
0.0
 40
0
 41
0
  0
VERTEX
  8
0
 10
418.529
 20
101.531
 30
0.0
 40
0
 41
0
  0
VERTEX
  8
0
 10
418.199
 20
101.941
 30
0.0
 40
0
 41
0
  0
VERTEX
  8
0
 10
417.888
 20
102.367
 30
0.0
 40
0
 41
0
  0
VERTEX
  8
0
 10
417.599
 20
102.807
 30
0.0
 40
0
 41
0
  0
VERTEX
  8
0
 10
417.331
 20
103.262
 30
0.0
 40
0
 41
0
  0
VERTEX
  8
0
 10
417.085
 20
103.73
 30
0.0
 40
0
 41
0
  0
VERTEX
  8
0
 10
416.861
 20
104.21
 30
0.0
 40
0
 41
0
  0
VERTEX
  8
0
 10
416.662
 20
104.703
 30
0.0
 40
0
 41
0
  0
VERTEX
  8
0
 10
416.486
 20
105.206
 30
0.0
 40
0
 41
0
  0
VERTEX
  8
0
 10
416.369
 20
105.591
 30
0.0
 40
0
 41
0
  0
VERTEX
  8
0
 10
416.335
 20
105.72
 30
0.0
 40
0
 41
0
  0
VERTEX
  8
0
 10
416.3
 20
105.85
 30
0.0
 40
0
 41
0
  0
VERTEX
  8
0
 10
416.208
 20
106.241
 30
0.0
 40
0
 41
0
  0
VERTEX
  8
0
 10
416.11
 20
106.765
 30
0.0
 40
0
 41
0
  0
VERTEX
  8
0
 10
416.036
 20
107.291
 30
0.0
 40
0
 41
0
  0
VERTEX
  8
0
 10
415.989
 20
107.819
 30
0.0
 40
0
 41
0
  0
VERTEX
  8
0
 10
415.968
 20
108.347
 30
0.0
 40
0
 41
0
  0
VERTEX
  8
0
 10
415.972
 20
108.875
 30
0.0
 40
0
 41
0
  0
VERTEX
  8
0
 10
416.003
 20
109.401
 30
0.0
 40
0
 41
0
  0
VERTEX
  8
0
 10
416.058
 20
109.925
 30
0.0
 40
0
 41
0
  0
VERTEX
  8
0
 10
416.14
 20
110.446
 30
0.0
 40
0
 41
0
  0
VERTEX
  8
0
 10
416.247
 20
110.962
 30
0.0
 40
0
 41
0
  0
VERTEX
  8
0
 10
416.379
 20
111.473
 30
0.0
 40
0
 41
0
  0
VERTEX
  8
0
 10
416.536
 20
111.977
 30
0.0
 40
0
 41
0
  0
VERTEX
  8
0
 10
416.718
 20
112.475
 30
0.0
 40
0
 41
0
  0
VERTEX
  8
0
 10
416.925
 20
112.965
 30
0.0
 40
0
 41
0
  0
VERTEX
  8
0
 10
417.157
 20
113.445
 30
0.0
 40
0
 41
0
  0
VERTEX
  8
0
 10
417.346
 20
113.8
 30
0.0
 40
0
 41
0
  0
VERTEX
  8
0
 10
417.414
 20
113.915
 30
0.0
 40
0
 41
0
  0
SEQEND
 8
0
  0
POLYLINE
  8
0
 62
     0
 66
     1
 10
0
 20
0
 30
0.0
 70
     1
 40
0
 41
0
  0
VERTEX
  8
0
 10
345.997
 20
48.5708
 30
0.0
 40
0
 41
0
  0
VERTEX
  8
0
 10
346.037
 20
48.6412
 30
0.0
 40
0
 41
0
  0
VERTEX
  8
0
 10
346.167
 20
48.8482
 30
0.0
 40
0
 41
0
  0
VERTEX
  8
0
 10
346.349
 20
49.1157
 30
0.0
 40
0
 41
0
  0
VERTEX
  8
0
 10
346.543
 20
49.3729
 30
0.0
 40
0
 41
0
  0
VERTEX
  8
0
 10
346.749
 20
49.6196
 30
0.0
 40
0
 41
0
  0
VERTEX
  8
0
 10
346.967
 20
49.8551
 30
0.0
 40
0
 41
0
  0
VERTEX
  8
0
 10
347.194
 20
50.0796
 30
0.0
 40
0
 41
0
  0
VERTEX
  8
0
 10
347.433
 20
50.2922
 30
0.0
 40
0
 41
0
  0
VERTEX
  8
0
 10
347.682
 20
50.4929
 30
0.0
 40
0
 41
0
  0
VERTEX
  8
0
 10
347.94
 20
50.6813
 30
0.0
 40
0
 41
0
  0
VERTEX
  8
0
 10
348.208
 20
50.8569
 30
0.0
 40
0
 41
0
  0
VERTEX
  8
0
 10
348.483
 20
51.0194
 30
0.0
 40
0
 41
0
  0
VERTEX
  8
0
 10
348.768
 20
51.1685
 30
0.0
 40
0
 41
0
  0
VERTEX
  8
0
 10
349.06
 20
51.3039
 30
0.0
 40
0
 41
0
  0
VERTEX
  8
0
 10
349.358
 20
51.4251
 30
0.0
 40
0
 41
0
  0
VERTEX
  8
0
 10
349.664
 20
51.5318
 30
0.0
 40
0
 41
0
  0
VERTEX
  8
0
 10
349.897
 20
51.6026
 30
0.0
 40
0
 41
0
  0
VERTEX
  8
0
 10
349.975
 20
51.6236
 30
0.0
 40
0
 41
0
  0
VERTEX
  8
0
 10
350.132
 20
51.6656
 30
0.0
 40
0
 41
0
  0
VERTEX
  8
0
 10
350.61
 20
51.7603
 30
0.0
 40
0
 41
0
  0
VERTEX
  8
0
 10
351.249
 20
51.8333
 30
0.0
 40
0
 41
0
  0
VERTEX
  8
0
 10
351.889
 20
51.8432
 30
0.0
 40
0
 41
0
  0
VERTEX
  8
0
 10
352.526
 20
51.7908
 30
0.0
 40
0
 41
0
  0
VERTEX
  8
0
 10
353.156
 20
51.6765
 30
0.0
 40
0
 41
0
  0
VERTEX
  8
0
 10
353.771
 20
51.5011
 30
0.0
 40
0
 41
0
  0
VERTEX
  8
0
 10
354.371
 20
51.2651
 30
0.0
 40
0
 41
0
  0
VERTEX
  8
0
 10
354.807
 20
51.05
 30
0.0
 40
0
 41
0
  0
VERTEX
  8
0
 10
354.947
 20
50.969
 30
0.0
 40
0
 41
0
  0
VERTEX
  8
0
 10
355.018
 20
50.9285
 30
0.0
 40
0
 41
0
  0
VERTEX
  8
0
 10
355.225
 20
50.7997
 30
0.0
 40
0
 41
0
  0
VERTEX
  8
0
 10
355.492
 20
50.6175
 30
0.0
 40
0
 41
0
  0
VERTEX
  8
0
 10
355.749
 20
50.4231
 30
0.0
 40
0
 41
0
  0
VERTEX
  8
0
 10
355.996
 20
50.2169
 30
0.0
 40
0
 41
0
  0
VERTEX
  8
0
 10
356.232
 20
49.9994
 30
0.0
 40
0
 41
0
  0
VERTEX
  8
0
 10
356.456
 20
49.7711
 30
0.0
 40
0
 41
0
  0
VERTEX
  8
0
 10
356.668
 20
49.5322
 30
0.0
 40
0
 41
0
  0
VERTEX
  8
0
 10
356.869
 20
49.2835
 30
0.0
 40
0
 41
0
  0
VERTEX
  8
0
 10
357.057
 20
49.0253
 30
0.0
 40
0
 41
0
  0
VERTEX
  8
0
 10
357.233
 20
48.7581
 30
0.0
 40
0
 41
0
  0
VERTEX
  8
0
 10
357.396
 20
48.4822
 30
0.0
 40
0
 41
0
  0
VERTEX
  8
0
 10
357.544
 20
48.1982
 30
0.0
 40
0
 41
0
  0
VERTEX
  8
0
 10
357.681
 20
47.9067
 30
0.0
 40
0
 41
0
  0
VERTEX
  8
0
 10
357.801
 20
47.6079
 30
0.0
 40
0
 41
0
  0
VERTEX
  8
0
 10
357.908
 20
47.3025
 30
0.0
 40
0
 41
0
  0
VERTEX
  8
0
 10
357.979
 20
47.0692
 30
0.0
 40
0
 41
0
  0
VERTEX
  8
0
 10
358
 20
46.9907
 30
0.0
 40
0
 41
0
  0
VERTEX
  8
0
 10
358.042
 20
46.8343
 30
0.0
 40
0
 41
0
  0
VERTEX
  8
0
 10
358.136
 20
46.3569
 30
0.0
 40
0
 41
0
  0
VERTEX
  8
0
 10
358.21
 20
45.7174
 30
0.0
 40
0
 41
0
  0
VERTEX
  8
0
 10
358.219
 20
45.0768
 30
0.0
 40
0
 41
0
  0
VERTEX
  8
0
 10
358.167
 20
44.4397
 30
0.0
 40
0
 41
0
  0
VERTEX
  8
0
 10
358.053
 20
43.8108
 30
0.0
 40
0
 41
0
  0
VERTEX
  8
0
 10
357.878
 20
43.1946
 30
0.0
 40
0
 41
0
  0
VERTEX
  8
0
 10
357.642
 20
42.5957
 30
0.0
 40
0
 41
0
  0
VERTEX
  8
0
 10
357.426
 20
42.1592
 30
0.0
 40
0
 41
0
  0
VERTEX
  8
0
 10
357.346
 20
42.0189
 30
0.0
 40
0
 41
0
  0
VERTEX
  8
0
 10
357.304
 20
41.9486
 30
0.0
 40
0
 41
0
  0
VERTEX
  8
0
 10
357.176
 20
41.7415
 30
0.0
 40
0
 41
0
  0
VERTEX
  8
0
 10
356.994
 20
41.4742
 30
0.0
 40
0
 41
0
  0
VERTEX
  8
0
 10
356.8
 20
41.2169
 30
0.0
 40
0
 41
0
  0
VERTEX
  8
0
 10
356.593
 20
40.9703
 30
0.0
 40
0
 41
0
  0
VERTEX
  8
0
 10
356.376
 20
40.7346
 30
0.0
 40
0
 41
0
  0
VERTEX
  8
0
 10
356.147
 20
40.5103
 30
0.0
 40
0
 41
0
  0
VERTEX
  8
0
 10
355.908
 20
40.2975
 30
0.0
 40
0
 41
0
  0
VERTEX
  8
0
 10
355.66
 20
40.0968
 30
0.0
 40
0
 41
0
  0
VERTEX
  8
0
 10
355.401
 20
39.9085
 30
0.0
 40
0
 41
0
  0
VERTEX
  8
0
 10
355.135
 20
39.7329
 30
0.0
 40
0
 41
0
  0
VERTEX
  8
0
 10
354.858
 20
39.5704
 30
0.0
 40
0
 41
0
  0
VERTEX
  8
0
 10
354.575
 20
39.4213
 30
0.0
 40
0
 41
0
  0
VERTEX
  8
0
 10
354.283
 20
39.286
 30
0.0
 40
0
 41
0
  0
VERTEX
  8
0
 10
353.985
 20
39.1647
 30
0.0
 40
0
 41
0
  0
VERTEX
  8
0
 10
353.679
 20
39.0581
 30
0.0
 40
0
 41
0
  0
VERTEX
  8
0
 10
353.446
 20
38.9872
 30
0.0
 40
0
 41
0
  0
VERTEX
  8
0
 10
353.367
 20
38.9661
 30
0.0
 40
0
 41
0
  0
VERTEX
  8
0
 10
353.211
 20
38.9243
 30
0.0
 40
0
 41
0
  0
VERTEX
  8
0
 10
352.733
 20
38.8296
 30
0.0
 40
0
 41
0
  0
VERTEX
  8
0
 10
352.093
 20
38.7565
 30
0.0
 40
0
 41
0
  0
VERTEX
  8
0
 10
351.453
 20
38.7465
 30
0.0
 40
0
 41
0
  0
VERTEX
  8
0
 10
350.817
 20
38.7989
 30
0.0
 40
0
 41
0
  0
VERTEX
  8
0
 10
350.188
 20
38.9132
 30
0.0
 40
0
 41
0
  0
VERTEX
  8
0
 10
349.571
 20
39.0886
 30
0.0
 40
0
 41
0
  0
VERTEX
  8
0
 10
348.972
 20
39.3247
 30
0.0
 40
0
 41
0
  0
VERTEX
  8
0
 10
348.535
 20
39.5397
 30
0.0
 40
0
 41
0
  0
VERTEX
  8
0
 10
348.396
 20
39.6207
 30
0.0
 40
0
 41
0
  0
VERTEX
  8
0
 10
348.325
 20
39.6613
 30
0.0
 40
0
 41
0
  0
VERTEX
  8
0
 10
348.118
 20
39.7901
 30
0.0
 40
0
 41
0
  0
VERTEX
  8
0
 10
347.85
 20
39.9722
 30
0.0
 40
0
 41
0
  0
VERTEX
  8
0
 10
347.593
 20
40.1667
 30
0.0
 40
0
 41
0
  0
VERTEX
  8
0
 10
347.346
 20
40.3728
 30
0.0
 40
0
 41
0
  0
VERTEX
  8
0
 10
347.111
 20
40.5903
 30
0.0
 40
0
 41
0
  0
VERTEX
  8
0
 10
346.886
 20
40.8187
 30
0.0
 40
0
 41
0
  0
VERTEX
  8
0
 10
346.674
 20
41.0575
 30
0.0
 40
0
 41
0
  0
VERTEX
  8
0
 10
346.474
 20
41.3063
 30
0.0
 40
0
 41
0
  0
VERTEX
  8
0
 10
346.285
 20
41.5644
 30
0.0
 40
0
 41
0
  0
VERTEX
  8
0
 10
346.11
 20
41.8318
 30
0.0
 40
0
 41
0
  0
VERTEX
  8
0
 10
345.947
 20
42.1076
 30
0.0
 40
0
 41
0
  0
VERTEX
  8
0
 10
345.797
 20
42.3915
 30
0.0
 40
0
 41
0
  0
VERTEX
  8
0
 10
345.662
 20
42.6831
 30
0.0
 40
0
 41
0
  0
VERTEX
  8
0
 10
345.542
 20
42.9819
 30
0.0
 40
0
 41
0
  0
VERTEX
  8
0
 10
345.435
 20
43.2874
 30
0.0
 40
0
 41
0
  0
VERTEX
  8
0
 10
345.364
 20
43.5206
 30
0.0
 40
0
 41
0
  0
VERTEX
  8
0
 10
345.343
 20
43.599
 30
0.0
 40
0
 41
0
  0
VERTEX
  8
0
 10
345.3
 20
43.7554
 30
0.0
 40
0
 41
0
  0
VERTEX
  8
0
 10
345.206
 20
44.2329
 30
0.0
 40
0
 41
0
  0
VERTEX
  8
0
 10
345.133
 20
44.8725
 30
0.0
 40
0
 41
0
  0
VERTEX
  8
0
 10
345.122
 20
45.5131
 30
0.0
 40
0
 41
0
  0
VERTEX
  8
0
 10
345.175
 20
46.15
 30
0.0
 40
0
 41
0
  0
VERTEX
  8
0
 10
345.289
 20
46.779
 30
0.0
 40
0
 41
0
  0
VERTEX
  8
0
 10
345.465
 20
47.3951
 30
0.0
 40
0
 41
0
  0
VERTEX
  8
0
 10
345.701
 20
47.994
 30
0.0
 40
0
 41
0
  0
VERTEX
  8
0
 10
345.917
 20
48.4307
 30
0.0
 40
0
 41
0
  0
VERTEX
  8
0
 10
345.997
 20
48.5708
 30
0.0
 40
0
 41
0
  0
SEQEND
 8
0
  0
POLYLINE
  8
0
 62
     0
 66
     1
 10
0
 20
0
 30
0.0
 70
     1
 40
0
 41
0
  0
VERTEX
  8
0
 10
39.6174
 20
50.3047
 30
0.0
 40
0
 41
0
  0
VERTEX
  8
0
 10
39.7089
 20
50.1463
 30
0.0
 40
0
 41
0
  0
VERTEX
  8
0
 10
39.9921
 20
49.6756
 30
0.0
 40
0
 41
0
  0
VERTEX
  8
0
 10
40.3826
 20
49.0583
 30
0.0
 40
0
 41
0
  0
VERTEX
  8
0
 10
40.7886
 20
48.4535
 30
0.0
 40
0
 41
0
  0
VERTEX
  8
0
 10
41.2099
 20
47.8613
 30
0.0
 40
0
 41
0
  0
VERTEX
  8
0
 10
41.6458
 20
47.2818
 30
0.0
 40
0
 41
0
  0
VERTEX
  8
0
 10
42.0962
 20
46.7154
 30
0.0
 40
0
 41
0
  0
VERTEX
  8
0
 10
42.561
 20
46.1622
 30
0.0
 40
0
 41
0
  0
VERTEX
  8
0
 10
43.0396
 20
45.6225
 30
0.0
 40
0
 41
0
  0
VERTEX
  8
0
 10
43.5318
 20
45.0965
 30
0.0
 40
0
 41
0
  0
VERTEX
  8
0
 10
44.0372
 20
44.5844
 30
0.0
 40
0
 41
0
  0
VERTEX
  8
0
 10
44.5556
 20
44.0865
 30
0.0
 40
0
 41
0
  0
VERTEX
  8
0
 10
45.0865
 20
43.6029
 30
0.0
 40
0
 41
0
  0
VERTEX
  8
0
 10
45.6299
 20
43.1339
 30
0.0
 40
0
 41
0
  0
VERTEX
  8
0
 10
46.1851
 20
42.6799
 30
0.0
 40
0
 41
0
  0
VERTEX
  8
0
 10
46.7521
 20
42.2407
 30
0.0
 40
0
 41
0
  0
VERTEX
  8
0
 10
47.3304
 20
41.8169
 30
0.0
 40
0
 41
0
  0
VERTEX
  8
0
 10
47.9199
 20
41.4086
 30
0.0
 40
0
 41
0
  0
VERTEX
  8
0
 10
48.5199
 20
41.016
 30
0.0
 40
0
 41
0
  0
VERTEX
  8
0
 10
49.1304
 20
40.6393
 30
0.0
 40
0
 41
0
  0
VERTEX
  8
0
 10
49.751
 20
40.2789
 30
0.0
 40
0
 41
0
  0
VERTEX
  8
0
 10
50.3814
 20
39.9347
 30
0.0
 40
0
 41
0
  0
VERTEX
  8
0
 10
51.0213
 20
39.6074
 30
0.0
 40
0
 41
0
  0
VERTEX
  8
0
 10
51.6703
 20
39.2967
 30
0.0
 40
0
 41
0
  0
VERTEX
  8
0
 10
52.3281
 20
39.0032
 30
0.0
 40
0
 41
0
  0
VERTEX
  8
0
 10
52.9944
 20
38.7269
 30
0.0
 40
0
 41
0
  0
VERTEX
  8
0
 10
53.669
 20
38.4682
 30
0.0
 40
0
 41
0
  0
VERTEX
  8
0
 10
54.3514
 20
38.2272
 30
0.0
 40
0
 41
0
  0
VERTEX
  8
0
 10
55.0414
 20
38.0042
 30
0.0
 40
0
 41
0
  0
VERTEX
  8
0
 10
55.7387
 20
37.7993
 30
0.0
 40
0
 41
0
  0
VERTEX
  8
0
 10
56.4429
 20
37.6131
 30
0.0
 40
0
 41
0
  0
VERTEX
  8
0
 10
57.1537
 20
37.4453
 30
0.0
 40
0
 41
0
  0
VERTEX
  8
0
 10
57.6911
 20
37.3311
 30
0.0
 40
0
 41
0
  0
VERTEX
  8
0
 10
57.871
 20
37.2964
 30
0.0
 40
0
 41
0
  0
VERTEX
  8
0
 10
248.046
 20
0.499349
 30
0.0
 40
0
 41
0
  0
VERTEX
  8
0
 10
248.243
 20
0.461208
 30
0.0
 40
0
 41
0
  0
VERTEX
  8
0
 10
248.838
 20
0.358507
 30
0.0
 40
0
 41
0
  0
VERTEX
  8
0
 10
249.629
 20
0.241536
 30
0.0
 40
0
 41
0
  0
VERTEX
  8
0
 10
250.422
 20
0.148329
 30
0.0
 40
0
 41
0
  0
VERTEX
  8
0
 10
251.215
 20
0.0787761
 30
0.0
 40
0
 41
0
  0
VERTEX
  8
0
 10
252.007
 20
0.0327149
 30
0.0
 40
0
 41
0
  0
VERTEX
  8
0
 10
252.799
 20
0.0100369
 30
0.0
 40
0
 41
0
  0
VERTEX
  8
0
 10
253.589
 20
0.0105794
 30
0.0
 40
0
 41
0
  0
VERTEX
  8
0
 10
254.378
 20
0.0341797
 30
0.0
 40
0
 41
0
  0
VERTEX
  8
0
 10
255.164
 20
0.0807292
 30
0.0
 40
0
 41
0
  0
VERTEX
  8
0
 10
255.947
 20
0.150065
 30
0.0
 40
0
 41
0
  0
VERTEX
  8
0
 10
256.726
 20
0.242133
 30
0.0
 40
0
 41
0
  0
VERTEX
  8
0
 10
257.503
 20
0.356663
 30
0.0
 40
0
 41
0
  0
VERTEX
  8
0
 10
258.275
 20
0.493599
 30
0.0
 40
0
 41
0
  0
VERTEX
  8
0
 10
259.043
 20
0.652832
 30
0.0
 40
0
 41
0
  0
VERTEX
  8
0
 10
259.804
 20
0.834093
 30
0.0
 40
0
 41
0
  0
VERTEX
  8
0
 10
260.561
 20
1.03738
 30
0.0
 40
0
 41
0
  0
VERTEX
  8
0
 10
261.311
 20
1.26253
 30
0.0
 40
0
 41
0
  0
VERTEX
  8
0
 10
262.054
 20
1.50933
 30
0.0
 40
0
 41
0
  0
VERTEX
  8
0
 10
262.79
 20
1.77767
 30
0.0
 40
0
 41
0
  0
VERTEX
  8
0
 10
263.519
 20
2.06743
 30
0.0
 40
0
 41
0
  0
VERTEX
  8
0
 10
264.239
 20
2.37853
 30
0.0
 40
0
 41
0
  0
VERTEX
  8
0
 10
264.951
 20
2.71072
 30
0.0
 40
0
 41
0
  0
VERTEX
  8
0
 10
265.654
 20
3.06392
 30
0.0
 40
0
 41
0
  0
VERTEX
  8
0
 10
266.347
 20
3.43799
 30
0.0
 40
0
 41
0
  0
VERTEX
  8
0
 10
267.029
 20
3.83274
 30
0.0
 40
0
 41
0
  0
VERTEX
  8
0
 10
267.701
 20
4.24815
 30
0.0
 40
0
 41
0
  0
VERTEX
  8
0
 10
268.362
 20
4.68392
 30
0.0
 40
0
 41
0
  0
VERTEX
  8
0
 10
269.013
 20
5.14008
 30
0.0
 40
0
 41
0
  0
VERTEX
  8
0
 10
269.65
 20
5.61638
 30
0.0
 40
0
 41
0
  0
VERTEX
  8
0
 10
270.275
 20
6.11268
 30
0.0
 40
0
 41
0
  0
VERTEX
  8
0
 10
270.888
 20
6.6289
 30
0.0
 40
0
 41
0
  0
VERTEX
  8
0
 10
271.338
 20
7.02865
 30
0.0
 40
0
 41
0
  0
VERTEX
  8
0
 10
271.486
 20
7.16482
 30
0.0
 40
0
 41
0
  0
VERTEX
  8
0
 10
271.633
 20
7.301
 30
0.0
 40
0
 41
0
  0
VERTEX
  8
0
 10
272.068
 20
7.71832
 30
0.0
 40
0
 41
0
  0
VERTEX
  8
0
 10
272.632
 20
8.28689
 30
0.0
 40
0
 41
0
  0
VERTEX
  8
0
 10
273.176
 20
8.87007
 30
0.0
 40
0
 41
0
  0
VERTEX
  8
0
 10
273.703
 20
9.46733
 30
0.0
 40
0
 41
0
  0
VERTEX
  8
0
 10
274.208
 20
10.0782
 30
0.0
 40
0
 41
0
  0
VERTEX
  8
0
 10
274.696
 20
10.7023
 30
0.0
 40
0
 41
0
  0
VERTEX
  8
0
 10
275.164
 20
11.3391
 30
0.0
 40
0
 41
0
  0
VERTEX
  8
0
 10
275.612
 20
11.9881
 30
0.0
 40
0
 41
0
  0
VERTEX
  8
0
 10
276.042
 20
12.6489
 30
0.0
 40
0
 41
0
  0
VERTEX
  8
0
 10
276.45
 20
13.3209
 30
0.0
 40
0
 41
0
  0
VERTEX
  8
0
 10
276.838
 20
14.0038
 30
0.0
 40
0
 41
0
  0
VERTEX
  8
0
 10
277.206
 20
14.6968
 30
0.0
 40
0
 41
0
  0
VERTEX
  8
0
 10
277.553
 20
15.3999
 30
0.0
 40
0
 41
0
  0
VERTEX
  8
0
 10
277.879
 20
16.1121
 30
0.0
 40
0
 41
0
  0
VERTEX
  8
0
 10
278.185
 20
16.8333
 30
0.0
 40
0
 41
0
  0
VERTEX
  8
0
 10
278.469
 20
17.5631
 30
0.0
 40
0
 41
0
  0
VERTEX
  8
0
 10
278.733
 20
18.3006
 30
0.0
 40
0
 41
0
  0
VERTEX
  8
0
 10
278.975
 20
19.0457
 30
0.0
 40
0
 41
0
  0
VERTEX
  8
0
 10
279.194
 20
19.7976
 30
0.0
 40
0
 41
0
  0
VERTEX
  8
0
 10
279.393
 20
20.5563
 30
0.0
 40
0
 41
0
  0
VERTEX
  8
0
 10
279.569
 20
21.3208
 30
0.0
 40
0
 41
0
  0
VERTEX
  8
0
 10
279.724
 20
22.091
 30
0.0
 40
0
 41
0
  0
VERTEX
  8
0
 10
279.856
 20
22.8661
 30
0.0
 40
0
 41
0
  0
VERTEX
  8
0
 10
279.965
 20
23.6461
 30
0.0
 40
0
 41
0
  0
VERTEX
  8
0
 10
280.053
 20
24.43
 30
0.0
 40
0
 41
0
  0
VERTEX
  8
0
 10
280.117
 20
25.2176
 30
0.0
 40
0
 41
0
  0
VERTEX
  8
0
 10
280.157
 20
26.0085
 30
0.0
 40
0
 41
0
  0
VERTEX
  8
0
 10
280.175
 20
26.8021
 30
0.0
 40
0
 41
0
  0
VERTEX
  8
0
 10
280.169
 20
27.5978
 30
0.0
 40
0
 41
0
  0
VERTEX
  8
0
 10
280.14
 20
28.3954
 30
0.0
 40
0
 41
0
  0
VERTEX
  8
0
 10
280.088
 20
29.1942
 30
0.0
 40
0
 41
0
  0
VERTEX
  8
0
 10
280.032
 20
29.7943
 30
0.0
 40
0
 41
0
  0
VERTEX
  8
0
 10
280.01
 20
29.9938
 30
0.0
 40
0
 41
0
  0
VERTEX
  8
0
 10
279.987
 20
30.1935
 30
0.0
 40
0
 41
0
  0
VERTEX
  8
0
 10
279.91
 20
30.7908
 30
0.0
 40
0
 41
0
  0
VERTEX
  8
0
 10
279.785
 20
31.5818
 30
0.0
 40
0
 41
0
  0
VERTEX
  8
0
 10
279.639
 20
32.3663
 30
0.0
 40
0
 41
0
  0
VERTEX
  8
0
 10
279.469
 20
33.1439
 30
0.0
 40
0
 41
0
  0
VERTEX
  8
0
 10
279.278
 20
33.9142
 30
0.0
 40
0
 41
0
  0
VERTEX
  8
0
 10
279.064
 20
34.6765
 30
0.0
 40
0
 41
0
  0
VERTEX
  8
0
 10
278.828
 20
35.431
 30
0.0
 40
0
 41
0
  0
VERTEX
  8
0
 10
278.571
 20
36.1767
 30
0.0
 40
0
 41
0
  0
VERTEX
  8
0
 10
278.293
 20
36.9135
 30
0.0
 40
0
 41
0
  0
VERTEX
  8
0
 10
277.994
 20
37.6407
 30
0.0
 40
0
 41
0
  0
VERTEX
  8
0
 10
277.674
 20
38.3581
 30
0.0
 40
0
 41
0
  0
VERTEX
  8
0
 10
277.333
 20
39.0651
 30
0.0
 40
0
 41
0
  0
VERTEX
  8
0
 10
276.974
 20
39.7615
 30
0.0
 40
0
 41
0
  0
VERTEX
  8
0
 10
276.593
 20
40.4467
 30
0.0
 40
0
 41
0
  0
VERTEX
  8
0
 10
276.193
 20
41.1204
 30
0.0
 40
0
 41
0
  0
VERTEX
  8
0
 10
275.775
 20
41.7821
 30
0.0
 40
0
 41
0
  0
VERTEX
  8
0
 10
275.336
 20
42.4313
 30
0.0
 40
0
 41
0
  0
VERTEX
  8
0
 10
274.879
 20
43.0676
 30
0.0
 40
0
 41
0
  0
VERTEX
  8
0
 10
274.404
 20
43.6908
 30
0.0
 40
0
 41
0
  0
VERTEX
  8
0
 10
273.911
 20
44.3001
 30
0.0
 40
0
 41
0
  0
VERTEX
  8
0
 10
273.4
 20
44.8956
 30
0.0
 40
0
 41
0
  0
VERTEX
  8
0
 10
272.871
 20
45.4763
 30
0.0
 40
0
 41
0
  0
VERTEX
  8
0
 10
272.325
 20
46.0421
 30
0.0
 40
0
 41
0
  0
VERTEX
  8
0
 10
271.763
 20
46.5925
 30
0.0
 40
0
 41
0
  0
VERTEX
  8
0
 10
271.182
 20
47.1269
 30
0.0
 40
0
 41
0
  0
VERTEX
  8
0
 10
270.585
 20
47.6453
 30
0.0
 40
0
 41
0
  0
VERTEX
  8
0
 10
269.972
 20
48.1471
 30
0.0
 40
0
 41
0
  0
VERTEX
  8
0
 10
269.344
 20
48.6315
 30
0.0
 40
0
 41
0
  0
VERTEX
  8
0
 10
268.7
 20
49.0986
 30
0.0
 40
0
 41
0
  0
VERTEX
  8
0
 10
268.04
 20
49.5478
 30
0.0
 40
0
 41
0
  0
VERTEX
  8
0
 10
267.365
 20
49.9785
 30
0.0
 40
0
 41
0
  0
VERTEX
  8
0
 10
266.85
 20
50.29
 30
0.0
 40
0
 41
0
  0
VERTEX
  8
0
 10
266.675
 20
50.3904
 30
0.0
 40
0
 41
0
  0
VERTEX
  8
0
 10
173.144
 20
104.39
 30
0.0
 40
0
 41
0
  0
VERTEX
  8
0
 10
172.86
 20
104.555
 30
0.0
 40
0
 41
0
  0
VERTEX
  8
0
 10
171.986
 20
105.022
 30
0.0
 40
0
 41
0
  0
VERTEX
  8
0
 10
170.799
 20
105.596
 30
0.0
 40
0
 41
0
  0
VERTEX
  8
0
 10
169.583
 20
106.112
 30
0.0
 40
0
 41
0
  0
VERTEX
  8
0
 10
168.657
 20
106.461
 30
0.0
 40
0
 41
0
  0
VERTEX
  8
0
 10
168.344
 20
106.567
 30
0.0
 40
0
 41
0
  0
VERTEX
  8
0
 10
35.7003
 20
151.718
 30
0.0
 40
0
 41
0
  0
VERTEX
  8
0
 10
35.3743
 20
151.829
 30
0.0
 40
0
 41
0
  0
VERTEX
  8
0
 10
34.3851
 20
152.129
 30
0.0
 40
0
 41
0
  0
VERTEX
  8
0
 10
33.0569
 20
152.471
 30
0.0
 40
0
 41
0
  0
VERTEX
  8
0
 10
31.7182
 20
152.743
 30
0.0
 40
0
 41
0
  0
VERTEX
  8
0
 10
30.3718
 20
152.947
 30
0.0
 40
0
 41
0
  0
VERTEX
  8
0
 10
29.02
 20
153.083
 30
0.0
 40
0
 41
0
  0
VERTEX
  8
0
 10
27.6656
 20
153.15
 30
0.0
 40
0
 41
0
  0
VERTEX
  8
0
 10
26.311
 20
153.15
 30
0.0
 40
0
 41
0
  0
VERTEX
  8
0
 10
24.959
 20
153.082
 30
0.0
 40
0
 41
0
  0
VERTEX
  8
0
 10
23.6124
 20
152.946
 30
0.0
 40
0
 41
0
  0
VERTEX
  8
0
 10
22.2732
 20
152.742
 30
0.0
 40
0
 41
0
  0
VERTEX
  8
0
 10
20.9444
 20
152.471
 30
0.0
 40
0
 41
0
  0
VERTEX
  8
0
 10
19.6285
 20
152.133
 30
0.0
 40
0
 41
0
  0
VERTEX
  8
0
 10
18.3282
 20
151.728
 30
0.0
 40
0
 41
0
  0
VERTEX
  8
0
 10
17.046
 20
151.257
 30
0.0
 40
0
 41
0
  0
VERTEX
  8
0
 10
15.7844
 20
150.719
 30
0.0
 40
0
 41
0
  0
VERTEX
  8
0
 10
14.8517
 20
150.274
 30
0.0
 40
0
 41
0
  0
VERTEX
  8
0
 10
14.5461
 20
150.115
 30
0.0
 40
0
 41
0
  0
VERTEX
  8
0
 10
14.3932
 20
150.035
 30
0.0
 40
0
 41
0
  0
VERTEX
  8
0
 10
13.9382
 20
149.789
 30
0.0
 40
0
 41
0
  0
VERTEX
  8
0
 10
13.3403
 20
149.449
 30
0.0
 40
0
 41
0
  0
VERTEX
  8
0
 10
12.7526
 20
149.093
 30
0.0
 40
0
 41
0
  0
VERTEX
  8
0
 10
12.1753
 20
148.725
 30
0.0
 40
0
 41
0
  0
VERTEX
  8
0
 10
11.6086
 20
148.342
 30
0.0
 40
0
 41
0
  0
VERTEX
  8
0
 10
11.0528
 20
147.946
 30
0.0
 40
0
 41
0
  0
VERTEX
  8
0
 10
10.508
 20
147.536
 30
0.0
 40
0
 41
0
  0
VERTEX
  8
0
 10
9.9745
 20
147.114
 30
0.0
 40
0
 41
0
  0
VERTEX
  8
0
 10
9.45242
 20
146.679
 30
0.0
 40
0
 41
0
  0
VERTEX
  8
0
 10
8.942
 20
146.232
 30
0.0
 40
0
 41
0
  0
VERTEX
  8
0
 10
8.44342
 20
145.771
 30
0.0
 40
0
 41
0
  0
VERTEX
  8
0
 10
7.95692
 20
145.299
 30
0.0
 40
0
 41
0
  0
VERTEX
  8
0
 10
7.48275
 20
144.815
 30
0.0
 40
0
 41
0
  0
VERTEX
  8
0
 10
7.02106
 20
144.321
 30
0.0
 40
0
 41
0
  0
VERTEX
  8
0
 10
6.572
 20
143.814
 30
0.0
 40
0
 41
0
  0
VERTEX
  8
0
 10
6.1359
 20
143.296
 30
0.0
 40
0
 41
0
  0
VERTEX
  8
0
 10
5.71283
 20
142.768
 30
0.0
 40
0
 41
0
  0
VERTEX
  8
0
 10
5.30317
 20
142.229
 30
0.0
 40
0
 41
0
  0
VERTEX
  8
0
 10
4.90696
 20
141.679
 30
0.0
 40
0
 41
0
  0
VERTEX
  8
0
 10
4.52453
 20
141.121
 30
0.0
 40
0
 41
0
  0
VERTEX
  8
0
 10
4.15597
 20
140.551
 30
0.0
 40
0
 41
0
  0
VERTEX
  8
0
 10
3.8016
 20
139.974
 30
0.0
 40
0
 41
0
  0
VERTEX
  8
0
 10
3.46153
 20
139.385
 30
0.0
 40
0
 41
0
  0
VERTEX
  8
0
 10
3.13607
 20
138.789
 30
0.0
 40
0
 41
0
  0
VERTEX
  8
0
 10
2.82531
 20
138.183
 30
0.0
 40
0
 41
0
  0
VERTEX
  8
0
 10
2.52957
 20
137.569
 30
0.0
 40
0
 41
0
  0
VERTEX
  8
0
 10
2.24897
 20
136.947
 30
0.0
 40
0
 41
0
  0
VERTEX
  8
0
 10
1.98372
 20
136.317
 30
0.0
 40
0
 41
0
  0
VERTEX
  8
0
 10
1.7341
 20
135.679
 30
0.0
 40
0
 41
0
  0
VERTEX
  8
0
 10
1.50028
 20
135.034
 30
0.0
 40
0
 41
0
  0
VERTEX
  8
0
 10
1.28239
 20
134.381
 30
0.0
 40
0
 41
0
  0
VERTEX
  8
0
 10
1.12907
 20
133.887
 30
0.0
 40
0
 41
0
  0
VERTEX
  8
0
 10
1.08078
 20
133.721
 30
0.0
 40
0
 41
0
  0
VERTEX
  8
0
 10
0.984321
 20
133.391
 30
0.0
 40
0
 41
0
  0
VERTEX
  8
0
 10
0.728678
 20
132.389
 30
0.0
 40
0
 41
0
  0
VERTEX
  8
0
 10
0.446126
 20
131.047
 30
0.0
 40
0
 41
0
  0
VERTEX
  8
0
 10
0.232801
 20
129.698
 30
0.0
 40
0
 41
0
  0
VERTEX
  8
0
 10
0.0884332
 20
128.344
 30
0.0
 40
0
 41
0
  0
VERTEX
  8
0
 10
0.0126411
 20
126.987
 30
0.0
 40
0
 41
0
  0
VERTEX
  8
0
 10
0.00509983
 20
125.631
 30
0.0
 40
0
 41
0
  0
VERTEX
  8
0
 10
0.0655382
 20
124.278
 30
0.0
 40
0
 41
0
  0
VERTEX
  8
0
 10
0.193685
 20
122.93
 30
0.0
 40
0
 41
0
  0
VERTEX
  8
0
 10
0.38916
 20
121.591
 30
0.0
 40
0
 41
0
  0
VERTEX
  8
0
 10
0.651693
 20
120.262
 30
0.0
 40
0
 41
0
  0
VERTEX
  8
0
 10
0.980903
 20
118.947
 30
0.0
 40
0
 41
0
  0
VERTEX
  8
0
 10
1.37663
 20
117.647
 30
0.0
 40
0
 41
0
  0
VERTEX
  8
0
 10
1.83838
 20
116.366
 30
0.0
 40
0
 41
0
  0
VERTEX
  8
0
 10
2.36594
 20
115.105
 30
0.0
 40
0
 41
0
  0
VERTEX
  8
0
 10
2.95904
 20
113.869
 30
0.0
 40
0
 41
0
  0
VERTEX
  8
0
 10
3.4451
 20
112.957
 30
0.0
 40
0
 41
0
  0
VERTEX
  8
0
 10
3.61729
 20
112.658
 30
0.0
 40
0
 41
0
  0
VERTEX
  8
0
 10
39.6174
 20
50.3047
 30
0.0
 40
0
 41
0
  0
SEQEND
 8
0
  0
POLYLINE
  8
0
 62
     0
 66
     1
 10
0
 20
0
 30
0.0
 70
     1
 40
0
 41
0
  0
VERTEX
  8
0
 10
249.864
 20
32.7443
 30
0.0
 40
0
 41
0
  0
VERTEX
  8
0
 10
250.006
 20
32.8261
 30
0.0
 40
0
 41
0
  0
VERTEX
  8
0
 10
250.447
 20
33.0436
 30
0.0
 40
0
 41
0
  0
VERTEX
  8
0
 10
251.053
 20
33.2822
 30
0.0
 40
0
 41
0
  0
VERTEX
  8
0
 10
251.675
 20
33.4596
 30
0.0
 40
0
 41
0
  0
VERTEX
  8
0
 10
252.311
 20
33.575
 30
0.0
 40
0
 41
0
  0
VERTEX
  8
0
 10
252.956
 20
33.6281
 30
0.0
 40
0
 41
0
  0
VERTEX
  8
0
 10
253.603
 20
33.6179
 30
0.0
 40
0
 41
0
  0
VERTEX
  8
0
 10
254.249
 20
33.5442
 30
0.0
 40
0
 41
0
  0
VERTEX
  8
0
 10
254.732
 20
33.4483
 30
0.0
 40
0
 41
0
  0
VERTEX
  8
0
 10
254.89
 20
33.406
 30
0.0
 40
0
 41
0
  0
VERTEX
  8
0
 10
254.969
 20
33.3847
 30
0.0
 40
0
 41
0
  0
VERTEX
  8
0
 10
255.206
 20
33.3132
 30
0.0
 40
0
 41
0
  0
VERTEX
  8
0
 10
255.514
 20
33.2053
 30
0.0
 40
0
 41
0
  0
VERTEX
  8
0
 10
255.815
 20
33.0828
 30
0.0
 40
0
 41
0
  0
VERTEX
  8
0
 10
256.111
 20
32.946
 30
0.0
 40
0
 41
0
  0
VERTEX
  8
0
 10
256.397
 20
32.7951
 30
0.0
 40
0
 41
0
  0
VERTEX
  8
0
 10
256.676
 20
32.6308
 30
0.0
 40
0
 41
0
  0
VERTEX
  8
0
 10
256.947
 20
32.4533
 30
0.0
 40
0
 41
0
  0
VERTEX
  8
0
 10
257.208
 20
32.2629
 30
0.0
 40
0
 41
0
  0
VERTEX
  8
0
 10
257.46
 20
32.06
 30
0.0
 40
0
 41
0
  0
VERTEX
  8
0
 10
257.701
 20
31.845
 30
0.0
 40
0
 41
0
  0
VERTEX
  8
0
 10
257.932
 20
31.6181
 30
0.0
 40
0
 41
0
  0
VERTEX
  8
0
 10
258.151
 20
31.3799
 30
0.0
 40
0
 41
0
  0
VERTEX
  8
0
 10
258.36
 20
31.1306
 30
0.0
 40
0
 41
0
  0
VERTEX
  8
0
 10
258.557
 20
30.8706
 30
0.0
 40
0
 41
0
  0
VERTEX
  8
0
 10
258.74
 20
30.6001
 30
0.0
 40
0
 41
0
  0
VERTEX
  8
0
 10
258.871
 20
30.3908
 30
0.0
 40
0
 41
0
  0
VERTEX
  8
0
 10
258.912
 20
30.3197
 30
0.0
 40
0
 41
0
  0
VERTEX
  8
0
 10
258.994
 20
30.1781
 30
0.0
 40
0
 41
0
  0
VERTEX
  8
0
 10
259.211
 20
29.7365
 30
0.0
 40
0
 41
0
  0
VERTEX
  8
0
 10
259.45
 20
29.1311
 30
0.0
 40
0
 41
0
  0
VERTEX
  8
0
 10
259.628
 20
28.5082
 30
0.0
 40
0
 41
0
  0
VERTEX
  8
0
 10
259.743
 20
27.8724
 30
0.0
 40
0
 41
0
  0
VERTEX
  8
0
 10
259.796
 20
27.2283
 30
0.0
 40
0
 41
0
  0
VERTEX
  8
0
 10
259.786
 20
26.5806
 30
0.0
 40
0
 41
0
  0
VERTEX
  8
0
 10
259.713
 20
25.934
 30
0.0
 40
0
 41
0
  0
VERTEX
  8
0
 10
259.617
 20
25.4514
 30
0.0
 40
0
 41
0
  0
VERTEX
  8
0
 10
259.574
 20
25.2933
 30
0.0
 40
0
 41
0
  0
VERTEX
  8
0
 10
259.553
 20
25.214
 30
0.0
 40
0
 41
0
  0
VERTEX
  8
0
 10
259.481
 20
24.9782
 30
0.0
 40
0
 41
0
  0
VERTEX
  8
0
 10
259.374
 20
24.6693
 30
0.0
 40
0
 41
0
  0
VERTEX
  8
0
 10
259.25
 20
24.3674
 30
0.0
 40
0
 41
0
  0
VERTEX
  8
0
 10
259.114
 20
24.0725
 30
0.0
 40
0
 41
0
  0
VERTEX
  8
0
 10
258.963
 20
23.7854
 30
0.0
 40
0
 41
0
  0
VERTEX
  8
0
 10
258.799
 20
23.5065
 30
0.0
 40
0
 41
0
  0
VERTEX
  8
0
 10
258.621
 20
23.2364
 30
0.0
 40
0
 41
0
  0
VERTEX
  8
0
 10
258.431
 20
22.9753
 30
0.0
 40
0
 41
0
  0
VERTEX
  8
0
 10
258.228
 20
22.7237
 30
0.0
 40
0
 41
0
  0
VERTEX
  8
0
 10
258.013
 20
22.4824
 30
0.0
 40
0
 41
0
  0
VERTEX
  8
0
 10
257.786
 20
22.2515
 30
0.0
 40
0
 41
0
  0
VERTEX
  8
0
 10
257.547
 20
22.0315
 30
0.0
 40
0
 41
0
  0
VERTEX
  8
0
 10
257.299
 20
21.8232
 30
0.0
 40
0
 41
0
  0
VERTEX
  8
0
 10
257.039
 20
21.6265
 30
0.0
 40
0
 41
0
  0
VERTEX
  8
0
 10
256.768
 20
21.4425
 30
0.0
 40
0
 41
0
  0
VERTEX
  8
0
 10
256.558
 20
21.3122
 30
0.0
 40
0
 41
0
  0
VERTEX
  8
0
 10
256.487
 20
21.2711
 30
0.0
 40
0
 41
0
  0
VERTEX
  8
0
 10
256.346
 20
21.1893
 30
0.0
 40
0
 41
0
  0
VERTEX
  8
0
 10
255.904
 20
20.9719
 30
0.0
 40
0
 41
0
  0
VERTEX
  8
0
 10
255.299
 20
20.7333
 30
0.0
 40
0
 41
0
  0
VERTEX
  8
0
 10
254.676
 20
20.5558
 30
0.0
 40
0
 41
0
  0
VERTEX
  8
0
 10
254.04
 20
20.4404
 30
0.0
 40
0
 41
0
  0
VERTEX
  8
0
 10
253.396
 20
20.3874
 30
0.0
 40
0
 41
0
  0
VERTEX
  8
0
 10
252.749
 20
20.3975
 30
0.0
 40
0
 41
0
  0
VERTEX
  8
0
 10
252.101
 20
20.4713
 30
0.0
 40
0
 41
0
  0
VERTEX
  8
0
 10
251.619
 20
20.5671
 30
0.0
 40
0
 41
0
  0
VERTEX
  8
0
 10
251.461
 20
20.6094
 30
0.0
 40
0
 41
0
  0
VERTEX
  8
0
 10
251.382
 20
20.6307
 30
0.0
 40
0
 41
0
  0
VERTEX
  8
0
 10
251.146
 20
20.7024
 30
0.0
 40
0
 41
0
  0
VERTEX
  8
0
 10
250.838
 20
20.8103
 30
0.0
 40
0
 41
0
  0
VERTEX
  8
0
 10
250.535
 20
20.9328
 30
0.0
 40
0
 41
0
  0
VERTEX
  8
0
 10
250.24
 20
21.0696
 30
0.0
 40
0
 41
0
  0
VERTEX
  8
0
 10
249.953
 20
21.2203
 30
0.0
 40
0
 41
0
  0
VERTEX
  8
0
 10
249.674
 20
21.3846
 30
0.0
 40
0
 41
0
  0
VERTEX
  8
0
 10
249.404
 20
21.5622
 30
0.0
 40
0
 41
0
  0
VERTEX
  8
0
 10
249.143
 20
21.7525
 30
0.0
 40
0
 41
0
  0
VERTEX
  8
0
 10
248.892
 20
21.9554
 30
0.0
 40
0
 41
0
  0
VERTEX
  8
0
 10
248.65
 20
22.1706
 30
0.0
 40
0
 41
0
  0
VERTEX
  8
0
 10
248.419
 20
22.3974
 30
0.0
 40
0
 41
0
  0
VERTEX
  8
0
 10
248.199
 20
22.6356
 30
0.0
 40
0
 41
0
  0
VERTEX
  8
0
 10
247.99
 20
22.8849
 30
0.0
 40
0
 41
0
  0
VERTEX
  8
0
 10
247.794
 20
23.145
 30
0.0
 40
0
 41
0
  0
VERTEX
  8
0
 10
247.61
 20
23.4153
 30
0.0
 40
0
 41
0
  0
VERTEX
  8
0
 10
247.481
 20
23.6246
 30
0.0
 40
0
 41
0
  0
VERTEX
  8
0
 10
247.439
 20
23.6957
 30
0.0
 40
0
 41
0
  0
VERTEX
  8
0
 10
247.357
 20
23.8375
 30
0.0
 40
0
 41
0
  0
VERTEX
  8
0
 10
247.14
 20
24.2789
 30
0.0
 40
0
 41
0
  0
VERTEX
  8
0
 10
246.901
 20
24.8843
 30
0.0
 40
0
 41
0
  0
VERTEX
  8
0
 10
246.724
 20
25.5072
 30
0.0
 40
0
 41
0
  0
VERTEX
  8
0
 10
246.608
 20
26.1431
 30
0.0
 40
0
 41
0
  0
VERTEX
  8
0
 10
246.556
 20
26.7872
 30
0.0
 40
0
 41
0
  0
VERTEX
  8
0
 10
246.565
 20
27.4349
 30
0.0
 40
0
 41
0
  0
VERTEX
  8
0
 10
246.639
 20
28.0814
 30
0.0
 40
0
 41
0
  0
VERTEX
  8
0
 10
246.735
 20
28.564
 30
0.0
 40
0
 41
0
  0
VERTEX
  8
0
 10
246.778
 20
28.7221
 30
0.0
 40
0
 41
0
  0
VERTEX
  8
0
 10
246.799
 20
28.8014
 30
0.0
 40
0
 41
0
  0
VERTEX
  8
0
 10
246.869
 20
29.0374
 30
0.0
 40
0
 41
0
  0
VERTEX
  8
0
 10
246.978
 20
29.3461
 30
0.0
 40
0
 41
0
  0
VERTEX
  8
0
 10
247.1
 20
29.6482
 30
0.0
 40
0
 41
0
  0
VERTEX
  8
0
 10
247.237
 20
29.9429
 30
0.0
 40
0
 41
0
  0
VERTEX
  8
0
 10
247.388
 20
30.23
 30
0.0
 40
0
 41
0
  0
VERTEX
  8
0
 10
247.553
 20
30.5089
 30
0.0
 40
0
 41
0
  0
VERTEX
  8
0
 10
247.731
 20
30.779
 30
0.0
 40
0
 41
0
  0
VERTEX
  8
0
 10
247.921
 20
31.0401
 30
0.0
 40
0
 41
0
  0
VERTEX
  8
0
 10
248.124
 20
31.2917
 30
0.0
 40
0
 41
0
  0
VERTEX
  8
0
 10
248.339
 20
31.5331
 30
0.0
 40
0
 41
0
  0
VERTEX
  8
0
 10
248.565
 20
31.764
 30
0.0
 40
0
 41
0
  0
VERTEX
  8
0
 10
248.803
 20
31.9839
 30
0.0
 40
0
 41
0
  0
VERTEX
  8
0
 10
249.053
 20
32.1924
 30
0.0
 40
0
 41
0
  0
VERTEX
  8
0
 10
249.313
 20
32.3889
 30
0.0
 40
0
 41
0
  0
VERTEX
  8
0
 10
249.583
 20
32.5731
 30
0.0
 40
0
 41
0
  0
VERTEX
  8
0
 10
249.793
 20
32.7032
 30
0.0
 40
0
 41
0
  0
VERTEX
  8
0
 10
249.864
 20
32.7443
 30
0.0
 40
0
 41
0
  0
SEQEND
 8
0
  0
POLYLINE
  8
0
 62
     0
 66
     1
 10
0
 20
0
 30
0.0
 70
     1
 40
0
 41
0
  0
VERTEX
  8
0
 10
24.0481
 20
131.272
 30
0.0
 40
0
 41
0
  0
VERTEX
  8
0
 10
24.1743
 20
131.344
 30
0.0
 40
0
 41
0
  0
VERTEX
  8
0
 10
24.5678
 20
131.538
 30
0.0
 40
0
 41
0
  0
VERTEX
  8
0
 10
25.1074
 20
131.751
 30
0.0
 40
0
 41
0
  0
VERTEX
  8
0
 10
25.6626
 20
131.909
 30
0.0
 40
0
 41
0
  0
VERTEX
  8
0
 10
26.2293
 20
132.012
 30
0.0
 40
0
 41
0
  0
VERTEX
  8
0
 10
26.8033
 20
132.059
 30
0.0
 40
0
 41
0
  0
VERTEX
  8
0
 10
27.3807
 20
132.05
 30
0.0
 40
0
 41
0
  0
VERTEX
  8
0
 10
27.9568
 20
131.985
 30
0.0
 40
0
 41
0
  0
VERTEX
  8
0
 10
28.3871
 20
131.899
 30
0.0
 40
0
 41
0
  0
VERTEX
  8
0
 10
28.5281
 20
131.861
 30
0.0
 40
0
 41
0
  0
VERTEX
  8
0
 10
28.6689
 20
131.824
 30
0.0
 40
0
 41
0
  0
VERTEX
  8
0
 10
29.0842
 20
131.682
 30
0.0
 40
0
 41
0
  0
VERTEX
  8
0
 10
29.6161
 20
131.451
 30
0.0
 40
0
 41
0
  0
VERTEX
  8
0
 10
30.1206
 20
131.171
 30
0.0
 40
0
 41
0
  0
VERTEX
  8
0
 10
30.594
 20
130.843
 30
0.0
 40
0
 41
0
  0
VERTEX
  8
0
 10
31.0335
 20
130.47
 30
0.0
 40
0
 41
0
  0
VERTEX
  8
0
 10
31.4353
 20
130.056
 30
0.0
 40
0
 41
0
  0
VERTEX
  8
0
 10
31.7961
 20
129.602
 30
0.0
 40
0
 41
0
  0
VERTEX
  8
0
 10
32.04
 20
129.237
 30
0.0
 40
0
 41
0
  0
VERTEX
  8
0
 10
32.1131
 20
129.111
 30
0.0
 40
0
 41
0
  0
VERTEX
  8
0
 10
32.186
 20
128.984
 30
0.0
 40
0
 41
0
  0
VERTEX
  8
0
 10
32.3797
 20
128.591
 30
0.0
 40
0
 41
0
  0
VERTEX
  8
0
 10
32.5925
 20
128.051
 30
0.0
 40
0
 41
0
  0
VERTEX
  8
0
 10
32.7506
 20
127.496
 30
0.0
 40
0
 41
0
  0
VERTEX
  8
0
 10
32.8535
 20
126.929
 30
0.0
 40
0
 41
0
  0
VERTEX
  8
0
 10
32.9007
 20
126.355
 30
0.0
 40
0
 41
0
  0
VERTEX
  8
0
 10
32.8917
 20
125.778
 30
0.0
 40
0
 41
0
  0
VERTEX
  8
0
 10
32.826
 20
125.202
 30
0.0
 40
0
 41
0
  0
VERTEX
  8
0
 10
32.7406
 20
124.771
 30
0.0
 40
0
 41
0
  0
VERTEX
  8
0
 10
32.7029
 20
124.63
 30
0.0
 40
0
 41
0
  0
VERTEX
  8
0
 10
32.6651
 20
124.49
 30
0.0
 40
0
 41
0
  0
VERTEX
  8
0
 10
32.5239
 20
124.074
 30
0.0
 40
0
 41
0
  0
VERTEX
  8
0
 10
32.2928
 20
123.542
 30
0.0
 40
0
 41
0
  0
VERTEX
  8
0
 10
32.0119
 20
123.038
 30
0.0
 40
0
 41
0
  0
VERTEX
  8
0
 10
31.6839
 20
122.564
 30
0.0
 40
0
 41
0
  0
VERTEX
  8
0
 10
31.3114
 20
122.125
 30
0.0
 40
0
 41
0
  0
VERTEX
  8
0
 10
30.8968
 20
121.723
 30
0.0
 40
0
 41
0
  0
VERTEX
  8
0
 10
30.4429
 20
121.362
 30
0.0
 40
0
 41
0
  0
VERTEX
  8
0
 10
30.0783
 20
121.118
 30
0.0
 40
0
 41
0
  0
VERTEX
  8
0
 10
29.9519
 20
121.046
 30
0.0
 40
0
 41
0
  0
VERTEX
  8
0
 10
29.8257
 20
120.973
 30
0.0
 40
0
 41
0
  0
VERTEX
  8
0
 10
29.4321
 20
120.779
 30
0.0
 40
0
 41
0
  0
VERTEX
  8
0
 10
28.8926
 20
120.566
 30
0.0
 40
0
 41
0
  0
VERTEX
  8
0
 10
28.3374
 20
120.408
 30
0.0
 40
0
 41
0
  0
VERTEX
  8
0
 10
27.7706
 20
120.305
 30
0.0
 40
0
 41
0
  0
VERTEX
  8
0
 10
27.1965
 20
120.258
 30
0.0
 40
0
 41
0
  0
VERTEX
  8
0
 10
26.6193
 20
120.267
 30
0.0
 40
0
 41
0
  0
VERTEX
  8
0
 10
26.0431
 20
120.333
 30
0.0
 40
0
 41
0
  0
VERTEX
  8
0
 10
25.6129
 20
120.418
 30
0.0
 40
0
 41
0
  0
VERTEX
  8
0
 10
25.4719
 20
120.456
 30
0.0
 40
0
 41
0
  0
VERTEX
  8
0
 10
25.331
 20
120.493
 30
0.0
 40
0
 41
0
  0
VERTEX
  8
0
 10
24.9157
 20
120.635
 30
0.0
 40
0
 41
0
  0
VERTEX
  8
0
 10
24.3838
 20
120.866
 30
0.0
 40
0
 41
0
  0
VERTEX
  8
0
 10
23.8794
 20
121.147
 30
0.0
 40
0
 41
0
  0
VERTEX
  8
0
 10
23.4058
 20
121.475
 30
0.0
 40
0
 41
0
  0
VERTEX
  8
0
 10
22.9665
 20
121.847
 30
0.0
 40
0
 41
0
  0
VERTEX
  8
0
 10
22.5647
 20
122.262
 30
0.0
 40
0
 41
0
  0
VERTEX
  8
0
 10
22.2038
 20
122.716
 30
0.0
 40
0
 41
0
  0
VERTEX
  8
0
 10
21.9599
 20
123.08
 30
0.0
 40
0
 41
0
  0
VERTEX
  8
0
 10
21.8869
 20
123.207
 30
0.0
 40
0
 41
0
  0
VERTEX
  8
0
 10
21.814
 20
123.333
 30
0.0
 40
0
 41
0
  0
VERTEX
  8
0
 10
21.6203
 20
123.726
 30
0.0
 40
0
 41
0
  0
VERTEX
  8
0
 10
21.4075
 20
124.266
 30
0.0
 40
0
 41
0
  0
VERTEX
  8
0
 10
21.2494
 20
124.821
 30
0.0
 40
0
 41
0
  0
VERTEX
  8
0
 10
21.1465
 20
125.388
 30
0.0
 40
0
 41
0
  0
VERTEX
  8
0
 10
21.0992
 20
125.962
 30
0.0
 40
0
 41
0
  0
VERTEX
  8
0
 10
21.1082
 20
126.539
 30
0.0
 40
0
 41
0
  0
VERTEX
  8
0
 10
21.174
 20
127.116
 30
0.0
 40
0
 41
0
  0
VERTEX
  8
0
 10
21.2594
 20
127.546
 30
0.0
 40
0
 41
0
  0
VERTEX
  8
0
 10
21.2972
 20
127.687
 30
0.0
 40
0
 41
0
  0
VERTEX
  8
0
 10
21.3349
 20
127.828
 30
0.0
 40
0
 41
0
  0
VERTEX
  8
0
 10
21.4761
 20
128.243
 30
0.0
 40
0
 41
0
  0
VERTEX
  8
0
 10
21.7072
 20
128.775
 30
0.0
 40
0
 41
0
  0
VERTEX
  8
0
 10
21.9881
 20
129.279
 30
0.0
 40
0
 41
0
  0
VERTEX
  8
0
 10
22.316
 20
129.753
 30
0.0
 40
0
 41
0
  0
VERTEX
  8
0
 10
22.6885
 20
130.192
 30
0.0
 40
0
 41
0
  0
VERTEX
  8
0
 10
23.1031
 20
130.594
 30
0.0
 40
0
 41
0
  0
VERTEX
  8
0
 10
23.5571
 20
130.955
 30
0.0
 40
0
 41
0
  0
VERTEX
  8
0
 10
23.9217
 20
131.199
 30
0.0
 40
0
 41
0
  0
VERTEX
  8
0
 10
24.0481
 20
131.272
 30
0.0
 40
0
 41
0
  0
SEQEND
 8
0
  0
POLYLINE
  8
0
 62
     0
 66
     1
 10
0
 20
0
 30
0.0
 70
     1
 40
0
 41
0
  0
VERTEX
  8
0
 10
154.244
 20
90.3608
 30
0.0
 40
0
 41
0
  0
VERTEX
  8
0
 10
154.361
 20
90.4278
 30
0.0
 40
0
 41
0
  0
VERTEX
  8
0
 10
154.715
 20
90.6171
 30
0.0
 40
0
 41
0
  0
VERTEX
  8
0
 10
155.196
 20
90.8487
 30
0.0
 40
0
 41
0
  0
VERTEX
  8
0
 10
155.685
 20
91.0557
 30
0.0
 40
0
 41
0
  0
VERTEX
  8
0
 10
156.182
 20
91.2379
 30
0.0
 40
0
 41
0
  0
VERTEX
  8
0
 10
156.688
 20
91.395
 30
0.0
 40
0
 41
0
  0
VERTEX
  8
0
 10
157.199
 20
91.5271
 30
0.0
 40
0
 41
0
  0
VERTEX
  8
0
 10
157.714
 20
91.6339
 30
0.0
 40
0
 41
0
  0
VERTEX
  8
0
 10
158.235
 20
91.7153
 30
0.0
 40
0
 41
0
  0
VERTEX
  8
0
 10
158.758
 20
91.7714
 30
0.0
 40
0
 41
0
  0
VERTEX
  8
0
 10
159.285
 20
91.8018
 30
0.0
 40
0
 41
0
  0
VERTEX
  8
0
 10
159.813
 20
91.8065
 30
0.0
 40
0
 41
0
  0
VERTEX
  8
0
 10
160.342
 20
91.7853
 30
0.0
 40
0
 41
0
  0
VERTEX
  8
0
 10
160.869
 20
91.7382
 30
0.0
 40
0
 41
0
  0
VERTEX
  8
0
 10
161.396
 20
91.665
 30
0.0
 40
0
 41
0
  0
VERTEX
  8
0
 10
161.919
 20
91.5656
 30
0.0
 40
0
 41
0
  0
VERTEX
  8
0
 10
162.311
 20
91.4744
 30
0.0
 40
0
 41
0
  0
VERTEX
  8
0
 10
162.44
 20
91.4397
 30
0.0
 40
0
 41
0
  0
VERTEX
  8
0
 10
162.569
 20
91.4051
 30
0.0
 40
0
 41
0
  0
VERTEX
  8
0
 10
162.954
 20
91.2883
 30
0.0
 40
0
 41
0
  0
VERTEX
  8
0
 10
163.457
 20
91.1124
 30
0.0
 40
0
 41
0
  0
VERTEX
  8
0
 10
163.95
 20
90.9126
 30
0.0
 40
0
 41
0
  0
VERTEX
  8
0
 10
164.431
 20
90.6896
 30
0.0
 40
0
 41
0
  0
VERTEX
  8
0
 10
164.899
 20
90.4438
 30
0.0
 40
0
 41
0
  0
VERTEX
  8
0
 10
165.353
 20
90.1758
 30
0.0
 40
0
 41
0
  0
VERTEX
  8
0
 10
165.793
 20
89.8864
 30
0.0
 40
0
 41
0
  0
VERTEX
  8
0
 10
166.219
 20
89.576
 30
0.0
 40
0
 41
0
  0
VERTEX
  8
0
 10
166.629
 20
89.2451
 30
0.0
 40
0
 41
0
  0
VERTEX
  8
0
 10
167.024
 20
88.8946
 30
0.0
 40
0
 41
0
  0
VERTEX
  8
0
 10
167.4
 20
88.5247
 30
0.0
 40
0
 41
0
  0
VERTEX
  8
0
 10
167.758
 20
88.1363
 30
0.0
 40
0
 41
0
  0
VERTEX
  8
0
 10
168.097
 20
87.7297
 30
0.0
 40
0
 41
0
  0
VERTEX
  8
0
 10
168.418
 20
87.3058
 30
0.0
 40
0
 41
0
  0
VERTEX
  8
0
 10
168.718
 20
86.8649
 30
0.0
 40
0
 41
0
  0
VERTEX
  8
0
 10
168.931
 20
86.5238
 30
0.0
 40
0
 41
0
  0
VERTEX
  8
0
 10
168.997
 20
86.4078
 30
0.0
 40
0
 41
0
  0
VERTEX
  8
0
 10
169.065
 20
86.2918
 30
0.0
 40
0
 41
0
  0
VERTEX
  8
0
 10
169.254
 20
85.9374
 30
0.0
 40
0
 41
0
  0
VERTEX
  8
0
 10
169.486
 20
85.4568
 30
0.0
 40
0
 41
0
  0
VERTEX
  8
0
 10
169.693
 20
84.9674
 30
0.0
 40
0
 41
0
  0
VERTEX
  8
0
 10
169.875
 20
84.4699
 30
0.0
 40
0
 41
0
  0
VERTEX
  8
0
 10
170.032
 20
83.965
 30
0.0
 40
0
 41
0
  0
VERTEX
  8
0
 10
170.164
 20
83.4542
 30
0.0
 40
0
 41
0
  0
VERTEX
  8
0
 10
170.271
 20
82.9379
 30
0.0
 40
0
 41
0
  0
VERTEX
  8
0
 10
170.353
 20
82.4174
 30
0.0
 40
0
 41
0
  0
VERTEX
  8
0
 10
170.408
 20
81.8936
 30
0.0
 40
0
 41
0
  0
VERTEX
  8
0
 10
170.439
 20
81.3674
 30
0.0
 40
0
 41
0
  0
VERTEX
  8
0
 10
170.443
 20
80.8396
 30
0.0
 40
0
 41
0
  0
VERTEX
  8
0
 10
170.422
 20
80.3114
 30
0.0
 40
0
 41
0
  0
VERTEX
  8
0
 10
170.375
 20
79.7836
 30
0.0
 40
0
 41
0
  0
VERTEX
  8
0
 10
170.301
 20
79.2572
 30
0.0
 40
0
 41
0
  0
VERTEX
  8
0
 10
170.203
 20
78.7332
 30
0.0
 40
0
 41
0
  0
VERTEX
  8
0
 10
170.111
 20
78.3418
 30
0.0
 40
0
 41
0
  0
VERTEX
  8
0
 10
170.076
 20
78.2125
 30
0.0
 40
0
 41
0
  0
VERTEX
  8
0
 10
170.042
 20
78.0832
 30
0.0
 40
0
 41
0
  0
VERTEX
  8
0
 10
169.925
 20
77.6986
 30
0.0
 40
0
 41
0
  0
VERTEX
  8
0
 10
169.75
 20
77.1951
 30
0.0
 40
0
 41
0
  0
VERTEX
  8
0
 10
169.55
 20
76.7026
 30
0.0
 40
0
 41
0
  0
VERTEX
  8
0
 10
169.326
 20
76.2219
 30
0.0
 40
0
 41
0
  0
VERTEX
  8
0
 10
169.081
 20
75.754
 30
0.0
 40
0
 41
0
  0
VERTEX
  8
0
 10
168.813
 20
75.2993
 30
0.0
 40
0
 41
0
  0
VERTEX
  8
0
 10
168.524
 20
74.8588
 30
0.0
 40
0
 41
0
  0
VERTEX
  8
0
 10
168.212
 20
74.4331
 30
0.0
 40
0
 41
0
  0
VERTEX
  8
0
 10
167.882
 20
74.0231
 30
0.0
 40
0
 41
0
  0
VERTEX
  8
0
 10
167.532
 20
73.6294
 30
0.0
 40
0
 41
0
  0
VERTEX
  8
0
 10
167.161
 20
73.2529
 30
0.0
 40
0
 41
0
  0
VERTEX
  8
0
 10
166.774
 20
72.8944
 30
0.0
 40
0
 41
0
  0
VERTEX
  8
0
 10
166.367
 20
72.5546
 30
0.0
 40
0
 41
0
  0
VERTEX
  8
0
 10
165.943
 20
72.2342
 30
0.0
 40
0
 41
0
  0
VERTEX
  8
0
 10
165.501
 20
71.9339
 30
0.0
 40
0
 41
0
  0
VERTEX
  8
0
 10
165.161
 20
71.7215
 30
0.0
 40
0
 41
0
  0
VERTEX
  8
0
 10
165.044
 20
71.6546
 30
0.0
 40
0
 41
0
  0
VERTEX
  8
0
 10
164.929
 20
71.5878
 30
0.0
 40
0
 41
0
  0
VERTEX
  8
0
 10
164.574
 20
71.3983
 30
0.0
 40
0
 41
0
  0
VERTEX
  8
0
 10
164.094
 20
71.1667
 30
0.0
 40
0
 41
0
  0
VERTEX
  8
0
 10
163.604
 20
70.9597
 30
0.0
 40
0
 41
0
  0
VERTEX
  8
0
 10
163.107
 20
70.7776
 30
0.0
 40
0
 41
0
  0
VERTEX
  8
0
 10
162.601
 20
70.6206
 30
0.0
 40
0
 41
0
  0
VERTEX
  8
0
 10
162.092
 20
70.4885
 30
0.0
 40
0
 41
0
  0
VERTEX
  8
0
 10
161.575
 20
70.3817
 30
0.0
 40
0
 41
0
  0
VERTEX
  8
0
 10
161.054
 20
70.3001
 30
0.0
 40
0
 41
0
  0
VERTEX
  8
0
 10
160.531
 20
70.244
 30
0.0
 40
0
 41
0
  0
VERTEX
  8
0
 10
160.004
 20
70.2138
 30
0.0
 40
0
 41
0
  0
VERTEX
  8
0
 10
159.476
 20
70.209
 30
0.0
 40
0
 41
0
  0
VERTEX
  8
0
 10
158.949
 20
70.2301
 30
0.0
 40
0
 41
0
  0
VERTEX
  8
0
 10
158.421
 20
70.2772
 30
0.0
 40
0
 41
0
  0
VERTEX
  8
0
 10
157.894
 20
70.3504
 30
0.0
 40
0
 41
0
  0
VERTEX
  8
0
 10
157.371
 20
70.4499
 30
0.0
 40
0
 41
0
  0
VERTEX
  8
0
 10
156.979
 20
70.5411
 30
0.0
 40
0
 41
0
  0
VERTEX
  8
0
 10
156.85
 20
70.5757
 30
0.0
 40
0
 41
0
  0
VERTEX
  8
0
 10
156.721
 20
70.6104
 30
0.0
 40
0
 41
0
  0
VERTEX
  8
0
 10
156.336
 20
70.7272
 30
0.0
 40
0
 41
0
  0
VERTEX
  8
0
 10
155.832
 20
70.9031
 30
0.0
 40
0
 41
0
  0
VERTEX
  8
0
 10
155.34
 20
71.1028
 30
0.0
 40
0
 41
0
  0
VERTEX
  8
0
 10
154.858
 20
71.3258
 30
0.0
 40
0
 41
0
  0
VERTEX
  8
0
 10
154.39
 20
71.5717
 30
0.0
 40
0
 41
0
  0
VERTEX
  8
0
 10
153.936
 20
71.8396
 30
0.0
 40
0
 41
0
  0
VERTEX
  8
0
 10
153.496
 20
72.129
 30
0.0
 40
0
 41
0
  0
VERTEX
  8
0
 10
153.069
 20
72.4394
 30
0.0
 40
0
 41
0
  0
VERTEX
  8
0
 10
152.66
 20
72.7703
 30
0.0
 40
0
 41
0
  0
VERTEX
  8
0
 10
152.267
 20
73.121
 30
0.0
 40
0
 41
0
  0
VERTEX
  8
0
 10
151.89
 20
73.4908
 30
0.0
 40
0
 41
0
  0
VERTEX
  8
0
 10
151.532
 20
73.8792
 30
0.0
 40
0
 41
0
  0
VERTEX
  8
0
 10
151.192
 20
74.2857
 30
0.0
 40
0
 41
0
  0
VERTEX
  8
0
 10
150.871
 20
74.7097
 30
0.0
 40
0
 41
0
  0
VERTEX
  8
0
 10
150.571
 20
75.1506
 30
0.0
 40
0
 41
0
  0
VERTEX
  8
0
 10
150.358
 20
75.4918
 30
0.0
 40
0
 41
0
  0
VERTEX
  8
0
 10
150.292
 20
75.6076
 30
0.0
 40
0
 41
0
  0
VERTEX
  8
0
 10
150.225
 20
75.7236
 30
0.0
 40
0
 41
0
  0
VERTEX
  8
0
 10
150.035
 20
76.0782
 30
0.0
 40
0
 41
0
  0
VERTEX
  8
0
 10
149.804
 20
76.5586
 30
0.0
 40
0
 41
0
  0
VERTEX
  8
0
 10
149.597
 20
77.0481
 30
0.0
 40
0
 41
0
  0
VERTEX
  8
0
 10
149.415
 20
77.5457
 30
0.0
 40
0
 41
0
  0
VERTEX
  8
0
 10
149.257
 20
78.0504
 30
0.0
 40
0
 41
0
  0
VERTEX
  8
0
 10
149.125
 20
78.5614
 30
0.0
 40
0
 41
0
  0
VERTEX
  8
0
 10
149.018
 20
79.0775
 30
0.0
 40
0
 41
0
  0
VERTEX
  8
0
 10
148.938
 20
79.5981
 30
0.0
 40
0
 41
0
  0
VERTEX
  8
0
 10
148.881
 20
80.1219
 30
0.0
 40
0
 41
0
  0
VERTEX
  8
0
 10
148.851
 20
80.6482
 30
0.0
 40
0
 41
0
  0
VERTEX
  8
0
 10
148.846
 20
81.1758
 30
0.0
 40
0
 41
0
  0
VERTEX
  8
0
 10
148.867
 20
81.7042
 30
0.0
 40
0
 41
0
  0
VERTEX
  8
0
 10
148.914
 20
82.2319
 30
0.0
 40
0
 41
0
  0
VERTEX
  8
0
 10
148.987
 20
82.7582
 30
0.0
 40
0
 41
0
  0
VERTEX
  8
0
 10
149.087
 20
83.2822
 30
0.0
 40
0
 41
0
  0
VERTEX
  8
0
 10
149.178
 20
83.6736
 30
0.0
 40
0
 41
0
  0
VERTEX
  8
0
 10
149.212
 20
83.8029
 30
0.0
 40
0
 41
0
  0
VERTEX
  8
0
 10
149.247
 20
83.9324
 30
0.0
 40
0
 41
0
  0
VERTEX
  8
0
 10
149.364
 20
84.3168
 30
0.0
 40
0
 41
0
  0
VERTEX
  8
0
 10
149.54
 20
84.8204
 30
0.0
 40
0
 41
0
  0
VERTEX
  8
0
 10
149.74
 20
85.3128
 30
0.0
 40
0
 41
0
  0
VERTEX
  8
0
 10
149.962
 20
85.7935
 30
0.0
 40
0
 41
0
  0
VERTEX
  8
0
 10
150.208
 20
86.2615
 30
0.0
 40
0
 41
0
  0
VERTEX
  8
0
 10
150.476
 20
86.7161
 30
0.0
 40
0
 41
0
  0
VERTEX
  8
0
 10
150.767
 20
87.1567
 30
0.0
 40
0
 41
0
  0
VERTEX
  8
0
 10
151.076
 20
87.5824
 30
0.0
 40
0
 41
0
  0
VERTEX
  8
0
 10
151.407
 20
87.9924
 30
0.0
 40
0
 41
0
  0
VERTEX
  8
0
 10
151.758
 20
88.386
 30
0.0
 40
0
 41
0
  0
VERTEX
  8
0
 10
152.128
 20
88.7625
 30
0.0
 40
0
 41
0
  0
VERTEX
  8
0
 10
152.517
 20
89.121
 30
0.0
 40
0
 41
0
  0
VERTEX
  8
0
 10
152.922
 20
89.4608
 30
0.0
 40
0
 41
0
  0
VERTEX
  8
0
 10
153.347
 20
89.7813
 30
0.0
 40
0
 41
0
  0
VERTEX
  8
0
 10
153.788
 20
90.0815
 30
0.0
 40
0
 41
0
  0
VERTEX
  8
0
 10
154.129
 20
90.2939
 30
0.0
 40
0
 41
0
  0
VERTEX
  8
0
 10
154.244
 20
90.3608
 30
0.0
 40
0
 41
0
  0
SEQEND
 8
0
  0
POLYLINE
  8
0
 62
     0
 66
     1
 10
0
 20
0
 30
0.0
 70
     1
 40
0
 41
0
  0
VERTEX
  8
0
 10
218.686
 20
50.7443
 30
0.0
 40
0
 41
0
  0
VERTEX
  8
0
 10
218.828
 20
50.8261
 30
0.0
 40
0
 41
0
  0
VERTEX
  8
0
 10
219.269
 20
51.0436
 30
0.0
 40
0
 41
0
  0
VERTEX
  8
0
 10
219.875
 20
51.2822
 30
0.0
 40
0
 41
0
  0
VERTEX
  8
0
 10
220.499
 20
51.4596
 30
0.0
 40
0
 41
0
  0
VERTEX
  8
0
 10
221.133
 20
51.575
 30
0.0
 40
0
 41
0
  0
VERTEX
  8
0
 10
221.778
 20
51.6281
 30
0.0
 40
0
 41
0
  0
VERTEX
  8
0
 10
222.425
 20
51.6179
 30
0.0
 40
0
 41
0
  0
VERTEX
  8
0
 10
223.072
 20
51.5442
 30
0.0
 40
0
 41
0
  0
VERTEX
  8
0
 10
223.556
 20
51.4483
 30
0.0
 40
0
 41
0
  0
VERTEX
  8
0
 10
223.712
 20
51.406
 30
0.0
 40
0
 41
0
  0
VERTEX
  8
0
 10
223.792
 20
51.3847
 30
0.0
 40
0
 41
0
  0
VERTEX
  8
0
 10
224.028
 20
51.3132
 30
0.0
 40
0
 41
0
  0
VERTEX
  8
0
 10
224.337
 20
51.2053
 30
0.0
 40
0
 41
0
  0
VERTEX
  8
0
 10
224.639
 20
51.0828
 30
0.0
 40
0
 41
0
  0
VERTEX
  8
0
 10
224.933
 20
50.946
 30
0.0
 40
0
 41
0
  0
VERTEX
  8
0
 10
225.221
 20
50.7951
 30
0.0
 40
0
 41
0
  0
VERTEX
  8
0
 10
225.5
 20
50.6308
 30
0.0
 40
0
 41
0
  0
VERTEX
  8
0
 10
225.769
 20
50.4533
 30
0.0
 40
0
 41
0
  0
VERTEX
  8
0
 10
226.031
 20
50.2629
 30
0.0
 40
0
 41
0
  0
VERTEX
  8
0
 10
226.282
 20
50.06
 30
0.0
 40
0
 41
0
  0
VERTEX
  8
0
 10
226.524
 20
49.845
 30
0.0
 40
0
 41
0
  0
VERTEX
  8
0
 10
226.754
 20
49.6181
 30
0.0
 40
0
 41
0
  0
VERTEX
  8
0
 10
226.975
 20
49.3799
 30
0.0
 40
0
 41
0
  0
VERTEX
  8
0
 10
227.183
 20
49.1306
 30
0.0
 40
0
 41
0
  0
VERTEX
  8
0
 10
227.379
 20
48.8706
 30
0.0
 40
0
 41
0
  0
VERTEX
  8
0
 10
227.564
 20
48.6001
 30
0.0
 40
0
 41
0
  0
VERTEX
  8
0
 10
227.694
 20
48.3908
 30
0.0
 40
0
 41
0
  0
VERTEX
  8
0
 10
227.735
 20
48.3197
 30
0.0
 40
0
 41
0
  0
VERTEX
  8
0
 10
227.817
 20
48.1781
 30
0.0
 40
0
 41
0
  0
VERTEX
  8
0
 10
228.035
 20
47.7365
 30
0.0
 40
0
 41
0
  0
VERTEX
  8
0
 10
228.274
 20
47.1311
 30
0.0
 40
0
 41
0
  0
VERTEX
  8
0
 10
228.45
 20
46.5082
 30
0.0
 40
0
 41
0
  0
VERTEX
  8
0
 10
228.565
 20
45.8724
 30
0.0
 40
0
 41
0
  0
VERTEX
  8
0
 10
228.619
 20
45.2283
 30
0.0
 40
0
 41
0
  0
VERTEX
  8
0
 10
228.608
 20
44.5806
 30
0.0
 40
0
 41
0
  0
VERTEX
  8
0
 10
228.535
 20
43.934
 30
0.0
 40
0
 41
0
  0
VERTEX
  8
0
 10
228.439
 20
43.4514
 30
0.0
 40
0
 41
0
  0
VERTEX
  8
0
 10
228.397
 20
43.2933
 30
0.0
 40
0
 41
0
  0
VERTEX
  8
0
 10
228.375
 20
43.214
 30
0.0
 40
0
 41
0
  0
VERTEX
  8
0
 10
228.304
 20
42.9782
 30
0.0
 40
0
 41
0
  0
VERTEX
  8
0
 10
228.196
 20
42.6693
 30
0.0
 40
0
 41
0
  0
VERTEX
  8
0
 10
228.074
 20
42.3674
 30
0.0
 40
0
 41
0
  0
VERTEX
  8
0
 10
227.936
 20
42.0725
 30
0.0
 40
0
 41
0
  0
VERTEX
  8
0
 10
227.786
 20
41.7854
 30
0.0
 40
0
 41
0
  0
VERTEX
  8
0
 10
227.622
 20
41.5065
 30
0.0
 40
0
 41
0
  0
VERTEX
  8
0
 10
227.444
 20
41.2364
 30
0.0
 40
0
 41
0
  0
VERTEX
  8
0
 10
227.254
 20
40.9753
 30
0.0
 40
0
 41
0
  0
VERTEX
  8
0
 10
227.051
 20
40.7238
 30
0.0
 40
0
 41
0
  0
VERTEX
  8
0
 10
226.836
 20
40.4824
 30
0.0
 40
0
 41
0
  0
VERTEX
  8
0
 10
226.608
 20
40.2515
 30
0.0
 40
0
 41
0
  0
VERTEX
  8
0
 10
226.371
 20
40.0315
 30
0.0
 40
0
 41
0
  0
VERTEX
  8
0
 10
226.121
 20
39.8232
 30
0.0
 40
0
 41
0
  0
VERTEX
  8
0
 10
225.861
 20
39.6265
 30
0.0
 40
0
 41
0
  0
VERTEX
  8
0
 10
225.59
 20
39.4425
 30
0.0
 40
0
 41
0
  0
VERTEX
  8
0
 10
225.382
 20
39.3122
 30
0.0
 40
0
 41
0
  0
VERTEX
  8
0
 10
225.311
 20
39.2711
 30
0.0
 40
0
 41
0
  0
VERTEX
  8
0
 10
225.169
 20
39.1893
 30
0.0
 40
0
 41
0
  0
VERTEX
  8
0
 10
224.728
 20
38.9719
 30
0.0
 40
0
 41
0
  0
VERTEX
  8
0
 10
224.122
 20
38.7333
 30
0.0
 40
0
 41
0
  0
VERTEX
  8
0
 10
223.499
 20
38.5558
 30
0.0
 40
0
 41
0
  0
VERTEX
  8
0
 10
222.862
 20
38.4404
 30
0.0
 40
0
 41
0
  0
VERTEX
  8
0
 10
222.219
 20
38.3874
 30
0.0
 40
0
 41
0
  0
VERTEX
  8
0
 10
221.571
 20
38.3975
 30
0.0
 40
0
 41
0
  0
VERTEX
  8
0
 10
220.925
 20
38.4712
 30
0.0
 40
0
 41
0
  0
VERTEX
  8
0
 10
220.442
 20
38.5671
 30
0.0
 40
0
 41
0
  0
VERTEX
  8
0
 10
220.285
 20
38.6094
 30
0.0
 40
0
 41
0
  0
VERTEX
  8
0
 10
220.204
 20
38.6307
 30
0.0
 40
0
 41
0
  0
VERTEX
  8
0
 10
219.969
 20
38.7024
 30
0.0
 40
0
 41
0
  0
VERTEX
  8
0
 10
219.66
 20
38.8103
 30
0.0
 40
0
 41
0
  0
VERTEX
  8
0
 10
219.358
 20
38.9328
 30
0.0
 40
0
 41
0
  0
VERTEX
  8
0
 10
219.064
 20
39.0696
 30
0.0
 40
0
 41
0
  0
VERTEX
  8
0
 10
218.776
 20
39.2203
 30
0.0
 40
0
 41
0
  0
VERTEX
  8
0
 10
218.497
 20
39.3846
 30
0.0
 40
0
 41
0
  0
VERTEX
  8
0
 10
218.228
 20
39.5621
 30
0.0
 40
0
 41
0
  0
VERTEX
  8
0
 10
217.967
 20
39.7525
 30
0.0
 40
0
 41
0
  0
VERTEX
  8
0
 10
217.715
 20
39.9554
 30
0.0
 40
0
 41
0
  0
VERTEX
  8
0
 10
217.474
 20
40.1704
 30
0.0
 40
0
 41
0
  0
VERTEX
  8
0
 10
217.242
 20
40.3974
 30
0.0
 40
0
 41
0
  0
VERTEX
  8
0
 10
217.022
 20
40.6356
 30
0.0
 40
0
 41
0
  0
VERTEX
  8
0
 10
216.814
 20
40.8849
 30
0.0
 40
0
 41
0
  0
VERTEX
  8
0
 10
216.618
 20
41.1449
 30
0.0
 40
0
 41
0
  0
VERTEX
  8
0
 10
216.433
 20
41.4153
 30
0.0
 40
0
 41
0
  0
VERTEX
  8
0
 10
216.303
 20
41.6246
 30
0.0
 40
0
 41
0
  0
VERTEX
  8
0
 10
216.263
 20
41.6957
 30
0.0
 40
0
 41
0
  0
VERTEX
  8
0
 10
216.181
 20
41.8375
 30
0.0
 40
0
 41
0
  0
VERTEX
  8
0
 10
215.962
 20
42.2789
 30
0.0
 40
0
 41
0
  0
VERTEX
  8
0
 10
215.724
 20
42.8843
 30
0.0
 40
0
 41
0
  0
VERTEX
  8
0
 10
215.547
 20
43.5072
 30
0.0
 40
0
 41
0
  0
VERTEX
  8
0
 10
215.431
 20
44.1431
 30
0.0
 40
0
 41
0
  0
VERTEX
  8
0
 10
215.378
 20
44.7872
 30
0.0
 40
0
 41
0
  0
VERTEX
  8
0
 10
215.389
 20
45.4349
 30
0.0
 40
0
 41
0
  0
VERTEX
  8
0
 10
215.462
 20
46.0814
 30
0.0
 40
0
 41
0
  0
VERTEX
  8
0
 10
215.558
 20
46.564
 30
0.0
 40
0
 41
0
  0
VERTEX
  8
0
 10
215.6
 20
46.7221
 30
0.0
 40
0
 41
0
  0
VERTEX
  8
0
 10
215.621
 20
46.8014
 30
0.0
 40
0
 41
0
  0
VERTEX
  8
0
 10
215.693
 20
47.0374
 30
0.0
 40
0
 41
0
  0
VERTEX
  8
0
 10
215.801
 20
47.3461
 30
0.0
 40
0
 41
0
  0
VERTEX
  8
0
 10
215.924
 20
47.6482
 30
0.0
 40
0
 41
0
  0
VERTEX
  8
0
 10
216.06
 20
47.9429
 30
0.0
 40
0
 41
0
  0
VERTEX
  8
0
 10
216.211
 20
48.23
 30
0.0
 40
0
 41
0
  0
VERTEX
  8
0
 10
216.375
 20
48.5089
 30
0.0
 40
0
 41
0
  0
VERTEX
  8
0
 10
216.553
 20
48.779
 30
0.0
 40
0
 41
0
  0
VERTEX
  8
0
 10
216.743
 20
49.0401
 30
0.0
 40
0
 41
0
  0
VERTEX
  8
0
 10
216.946
 20
49.2917
 30
0.0
 40
0
 41
0
  0
VERTEX
  8
0
 10
217.161
 20
49.5331
 30
0.0
 40
0
 41
0
  0
VERTEX
  8
0
 10
217.388
 20
49.7639
 30
0.0
 40
0
 41
0
  0
VERTEX
  8
0
 10
217.626
 20
49.9839
 30
0.0
 40
0
 41
0
  0
VERTEX
  8
0
 10
217.876
 20
50.1924
 30
0.0
 40
0
 41
0
  0
VERTEX
  8
0
 10
218.136
 20
50.3889
 30
0.0
 40
0
 41
0
  0
VERTEX
  8
0
 10
218.406
 20
50.5729
 30
0.0
 40
0
 41
0
  0
VERTEX
  8
0
 10
218.615
 20
50.7032
 30
0.0
 40
0
 41
0
  0
VERTEX
  8
0
 10
218.686
 20
50.7443
 30
0.0
 40
0
 41
0
  0
SEQEND
 8
0
  0
POLYLINE
  8
0
 62
     0
 66
     1
 10
0
 20
0
 30
0.0
 70
     1
 40
0
 41
0
  0
VERTEX
  8
0
 10
59.724
 20
69.4789
 30
0.0
 40
0
 41
0
  0
VERTEX
  8
0
 10
59.8642
 20
69.5599
 30
0.0
 40
0
 41
0
  0
VERTEX
  8
0
 10
60.3008
 20
69.775
 30
0.0
 40
0
 41
0
  0
VERTEX
  8
0
 10
60.8997
 20
70.011
 30
0.0
 40
0
 41
0
  0
VERTEX
  8
0
 10
61.5158
 20
70.1865
 30
0.0
 40
0
 41
0
  0
VERTEX
  8
0
 10
62.1449
 20
70.3007
 30
0.0
 40
0
 41
0
  0
VERTEX
  8
0
 10
62.7818
 20
70.3532
 30
0.0
 40
0
 41
0
  0
VERTEX
  8
0
 10
63.4224
 20
70.3432
 30
0.0
 40
0
 41
0
  0
VERTEX
  8
0
 10
64.0619
 20
70.2701
 30
0.0
 40
0
 41
0
  0
VERTEX
  8
0
 10
64.5394
 20
70.1754
 30
0.0
 40
0
 41
0
  0
VERTEX
  8
0
 10
64.6958
 20
70.1335
 30
0.0
 40
0
 41
0
  0
VERTEX
  8
0
 10
64.7743
 20
70.1125
 30
0.0
 40
0
 41
0
  0
VERTEX
  8
0
 10
65.0075
 20
70.0417
 30
0.0
 40
0
 41
0
  0
VERTEX
  8
0
 10
65.3131
 20
69.9349
 30
0.0
 40
0
 41
0
  0
VERTEX
  8
0
 10
65.6118
 20
69.8137
 30
0.0
 40
0
 41
0
  0
VERTEX
  8
0
 10
65.9033
 20
69.6783
 30
0.0
 40
0
 41
0
  0
VERTEX
  8
0
 10
66.1872
 20
69.5293
 30
0.0
 40
0
 41
0
  0
VERTEX
  8
0
 10
66.4631
 20
69.3668
 30
0.0
 40
0
 41
0
  0
VERTEX
  8
0
 10
66.7304
 20
69.1911
 30
0.0
 40
0
 41
0
  0
VERTEX
  8
0
 10
66.9886
 20
69.0028
 30
0.0
 40
0
 41
0
  0
VERTEX
  8
0
 10
67.2374
 20
68.8021
 30
0.0
 40
0
 41
0
  0
VERTEX
  8
0
 10
67.4761
 20
68.5894
 30
0.0
 40
0
 41
0
  0
VERTEX
  8
0
 10
67.7046
 20
68.365
 30
0.0
 40
0
 41
0
  0
VERTEX
  8
0
 10
67.9221
 20
68.1294
 30
0.0
 40
0
 41
0
  0
VERTEX
  8
0
 10
68.1282
 20
67.8828
 30
0.0
 40
0
 41
0
  0
VERTEX
  8
0
 10
68.3226
 20
67.6256
 30
0.0
 40
0
 41
0
  0
VERTEX
  8
0
 10
68.5047
 20
67.3581
 30
0.0
 40
0
 41
0
  0
VERTEX
  8
0
 10
68.6336
 20
67.1511
 30
0.0
 40
0
 41
0
  0
VERTEX
  8
0
 10
68.6742
 20
67.0807
 30
0.0
 40
0
 41
0
  0
VERTEX
  8
0
 10
68.7551
 20
66.9406
 30
0.0
 40
0
 41
0
  0
VERTEX
  8
0
 10
68.9703
 20
66.5039
 30
0.0
 40
0
 41
0
  0
VERTEX
  8
0
 10
69.2063
 20
65.905
 30
0.0
 40
0
 41
0
  0
VERTEX
  8
0
 10
69.3817
 20
65.2889
 30
0.0
 40
0
 41
0
  0
VERTEX
  8
0
 10
69.496
 20
64.66
 30
0.0
 40
0
 41
0
  0
VERTEX
  8
0
 10
69.5483
 20
64.0229
 30
0.0
 40
0
 41
0
  0
VERTEX
  8
0
 10
69.5383
 20
63.3824
 30
0.0
 40
0
 41
0
  0
VERTEX
  8
0
 10
69.4653
 20
62.7428
 30
0.0
 40
0
 41
0
  0
VERTEX
  8
0
 10
69.3706
 20
62.2654
 30
0.0
 40
0
 41
0
  0
VERTEX
  8
0
 10
69.3287
 20
62.1089
 30
0.0
 40
0
 41
0
  0
VERTEX
  8
0
 10
69.3076
 20
62.0306
 30
0.0
 40
0
 41
0
  0
VERTEX
  8
0
 10
69.2368
 20
61.7972
 30
0.0
 40
0
 41
0
  0
VERTEX
  8
0
 10
69.1301
 20
61.4918
 30
0.0
 40
0
 41
0
  0
VERTEX
  8
0
 10
69.0089
 20
61.1929
 30
0.0
 40
0
 41
0
  0
VERTEX
  8
0
 10
68.8736
 20
60.9014
 30
0.0
 40
0
 41
0
  0
VERTEX
  8
0
 10
68.7244
 20
60.6175
 30
0.0
 40
0
 41
0
  0
VERTEX
  8
0
 10
68.5619
 20
60.3417
 30
0.0
 40
0
 41
0
  0
VERTEX
  8
0
 10
68.3864
 20
60.0744
 30
0.0
 40
0
 41
0
  0
VERTEX
  8
0
 10
68.1981
 20
59.8161
 30
0.0
 40
0
 41
0
  0
VERTEX
  8
0
 10
67.9974
 20
59.5674
 30
0.0
 40
0
 41
0
  0
VERTEX
  8
0
 10
67.7846
 20
59.3286
 30
0.0
 40
0
 41
0
  0
VERTEX
  8
0
 10
67.5603
 20
59.1001
 30
0.0
 40
0
 41
0
  0
VERTEX
  8
0
 10
67.3246
 20
58.8826
 30
0.0
 40
0
 41
0
  0
VERTEX
  8
0
 10
67.0779
 20
58.6765
 30
0.0
 40
0
 41
0
  0
VERTEX
  8
0
 10
66.8207
 20
58.4821
 30
0.0
 40
0
 41
0
  0
VERTEX
  8
0
 10
66.5533
 20
58.3
 30
0.0
 40
0
 41
0
  0
VERTEX
  8
0
 10
66.3463
 20
58.1711
 30
0.0
 40
0
 41
0
  0
VERTEX
  8
0
 10
66.276
 20
58.1306
 30
0.0
 40
0
 41
0
  0
VERTEX
  8
0
 10
66.1357
 20
58.0496
 30
0.0
 40
0
 41
0
  0
VERTEX
  8
0
 10
65.6992
 20
57.8346
 30
0.0
 40
0
 41
0
  0
VERTEX
  8
0
 10
65.1003
 20
57.5985
 30
0.0
 40
0
 41
0
  0
VERTEX
  8
0
 10
64.4842
 20
57.4231
 30
0.0
 40
0
 41
0
  0
VERTEX
  8
0
 10
63.8551
 20
57.3088
 30
0.0
 40
0
 41
0
  0
VERTEX
  8
0
 10
63.2181
 20
57.2564
 30
0.0
 40
0
 41
0
  0
VERTEX
  8
0
 10
62.5775
 20
57.2664
 30
0.0
 40
0
 41
0
  0
VERTEX
  8
0
 10
61.9381
 20
57.3393
 30
0.0
 40
0
 41
0
  0
VERTEX
  8
0
 10
61.4606
 20
57.434
 30
0.0
 40
0
 41
0
  0
VERTEX
  8
0
 10
61.3042
 20
57.476
 30
0.0
 40
0
 41
0
  0
VERTEX
  8
0
 10
61.2257
 20
57.4971
 30
0.0
 40
0
 41
0
  0
VERTEX
  8
0
 10
60.9924
 20
57.5679
 30
0.0
 40
0
 41
0
  0
VERTEX
  8
0
 10
60.6869
 20
57.6746
 30
0.0
 40
0
 41
0
  0
VERTEX
  8
0
 10
60.3882
 20
57.7958
 30
0.0
 40
0
 41
0
  0
VERTEX
  8
0
 10
60.0967
 20
57.9311
 30
0.0
 40
0
 41
0
  0
VERTEX
  8
0
 10
59.8126
 20
58.0801
 30
0.0
 40
0
 41
0
  0
VERTEX
  8
0
 10
59.5368
 20
58.2428
 30
0.0
 40
0
 41
0
  0
VERTEX
  8
0
 10
59.2696
 20
58.4183
 30
0.0
 40
0
 41
0
  0
VERTEX
  8
0
 10
59.0114
 20
58.6067
 30
0.0
 40
0
 41
0
  0
VERTEX
  8
0
 10
58.7626
 20
58.8074
 30
0.0
 40
0
 41
0
  0
VERTEX
  8
0
 10
58.5237
 20
59.0201
 30
0.0
 40
0
 41
0
  0
VERTEX
  8
0
 10
58.2954
 20
59.2444
 30
0.0
 40
0
 41
0
  0
VERTEX
  8
0
 10
58.0779
 20
59.4801
 30
0.0
 40
0
 41
0
  0
VERTEX
  8
0
 10
57.8718
 20
59.7267
 30
0.0
 40
0
 41
0
  0
VERTEX
  8
0
 10
57.6774
 20
59.9839
 30
0.0
 40
0
 41
0
  0
VERTEX
  8
0
 10
57.4951
 20
60.2514
 30
0.0
 40
0
 41
0
  0
VERTEX
  8
0
 10
57.3664
 20
60.4583
 30
0.0
 40
0
 41
0
  0
VERTEX
  8
0
 10
57.3258
 20
60.5287
 30
0.0
 40
0
 41
0
  0
VERTEX
  8
0
 10
57.2449
 20
60.6689
 30
0.0
 40
0
 41
0
  0
VERTEX
  8
0
 10
57.0297
 20
61.1056
 30
0.0
 40
0
 41
0
  0
VERTEX
  8
0
 10
56.7937
 20
61.7044
 30
0.0
 40
0
 41
0
  0
VERTEX
  8
0
 10
56.6183
 20
62.3206
 30
0.0
 40
0
 41
0
  0
VERTEX
  8
0
 10
56.504
 20
62.9496
 30
0.0
 40
0
 41
0
  0
VERTEX
  8
0
 10
56.4517
 20
63.5865
 30
0.0
 40
0
 41
0
  0
VERTEX
  8
0
 10
56.4615
 20
64.2272
 30
0.0
 40
0
 41
0
  0
VERTEX
  8
0
 10
56.5346
 20
64.8667
 30
0.0
 40
0
 41
0
  0
VERTEX
  8
0
 10
56.6293
 20
65.3442
 30
0.0
 40
0
 41
0
  0
VERTEX
  8
0
 10
56.6713
 20
65.5006
 30
0.0
 40
0
 41
0
  0
VERTEX
  8
0
 10
56.6922
 20
65.579
 30
0.0
 40
0
 41
0
  0
VERTEX
  8
0
 10
56.7632
 20
65.8122
 30
0.0
 40
0
 41
0
  0
VERTEX
  8
0
 10
56.8699
 20
66.1178
 30
0.0
 40
0
 41
0
  0
VERTEX
  8
0
 10
56.991
 20
66.4165
 30
0.0
 40
0
 41
0
  0
VERTEX
  8
0
 10
57.1264
 20
66.7081
 30
0.0
 40
0
 41
0
  0
VERTEX
  8
0
 10
57.2754
 20
66.9921
 30
0.0
 40
0
 41
0
  0
VERTEX
  8
0
 10
57.4381
 20
67.2679
 30
0.0
 40
0
 41
0
  0
VERTEX
  8
0
 10
57.6136
 20
67.5351
 30
0.0
 40
0
 41
0
  0
VERTEX
  8
0
 10
57.8019
 20
67.7933
 30
0.0
 40
0
 41
0
  0
VERTEX
  8
0
 10
58.0026
 20
68.0421
 30
0.0
 40
0
 41
0
  0
VERTEX
  8
0
 10
58.2153
 20
68.281
 30
0.0
 40
0
 41
0
  0
VERTEX
  8
0
 10
58.4397
 20
68.5093
 30
0.0
 40
0
 41
0
  0
VERTEX
  8
0
 10
58.6754
 20
68.7268
 30
0.0
 40
0
 41
0
  0
VERTEX
  8
0
 10
58.9219
 20
68.9331
 30
0.0
 40
0
 41
0
  0
VERTEX
  8
0
 10
59.1792
 20
69.1274
 30
0.0
 40
0
 41
0
  0
VERTEX
  8
0
 10
59.4467
 20
69.3096
 30
0.0
 40
0
 41
0
  0
VERTEX
  8
0
 10
59.6536
 20
69.4383
 30
0.0
 40
0
 41
0
  0
VERTEX
  8
0
 10
59.724
 20
69.4789
 30
0.0
 40
0
 41
0
  0
SEQEND
 8
0
  0
POLYLINE
  8
0
 62
     0
 66
     1
 10
0
 20
0
 30
0.0
 70
     1
 40
0
 41
0
  0
VERTEX
  8
0
 10
187.51
 20
68.7443
 30
0.0
 40
0
 41
0
  0
VERTEX
  8
0
 10
187.651
 20
68.8261
 30
0.0
 40
0
 41
0
  0
VERTEX
  8
0
 10
188.093
 20
69.0436
 30
0.0
 40
0
 41
0
  0
VERTEX
  8
0
 10
188.699
 20
69.2822
 30
0.0
 40
0
 41
0
  0
VERTEX
  8
0
 10
189.321
 20
69.4596
 30
0.0
 40
0
 41
0
  0
VERTEX
  8
0
 10
189.957
 20
69.575
 30
0.0
 40
0
 41
0
  0
VERTEX
  8
0
 10
190.601
 20
69.6281
 30
0.0
 40
0
 41
0
  0
VERTEX
  8
0
 10
191.249
 20
69.6179
 30
0.0
 40
0
 41
0
  0
VERTEX
  8
0
 10
191.896
 20
69.5442
 30
0.0
 40
0
 41
0
  0
VERTEX
  8
0
 10
192.378
 20
69.4483
 30
0.0
 40
0
 41
0
  0
VERTEX
  8
0
 10
192.536
 20
69.406
 30
0.0
 40
0
 41
0
  0
VERTEX
  8
0
 10
192.615
 20
69.3847
 30
0.0
 40
0
 41
0
  0
VERTEX
  8
0
 10
192.851
 20
69.3132
 30
0.0
 40
0
 41
0
  0
VERTEX
  8
0
 10
193.16
 20
69.2053
 30
0.0
 40
0
 41
0
  0
VERTEX
  8
0
 10
193.462
 20
69.0828
 30
0.0
 40
0
 41
0
  0
VERTEX
  8
0
 10
193.757
 20
68.946
 30
0.0
 40
0
 41
0
  0
VERTEX
  8
0
 10
194.044
 20
68.7951
 30
0.0
 40
0
 41
0
  0
VERTEX
  8
0
 10
194.322
 20
68.6308
 30
0.0
 40
0
 41
0
  0
VERTEX
  8
0
 10
194.593
 20
68.4533
 30
0.0
 40
0
 41
0
  0
VERTEX
  8
0
 10
194.854
 20
68.2629
 30
0.0
 40
0
 41
0
  0
VERTEX
  8
0
 10
195.106
 20
68.06
 30
0.0
 40
0
 41
0
  0
VERTEX
  8
0
 10
195.347
 20
67.845
 30
0.0
 40
0
 41
0
  0
VERTEX
  8
0
 10
195.578
 20
67.6182
 30
0.0
 40
0
 41
0
  0
VERTEX
  8
0
 10
195.797
 20
67.3799
 30
0.0
 40
0
 41
0
  0
VERTEX
  8
0
 10
196.006
 20
67.1306
 30
0.0
 40
0
 41
0
  0
VERTEX
  8
0
 10
196.203
 20
66.8706
 30
0.0
 40
0
 41
0
  0
VERTEX
  8
0
 10
196.388
 20
66.6001
 30
0.0
 40
0
 41
0
  0
VERTEX
  8
0
 10
196.517
 20
66.3908
 30
0.0
 40
0
 41
0
  0
VERTEX
  8
0
 10
196.558
 20
66.3197
 30
0.0
 40
0
 41
0
  0
VERTEX
  8
0
 10
196.64
 20
66.1781
 30
0.0
 40
0
 41
0
  0
VERTEX
  8
0
 10
196.857
 20
65.7365
 30
0.0
 40
0
 41
0
  0
VERTEX
  8
0
 10
197.096
 20
65.1311
 30
0.0
 40
0
 41
0
  0
VERTEX
  8
0
 10
197.274
 20
64.5082
 30
0.0
 40
0
 41
0
  0
VERTEX
  8
0
 10
197.389
 20
63.8724
 30
0.0
 40
0
 41
0
  0
VERTEX
  8
0
 10
197.442
 20
63.2283
 30
0.0
 40
0
 41
0
  0
VERTEX
  8
0
 10
197.432
 20
62.5806
 30
0.0
 40
0
 41
0
  0
VERTEX
  8
0
 10
197.358
 20
61.934
 30
0.0
 40
0
 41
0
  0
VERTEX
  8
0
 10
197.263
 20
61.4514
 30
0.0
 40
0
 41
0
  0
VERTEX
  8
0
 10
197.219
 20
61.2933
 30
0.0
 40
0
 41
0
  0
VERTEX
  8
0
 10
197.199
 20
61.214
 30
0.0
 40
0
 41
0
  0
VERTEX
  8
0
 10
197.126
 20
60.9782
 30
0.0
 40
0
 41
0
  0
VERTEX
  8
0
 10
197.019
 20
60.6693
 30
0.0
 40
0
 41
0
  0
VERTEX
  8
0
 10
196.897
 20
60.3674
 30
0.0
 40
0
 41
0
  0
VERTEX
  8
0
 10
196.76
 20
60.0725
 30
0.0
 40
0
 41
0
  0
VERTEX
  8
0
 10
196.61
 20
59.7854
 30
0.0
 40
0
 41
0
  0
VERTEX
  8
0
 10
196.444
 20
59.5065
 30
0.0
 40
0
 41
0
  0
VERTEX
  8
0
 10
196.267
 20
59.2364
 30
0.0
 40
0
 41
0
  0
VERTEX
  8
0
 10
196.076
 20
58.9753
 30
0.0
 40
0
 41
0
  0
VERTEX
  8
0
 10
195.874
 20
58.7239
 30
0.0
 40
0
 41
0
  0
VERTEX
  8
0
 10
195.658
 20
58.4824
 30
0.0
 40
0
 41
0
  0
VERTEX
  8
0
 10
195.432
 20
58.2515
 30
0.0
 40
0
 41
0
  0
VERTEX
  8
0
 10
195.193
 20
58.0315
 30
0.0
 40
0
 41
0
  0
VERTEX
  8
0
 10
194.944
 20
57.8232
 30
0.0
 40
0
 41
0
  0
VERTEX
  8
0
 10
194.685
 20
57.6267
 30
0.0
 40
0
 41
0
  0
VERTEX
  8
0
 10
194.414
 20
57.4425
 30
0.0
 40
0
 41
0
  0
VERTEX
  8
0
 10
194.204
 20
57.3122
 30
0.0
 40
0
 41
0
  0
VERTEX
  8
0
 10
194.133
 20
57.2711
 30
0.0
 40
0
 41
0
  0
VERTEX
  8
0
 10
193.992
 20
57.1893
 30
0.0
 40
0
 41
0
  0
VERTEX
  8
0
 10
193.55
 20
56.9719
 30
0.0
 40
0
 41
0
  0
VERTEX
  8
0
 10
192.944
 20
56.7333
 30
0.0
 40
0
 41
0
  0
VERTEX
  8
0
 10
192.322
 20
56.5558
 30
0.0
 40
0
 41
0
  0
VERTEX
  8
0
 10
191.686
 20
56.4404
 30
0.0
 40
0
 41
0
  0
VERTEX
  8
0
 10
191.042
 20
56.3874
 30
0.0
 40
0
 41
0
  0
VERTEX
  8
0
 10
190.394
 20
56.3975
 30
0.0
 40
0
 41
0
  0
VERTEX
  8
0
 10
189.749
 20
56.4712
 30
0.0
 40
0
 41
0
  0
VERTEX
  8
0
 10
189.265
 20
56.5671
 30
0.0
 40
0
 41
0
  0
VERTEX
  8
0
 10
189.107
 20
56.6094
 30
0.0
 40
0
 41
0
  0
VERTEX
  8
0
 10
189.028
 20
56.6307
 30
0.0
 40
0
 41
0
  0
VERTEX
  8
0
 10
188.792
 20
56.7024
 30
0.0
 40
0
 41
0
  0
VERTEX
  8
0
 10
188.483
 20
56.8103
 30
0.0
 40
0
 41
0
  0
VERTEX
  8
0
 10
188.181
 20
56.9328
 30
0.0
 40
0
 41
0
  0
VERTEX
  8
0
 10
187.886
 20
57.0696
 30
0.0
 40
0
 41
0
  0
VERTEX
  8
0
 10
187.6
 20
57.2203
 30
0.0
 40
0
 41
0
  0
VERTEX
  8
0
 10
187.321
 20
57.3846
 30
0.0
 40
0
 41
0
  0
VERTEX
  8
0
 10
187.05
 20
57.5622
 30
0.0
 40
0
 41
0
  0
VERTEX
  8
0
 10
186.789
 20
57.7525
 30
0.0
 40
0
 41
0
  0
VERTEX
  8
0
 10
186.538
 20
57.9554
 30
0.0
 40
0
 41
0
  0
VERTEX
  8
0
 10
186.296
 20
58.1706
 30
0.0
 40
0
 41
0
  0
VERTEX
  8
0
 10
186.065
 20
58.3974
 30
0.0
 40
0
 41
0
  0
VERTEX
  8
0
 10
185.846
 20
58.6356
 30
0.0
 40
0
 41
0
  0
VERTEX
  8
0
 10
185.638
 20
58.8849
 30
0.0
 40
0
 41
0
  0
VERTEX
  8
0
 10
185.44
 20
59.145
 30
0.0
 40
0
 41
0
  0
VERTEX
  8
0
 10
185.257
 20
59.4153
 30
0.0
 40
0
 41
0
  0
VERTEX
  8
0
 10
185.126
 20
59.6246
 30
0.0
 40
0
 41
0
  0
VERTEX
  8
0
 10
185.085
 20
59.6957
 30
0.0
 40
0
 41
0
  0
VERTEX
  8
0
 10
185.003
 20
59.8375
 30
0.0
 40
0
 41
0
  0
VERTEX
  8
0
 10
184.786
 20
60.2789
 30
0.0
 40
0
 41
0
  0
VERTEX
  8
0
 10
184.547
 20
60.8843
 30
0.0
 40
0
 41
0
  0
VERTEX
  8
0
 10
184.369
 20
61.5072
 30
0.0
 40
0
 41
0
  0
VERTEX
  8
0
 10
184.254
 20
62.1431
 30
0.0
 40
0
 41
0
  0
VERTEX
  8
0
 10
184.201
 20
62.7872
 30
0.0
 40
0
 41
0
  0
VERTEX
  8
0
 10
184.211
 20
63.4349
 30
0.0
 40
0
 41
0
  0
VERTEX
  8
0
 10
184.285
 20
64.0814
 30
0.0
 40
0
 41
0
  0
VERTEX
  8
0
 10
184.381
 20
64.564
 30
0.0
 40
0
 41
0
  0
VERTEX
  8
0
 10
184.424
 20
64.7221
 30
0.0
 40
0
 41
0
  0
VERTEX
  8
0
 10
184.444
 20
64.8014
 30
0.0
 40
0
 41
0
  0
VERTEX
  8
0
 10
184.517
 20
65.0374
 30
0.0
 40
0
 41
0
  0
VERTEX
  8
0
 10
184.624
 20
65.3461
 30
0.0
 40
0
 41
0
  0
VERTEX
  8
0
 10
184.747
 20
65.6482
 30
0.0
 40
0
 41
0
  0
VERTEX
  8
0
 10
184.883
 20
65.9429
 30
0.0
 40
0
 41
0
  0
VERTEX
  8
0
 10
185.035
 20
66.23
 30
0.0
 40
0
 41
0
  0
VERTEX
  8
0
 10
185.199
 20
66.5089
 30
0.0
 40
0
 41
0
  0
VERTEX
  8
0
 10
185.376
 20
66.779
 30
0.0
 40
0
 41
0
  0
VERTEX
  8
0
 10
185.567
 20
67.0401
 30
0.0
 40
0
 41
0
  0
VERTEX
  8
0
 10
185.769
 20
67.2917
 30
0.0
 40
0
 41
0
  0
VERTEX
  8
0
 10
185.985
 20
67.5331
 30
0.0
 40
0
 41
0
  0
VERTEX
  8
0
 10
186.211
 20
67.764
 30
0.0
 40
0
 41
0
  0
VERTEX
  8
0
 10
186.45
 20
67.9839
 30
0.0
 40
0
 41
0
  0
VERTEX
  8
0
 10
186.699
 20
68.1924
 30
0.0
 40
0
 41
0
  0
VERTEX
  8
0
 10
186.958
 20
68.3889
 30
0.0
 40
0
 41
0
  0
VERTEX
  8
0
 10
187.229
 20
68.5731
 30
0.0
 40
0
 41
0
  0
VERTEX
  8
0
 10
187.439
 20
68.7032
 30
0.0
 40
0
 41
0
  0
VERTEX
  8
0
 10
187.51
 20
68.7443
 30
0.0
 40
0
 41
0
  0
SEQEND
 8
0
  0
ENDSEC
  0
EOF
